<svg width="400" height="400" viewbox = "0 0 400 400"  xmlns="http://www.w3.org/2000/svg">
<!--<json>{
  "glyph": "0211,0211,0332,0332,0332,0223,",
  "x0": 200,
  "y0": 200,
  "unit": 50,
  "width": 400,
  "height": 400,
  "style": {
    "color0": "black",
    "fill0": "black",
    "line0": 1,
    "color1": "black",
    "fill1": "black",
    "line1": 5,
    "color2": "red",
    "fill2": "red",
    "line2": 1,
    "color3": "#FF7900",
    "fill3": "#FF7900",
    "line3": 1,
    "color4": "yellow",
    "fill4": "yellow",
    "line4": 1,
    "color5": "green",
    "fill5": "green",
    "line5": 1,
    "color6": "blue",
    "fill6": "blue",
    "line6": 1,
    "color7": "purple",
    "fill7": "purple",
    "line7": 1
  },
  "shapes": [
    "0220:0342,0336,0333,0342,0336,0332,0342,0333,0333,0342,0336,0333,0342,0332,0332,0342,0332,0332,0342,0332,0332,0342,0333,0333,0333,0333,0333,0333,0333,0337,0337,0337,",
    "0221:0316,0336,0313,0342,0336,0333,0342,0333,0342,0333,0342,0333,0342,0333,0337,0342,0336,0333,0342,0333,0342,0333,0342,0333,0342,0333,0342,0337,0316,0337,0313,",
    "0222:0362,0203,0335,0203,0203,0203,0203,0203,0203,0335,0203,0335,0203,0203,0203,0203,0203,0203,0354,0335,",
    "0223:0222,0322,0221,0221,0221,0221,0221,0221,0334,0221,0334,0220,0220,0220,0220,0220,0220,0334,0220,0334,0320,",
    "0224:0222,0330,0222,0330,0222,0330,0222,0330,0222,0330,0222,0331,0331,0331,0331,0331,",
    "0225:0223,0330,0223,0330,0223,0330,0223,0330,0223,0330,0223,0331,0331,0331,0331,0331,",
    "0226:0313,0304,0335,0306,0350,0312,0330,0334,0334,0334,0334,0334,0336,0330,0334,0334,0330,0331,0334,0336,0342,0334,0334,0342,0330,0334,0336,0331,0342,0335,0335,0335,0335,0342,0334,0336,0342,0334,0334,0342,0330,0334,0336,0331,0342,0335,0335,0335,0335,0342,0334,0336,0342,0334,0334,0342,0334,0337,0330,0335,0337,0331,0334,0337,0330,0335,0337,0331,0313,0336,0312,0335,0337,0342,0330,0335,0335,0335,0337,0330,0335,0335,0335,0313,0337,0304,0313,",
    "0227:0331,0220,0333,0332,0222,0333,0330,0332,0335,0335,0332,0223,0335,0335,0221,0312,0336,0331,0306,0334,0313,0337,0330,0335,0304,0335,0335,0336,0312,0337,0313,0304,0330,0335,0330,0335,0330,0335,0330,0334,0331,0335,0330,0334,0334,0350,0310,0337,0335,0330,0336,0335,0304,0335,0306,0334,0330,0335,0335,0330,0335,0335,0330,0335,0335,0304,0334,0226,0335,0306,0350,0334,0312,0336,0330,0335,0335,0330,0331,0334,0334,0331,0337,0313,0304,0332,0225,0335,0305,0334,0311,0336,0330,0335,0350,0335,0337,0304,0334,0224,0335,0305,0350,0334,0311,0336,0330,0335,0335,0335,0335,0335,0304,0305,0330,0334,0334,0311,0337,0330,0335,0335,0304,0335,0313,",
    "0230:0331,0200,0335,0201,0334,0334,0350,0335,0310,0337,0201,0335,0304,0335,0336,0201,0335,0312,0336,0201,0335,0306,0350,0335,0313,0337,0201,0334,0313,0336,0312,0337,0304,0335,0335,0306,0334,0201,0335,0335,0342,0335,0350,0335,0312,0336,0201,0334,0334,0201,0335,0335,0335,0337,0313,0304,0335,0332,0335,0305,0334,0311,0336,0201,0335,0350,0335,0337,0342,0334,0336,0201,0335,0335,0201,0335,0335,0335,0337,0313,0304,0335,",
    "01220:0333,0200,0336,0332,0330,0336,0332,0337,0220,0331,0336,0333,0337,0337,",
    "01221:0333,0200,0336,0330,0332,0336,0332,0337,0221,0336,0333,0337,0331,0337,",
    "01222:0333,0200,0336,0330,0332,0336,0332,0336,0332,0222,0332,0337,0337,0331,0337,0333,",
    "01223:0333,0200,0336,0332,0330,0336,0332,0336,0332,0223,0332,0337,0337,0331,0337,0333,0320,",
    "01224:0333,0200,0336,0332,0336,0330,0336,0332,0332,0331,0332,0224,",
    "01225:0333,0200,0336,0330,0332,0336,0331,0332,0336,0331,0332,0225,0331,0332,0320,0337,0337,0337,0333,",
    "01226:0333,0200,0336,0336,0330,0332,0337,0226,0336,0333,0331,0337,0337,",
    "01227:0333,0200,0336,0330,0332,0336,0332,0337,0227,0333,0336,0333,0337,0331,0337,",
    "01230:0333,0200,",
    "01231:0333,0200,",
    "01232:0333,0200,",
    "01233:0333,0200,",
    "01234:0333,0200,",
    "01235:0333,0200,",
    "01236:0333,0200,",
    "01237:0333,0200,",
    "0240:0220,0336,0331,0333,0336,0321,0335,0342,0335,0335,0342,0335,0330,0330,0332,0332,0337,0337,",
    "01240:0333,0200,0336,0330,0332,0210,0240,0211,0333,0331,0337,",
    "0241:0220,0336,0321,0343,0332,0350,0335,0336,0342,0334,0334,0342,0335,0304,0337,0333,0337,",
    "01241:0333,0200,0336,0332,0330,0210,0241,0211,0333,0331,0337,",
    "0242:0220,0321,0336,0343,0333,0336,0350,0335,0342,0334,0334,0342,0335,0337,0304,0332,0337,",
    "01242:0333,0200,0336,0330,0332,0210,0242,0211,0333,0331,0337,",
    "0243:0220,0336,0331,0332,0336,0321,0343,0332,0350,0334,0336,0342,0335,0335,0342,0337,0334,0334,0335,0304,0332,0330,0330,0337,0337,0333,",
    "01243:0333,0200,0336,0330,0332,0210,0243,0211,0333,0331,0337,",
    "0244:0220,0336,0331,0333,0336,0321,0343,0333,0350,0336,0335,0342,0334,0334,0342,0335,0337,0304,0333,0330,0330,0337,0337,0332,",
    "01244:0333,0200,0336,0330,0332,0210,0244,0211,0333,0331,0337,",
    "0245:0210,0332,0332,0362,0335,0203,0203,0203,0203,0334,0203,0363,0332,0332,0331,0211,",
    "01245:0333,0200,0336,0330,0332,0336,0245,0337,0333,0331,0337,",
    "0246:0210,0332,0332,0335,0306,0336,0330,0335,0335,0335,0321,0362,0203,0335,0335,0203,0364,0331,0350,0335,0337,0366,0333,0333,0333,0333,0334,0334,0334,0334,0367,0335,0336,0342,0334,0334,0342,0330,0330,0330,0330,0335,0335,0335,0304,0337,0211,",
    "01246:0333,0200,0336,0330,0332,0336,0246,",
    "0247:0330,0332,0336,0332,0336,0221,0333,0333,0333,0222,0333,0333,0333,0223,0333,0333,0333,0225,0333,0331,0331,0331,0332,0332,0332,0332,0332,0332,0332,0332,0332,0332,0332,0332,0333,0333,0226,0331,0331,0331,0333,0333,0333,0333,0333,0333,0333,0333,0333,0333,0333,0333,0333,0330,0333,0330,0330,0333,0330,0331,0332,0332,0332,0332,0332,0332,0332,0332,0332,0332,0332,0332,0227,0333,0333,0333,0230,0333,0331,0331,0331,0331,0332,0332,0332,0330,0332,0332,0332,0332,0332,0332,0333,0333,0231,0333,0333,0333,0232,0331,0333,0330,0333,0333,0233,0333,0333,0333,0234,0330,0330,0332,0330,0332,0332,0337,0337,",
    "01247:0333,0200,0336,0330,0332,0220,0336,0247,0337,0331,0333,0337,"
  ]
}</json>-->	<path d = "M4 200 L4 135 L69 135 L135 135 L200 135 L265 135 L331 135 L396 135 L396 200 L331 200 L265 200 L200 200 L135 200 L69 200 L4 200 Z" stroke = "#000000" stroke-width = "1" fill = "none" />    <line x1="4" y1="200" x2="4" y2="187" style="stroke:#ff0000;stroke-width:1" />
    <line x1="10" y1="200" x2="10" y2="193" style="stroke:#ff0000;stroke-width:1" />
    <line x1="17" y1="200" x2="17" y2="193" style="stroke:#ff0000;stroke-width:1" />
    <line x1="23" y1="200" x2="23" y2="193" style="stroke:#ff0000;stroke-width:1" />
    <line x1="30" y1="200" x2="30" y2="193" style="stroke:#ff0000;stroke-width:1" />
    <line x1="36" y1="200" x2="36" y2="187" style="stroke:#ff0000;stroke-width:1" />
    <line x1="43" y1="200" x2="43" y2="193" style="stroke:#ff0000;stroke-width:1" />
    <line x1="49" y1="200" x2="49" y2="193" style="stroke:#ff0000;stroke-width:1" />
    <line x1="56" y1="200" x2="56" y2="193" style="stroke:#ff0000;stroke-width:1" />
    <line x1="63" y1="200" x2="63" y2="193" style="stroke:#ff0000;stroke-width:1" />
    <line x1="69" y1="200" x2="69" y2="193" style="stroke:#ff0000;stroke-width:1" />
    <line x1="69" y1="200" x2="69" y2="187" style="stroke:#ff0000;stroke-width:1" />
    <line x1="76" y1="200" x2="76" y2="193" style="stroke:#ff0000;stroke-width:1" />
    <line x1="82" y1="200" x2="82" y2="193" style="stroke:#ff0000;stroke-width:1" />
    <line x1="89" y1="200" x2="89" y2="193" style="stroke:#ff0000;stroke-width:1" />
    <line x1="95" y1="200" x2="95" y2="193" style="stroke:#ff0000;stroke-width:1" />
    <line x1="102" y1="200" x2="102" y2="187" style="stroke:#ff0000;stroke-width:1" />
    <line x1="108" y1="200" x2="108" y2="193" style="stroke:#ff0000;stroke-width:1" />
    <line x1="115" y1="200" x2="115" y2="193" style="stroke:#ff0000;stroke-width:1" />
    <line x1="121" y1="200" x2="121" y2="193" style="stroke:#ff0000;stroke-width:1" />
    <line x1="128" y1="200" x2="128" y2="193" style="stroke:#ff0000;stroke-width:1" />
    <line x1="135" y1="200" x2="135" y2="193" style="stroke:#ff0000;stroke-width:1" />
    <line x1="135" y1="200" x2="135" y2="187" style="stroke:#ff0000;stroke-width:1" />
    <line x1="141" y1="200" x2="141" y2="193" style="stroke:#ff0000;stroke-width:1" />
    <line x1="148" y1="200" x2="148" y2="193" style="stroke:#ff0000;stroke-width:1" />
    <line x1="154" y1="200" x2="154" y2="193" style="stroke:#ff0000;stroke-width:1" />
    <line x1="161" y1="200" x2="161" y2="193" style="stroke:#ff0000;stroke-width:1" />
    <line x1="167" y1="200" x2="167" y2="187" style="stroke:#ff0000;stroke-width:1" />
    <line x1="174" y1="200" x2="174" y2="193" style="stroke:#ff0000;stroke-width:1" />
    <line x1="180" y1="200" x2="180" y2="193" style="stroke:#ff0000;stroke-width:1" />
    <line x1="187" y1="200" x2="187" y2="193" style="stroke:#ff0000;stroke-width:1" />
    <line x1="193" y1="200" x2="193" y2="193" style="stroke:#ff0000;stroke-width:1" />
    <line x1="200" y1="200" x2="200" y2="193" style="stroke:#ff0000;stroke-width:1" />
    <line x1="200" y1="200" x2="200" y2="187" style="stroke:#ff0000;stroke-width:1" />
    <line x1="207" y1="200" x2="207" y2="193" style="stroke:#ff0000;stroke-width:1" />
    <line x1="213" y1="200" x2="213" y2="193" style="stroke:#ff0000;stroke-width:1" />
    <line x1="220" y1="200" x2="220" y2="193" style="stroke:#ff0000;stroke-width:1" />
    <line x1="226" y1="200" x2="226" y2="193" style="stroke:#ff0000;stroke-width:1" />
    <line x1="233" y1="200" x2="233" y2="187" style="stroke:#ff0000;stroke-width:1" />
    <line x1="239" y1="200" x2="239" y2="193" style="stroke:#ff0000;stroke-width:1" />
    <line x1="246" y1="200" x2="246" y2="193" style="stroke:#ff0000;stroke-width:1" />
    <line x1="252" y1="200" x2="252" y2="193" style="stroke:#ff0000;stroke-width:1" />
    <line x1="259" y1="200" x2="259" y2="193" style="stroke:#ff0000;stroke-width:1" />
    <line x1="265" y1="200" x2="265" y2="193" style="stroke:#ff0000;stroke-width:1" />
    <line x1="265" y1="200" x2="265" y2="187" style="stroke:#ff0000;stroke-width:1" />
    <line x1="272" y1="200" x2="272" y2="193" style="stroke:#ff0000;stroke-width:1" />
    <line x1="279" y1="200" x2="279" y2="193" style="stroke:#ff0000;stroke-width:1" />
    <line x1="285" y1="200" x2="285" y2="193" style="stroke:#ff0000;stroke-width:1" />
    <line x1="292" y1="200" x2="292" y2="193" style="stroke:#ff0000;stroke-width:1" />
    <line x1="298" y1="200" x2="298" y2="187" style="stroke:#ff0000;stroke-width:1" />
    <line x1="305" y1="200" x2="305" y2="193" style="stroke:#ff0000;stroke-width:1" />
    <line x1="311" y1="200" x2="311" y2="193" style="stroke:#ff0000;stroke-width:1" />
    <line x1="318" y1="200" x2="318" y2="193" style="stroke:#ff0000;stroke-width:1" />
    <line x1="324" y1="200" x2="324" y2="193" style="stroke:#ff0000;stroke-width:1" />
    <line x1="331" y1="200" x2="331" y2="193" style="stroke:#ff0000;stroke-width:1" />
    <line x1="331" y1="200" x2="331" y2="187" style="stroke:#ff0000;stroke-width:1" />
    <line x1="337" y1="200" x2="337" y2="193" style="stroke:#ff0000;stroke-width:1" />
    <line x1="344" y1="200" x2="344" y2="193" style="stroke:#ff0000;stroke-width:1" />
    <line x1="351" y1="200" x2="351" y2="193" style="stroke:#ff0000;stroke-width:1" />
    <line x1="357" y1="200" x2="357" y2="193" style="stroke:#ff0000;stroke-width:1" />
    <line x1="364" y1="200" x2="364" y2="187" style="stroke:#ff0000;stroke-width:1" />
    <line x1="370" y1="200" x2="370" y2="193" style="stroke:#ff0000;stroke-width:1" />
    <line x1="377" y1="200" x2="377" y2="193" style="stroke:#ff0000;stroke-width:1" />
    <line x1="383" y1="200" x2="383" y2="193" style="stroke:#ff0000;stroke-width:1" />
    <line x1="390" y1="200" x2="390" y2="193" style="stroke:#ff0000;stroke-width:1" />
    <line x1="396" y1="200" x2="396" y2="193" style="stroke:#ff0000;stroke-width:1" />
    <line x1="396" y1="200" x2="383" y2="200" style="stroke:#ff0000;stroke-width:1" />
    <line x1="396" y1="193" x2="390" y2="193" style="stroke:#ff0000;stroke-width:1" />
    <line x1="396" y1="187" x2="390" y2="187" style="stroke:#ff0000;stroke-width:1" />
    <line x1="396" y1="180" x2="390" y2="180" style="stroke:#ff0000;stroke-width:1" />
    <line x1="396" y1="174" x2="390" y2="174" style="stroke:#ff0000;stroke-width:1" />
    <line x1="396" y1="167" x2="383" y2="167" style="stroke:#ff0000;stroke-width:1" />
    <line x1="396" y1="161" x2="390" y2="161" style="stroke:#ff0000;stroke-width:1" />
    <line x1="396" y1="154" x2="390" y2="154" style="stroke:#ff0000;stroke-width:1" />
    <line x1="396" y1="148" x2="390" y2="148" style="stroke:#ff0000;stroke-width:1" />
    <line x1="396" y1="141" x2="390" y2="141" style="stroke:#ff0000;stroke-width:1" />
    <line x1="396" y1="135" x2="390" y2="135" style="stroke:#ff0000;stroke-width:1" />
    <line x1="396" y1="135" x2="396" y2="200" style="stroke:#ff0000;stroke-width:1" />
    <line x1="364" y1="135" x2="364" y2="167" style="stroke:#ff0000;stroke-width:1" />
    <line x1="380" y1="135" x2="380" y2="151" style="stroke:#ff0000;stroke-width:1" />
    <line x1="347" y1="135" x2="347" y2="151" style="stroke:#ff0000;stroke-width:1" />
    <line x1="339" y1="135" x2="339" y2="143" style="stroke:#ff0000;stroke-width:1" />
    <line x1="355" y1="135" x2="355" y2="143" style="stroke:#ff0000;stroke-width:1" />
    <line x1="372" y1="135" x2="372" y2="143" style="stroke:#ff0000;stroke-width:1" />
    <line x1="388" y1="135" x2="388" y2="143" style="stroke:#ff0000;stroke-width:1" />
    <line x1="331" y1="135" x2="331" y2="200" style="stroke:#ff0000;stroke-width:1" />
    <line x1="298" y1="135" x2="298" y2="167" style="stroke:#ff0000;stroke-width:1" />
    <line x1="315" y1="135" x2="315" y2="151" style="stroke:#ff0000;stroke-width:1" />
    <line x1="282" y1="135" x2="282" y2="151" style="stroke:#ff0000;stroke-width:1" />
    <line x1="274" y1="135" x2="274" y2="143" style="stroke:#ff0000;stroke-width:1" />
    <line x1="290" y1="135" x2="290" y2="143" style="stroke:#ff0000;stroke-width:1" />
    <line x1="306" y1="135" x2="306" y2="143" style="stroke:#ff0000;stroke-width:1" />
    <line x1="323" y1="135" x2="323" y2="143" style="stroke:#ff0000;stroke-width:1" />
    <line x1="265" y1="135" x2="265" y2="200" style="stroke:#ff0000;stroke-width:1" />
    <line x1="233" y1="135" x2="233" y2="167" style="stroke:#ff0000;stroke-width:1" />
    <line x1="249" y1="135" x2="249" y2="151" style="stroke:#ff0000;stroke-width:1" />
    <line x1="216" y1="135" x2="216" y2="151" style="stroke:#ff0000;stroke-width:1" />
    <line x1="208" y1="135" x2="208" y2="143" style="stroke:#ff0000;stroke-width:1" />
    <line x1="225" y1="135" x2="225" y2="143" style="stroke:#ff0000;stroke-width:1" />
    <line x1="241" y1="135" x2="241" y2="143" style="stroke:#ff0000;stroke-width:1" />
    <line x1="257" y1="135" x2="257" y2="143" style="stroke:#ff0000;stroke-width:1" />
    <line x1="200" y1="135" x2="200" y2="200" style="stroke:#ff0000;stroke-width:1" />
    <line x1="167" y1="135" x2="167" y2="167" style="stroke:#ff0000;stroke-width:1" />
    <line x1="184" y1="135" x2="184" y2="151" style="stroke:#ff0000;stroke-width:1" />
    <line x1="151" y1="135" x2="151" y2="151" style="stroke:#ff0000;stroke-width:1" />
    <line x1="143" y1="135" x2="143" y2="143" style="stroke:#ff0000;stroke-width:1" />
    <line x1="159" y1="135" x2="159" y2="143" style="stroke:#ff0000;stroke-width:1" />
    <line x1="175" y1="135" x2="175" y2="143" style="stroke:#ff0000;stroke-width:1" />
    <line x1="192" y1="135" x2="192" y2="143" style="stroke:#ff0000;stroke-width:1" />
    <line x1="135" y1="135" x2="135" y2="200" style="stroke:#ff0000;stroke-width:1" />
    <line x1="102" y1="135" x2="102" y2="167" style="stroke:#ff0000;stroke-width:1" />
    <line x1="118" y1="135" x2="118" y2="151" style="stroke:#ff0000;stroke-width:1" />
    <line x1="85" y1="135" x2="85" y2="151" style="stroke:#ff0000;stroke-width:1" />
    <line x1="77" y1="135" x2="77" y2="143" style="stroke:#ff0000;stroke-width:1" />
    <line x1="94" y1="135" x2="94" y2="143" style="stroke:#ff0000;stroke-width:1" />
    <line x1="110" y1="135" x2="110" y2="143" style="stroke:#ff0000;stroke-width:1" />
    <line x1="126" y1="135" x2="126" y2="143" style="stroke:#ff0000;stroke-width:1" />
    <line x1="69" y1="135" x2="69" y2="200" style="stroke:#ff0000;stroke-width:1" />
    <line x1="36" y1="135" x2="36" y2="167" style="stroke:#ff0000;stroke-width:1" />
    <line x1="53" y1="135" x2="53" y2="151" style="stroke:#ff0000;stroke-width:1" />
    <line x1="20" y1="135" x2="20" y2="151" style="stroke:#ff0000;stroke-width:1" />
    <line x1="12" y1="135" x2="12" y2="143" style="stroke:#ff0000;stroke-width:1" />
    <line x1="28" y1="135" x2="28" y2="143" style="stroke:#ff0000;stroke-width:1" />
    <line x1="45" y1="135" x2="45" y2="143" style="stroke:#ff0000;stroke-width:1" />
    <line x1="61" y1="135" x2="61" y2="143" style="stroke:#ff0000;stroke-width:1" />
    <line x1="4" y1="135" x2="69" y2="135" style="stroke:#ff0000;stroke-width:1" />
    <line x1="4" y1="167" x2="36" y2="167" style="stroke:#ff0000;stroke-width:1" />
    <line x1="4" y1="151" x2="20" y2="151" style="stroke:#ff0000;stroke-width:1" />
    <line x1="4" y1="184" x2="20" y2="184" style="stroke:#ff0000;stroke-width:1" />
    <line x1="4" y1="192" x2="12" y2="192" style="stroke:#ff0000;stroke-width:1" />
    <line x1="4" y1="175" x2="12" y2="175" style="stroke:#ff0000;stroke-width:1" />
    <line x1="4" y1="159" x2="12" y2="159" style="stroke:#ff0000;stroke-width:1" />
    <line x1="4" y1="143" x2="12" y2="143" style="stroke:#ff0000;stroke-width:1" />
</svg>