<svg width="400" height="400" viewbox = "0 0 400 400"  xmlns="http://www.w3.org/2000/svg">
<!--<json>{
  "glyph": "0331,0331,0332,0332,0332,0336,0331,0333,0332,0333,0210,0210,01127,01127,01127,01056,01124,01122,01101,01123,01110,01122,01117,01102,01117,01124,01056,01117,01122,01107,0300,0337,0330,0336,0336,0331,0331,0337,0337,0336,0333,0334,0337,0305,0311,0201,0334,0334,0201,0334,0334,0201,0334,0334,0201,0334,0334,0201,0334,0350,0334,0336,0201,0334,0334,0201,0334,0334,0201,0334,0334,0201,0334,0334,0201,0337,0201,0334,0334,0334,0334,0201,0335,0335,0201,0334,0334,0334,0334,0201,0335,0335,0201,0334,0334,0334,0334,0201,0335,0335,0201,0334,0334,0334,0334,0201,0335,0335,0201,0334,0334,0334,0334,0201,0335,0335,0330,0334,0334,0334,0337,0201,0334,0334,0201,0334,0334,0201,0334,0334,0201,0334,0334,0201,0334,0334,0334,0334,0334,0335,0322,0335,0335,0335,0335,0335,0335,0335,0336,0334,0331,0335,0335,0336,0220,0330,0335,0335,0220,0330,0335,0335,0220,0335,0334,0330,0335,0335,0220,0330,0335,0335,0220,0336,0333,0336,0335,0220,0330,0335,0335,0220,0330,0335,0335,0220,0330,0335,0335,0220,0330,0335,0335,0220,0330,0337,0330,0335,0337,0337,0330,0334,0334,0334,0334,0326,0337,0221,0330,0334,0334,0221,0330,0334,0334,0221,0330,0334,0334,0221,0330,0334,0334,0221,0334,0336,0330,0336,0221,0330,0334,0334,0221,0330,0334,0334,0221,0330,0334,0334,0221,0330,0334,0334,0221,0334,0336,0330,0327,0336,0362,0203,0334,0334,0203,0334,0334,0203,0334,0334,0203,0334,0334,0203,0363,0321,0337,0201,0334,0334,0334,0337,0201,0334,0334,0201,0334,0334,0201,0334,0334,0201,0334,0334,0201,0331,0334,0337,0201,0334,0334,0334,0334,0201,0334,0334,0334,0336,0334,0337,0201,0334,0334,0334,0334,0201,0334,0334,0334,0334,0201,0335,0335,0330,0335,0335,0335,0335,0335,0337,0337,0201,0334,0334,0334,0334,0201,0334,0334,0334,0334,0201,0334,0334,0334,0334,0201,0334,0334,0334,0334,0201,0334,0334,0334,0336,0362,0203,0334,0334,0203,0334,0334,0203,0334,0334,0203,0334,0334,0203,0354,",
  "x0": 200,
  "y0": 200,
  "unit": 66.55000000000003,
  "width": 400,
  "height": 400,
  "style": {
    "color0": "black",
    "fill0": "black",
    "line0": 1,
    "color1": "black",
    "fill1": "black",
    "line1": 5,
    "color2": "#808080",
    "fill2": "#808080",
    "line2": 1,
    "color3": "#FF7900",
    "fill3": "#FF7900",
    "line3": 1,
    "color4": "yellow",
    "fill4": "yellow",
    "line4": 1,
    "color5": "green",
    "fill5": "green",
    "line5": 1,
    "color6": "#404040",
    "fill6": "#404040",
    "line6": 1,
    "color7": "#b0b0b0",
    "fill7": "#b0b0b0",
    "line7": 1
  },
  "shapes": [
    "0220:0305,0311,0350,0362,0203,0334,0334,0334,0337,0203,0334,0334,0334,0334,0203,0363,0334,0334,0334,0336,",
    "0221:0305,0311,0350,0362,0203,0334,0334,0334,0334,0336,0203,0334,0334,0203,0363,0334,0334,0334,0334,0337,",
    "0222:0362,0203,0335,0203,0203,0203,0203,0203,0203,0335,0203,0335,0203,0203,0203,0203,0203,0203,0354,0335,",
    "0223:0222,0221,0221,0221,0221,0221,0221,0334,0221,0334,0220,0220,0220,0220,0220,0220,0334,0220,0334,0320,",
    "0224:0222,0330,0222,0330,0222,0330,0222,0330,0222,0330,0222,0331,0331,0331,0331,0331,",
    "0225:0223,0330,0223,0330,0223,0330,0223,0330,0223,0330,0223,0331,0331,0331,0331,0331,",
    "0226:0313,0304,0335,0306,0350,0312,0330,0334,0334,0334,0334,0334,0336,0330,0334,0334,0330,0331,0334,0336,0342,0334,0334,0342,0330,0334,0336,0331,0342,0335,0335,0335,0335,0342,0334,0336,0342,0334,0334,0342,0330,0334,0336,0331,0342,0335,0335,0335,0335,0342,0334,0336,0342,0334,0334,0342,0334,0337,0330,0335,0337,0331,0334,0337,0330,0335,0337,0331,0313,0336,0312,0335,0337,0342,0330,0335,0335,0335,0337,0330,0335,0335,0335,0313,0337,0304,0313,",
    "0227:0331,0220,0333,0332,0222,0333,0330,0332,0335,0335,0332,0223,0335,0335,0221,0312,0336,0331,0306,0334,0313,0337,0330,0335,0304,0335,0335,0336,0312,0337,0313,0304,0330,0335,0330,0335,0330,0335,0330,0334,0331,0335,0330,0334,0334,0350,0310,0337,0335,0330,0336,0335,0304,0335,0306,0334,0330,0335,0335,0330,0335,0335,0330,0335,0335,0304,0334,0226,0335,0306,0350,0334,0312,0336,0330,0335,0335,0330,0331,0334,0334,0331,0337,0313,0304,0332,0225,0335,0305,0334,0311,0336,0330,0335,0350,0335,0337,0304,0334,0224,0335,0305,0350,0334,0311,0336,0330,0335,0335,0335,0335,0335,0304,0305,0330,0334,0334,0311,0337,0330,0335,0335,0304,0335,0313,",
    "0230:0331,0200,0335,0201,0334,0334,0350,0335,0310,0337,0201,0335,0304,0335,0336,0201,0335,0312,0336,0201,0335,0306,0350,0335,0313,0337,0201,0334,0313,0336,0312,0337,0304,0335,0335,0306,0334,0201,0335,0335,0342,0335,0350,0335,0312,0336,0201,0334,0334,0201,0335,0335,0335,0337,0313,0304,0335,0332,0335,0305,0334,0311,0336,0201,0335,0350,0335,0337,0342,0334,0336,0201,0335,0335,0201,0335,0335,0335,0337,0313,0304,0335,",
    "0231:0350,0310,0362,0203,0335,0335,0203,0335,0335,0335,0337,0203,0363,0324,0334,0334,0334,0336,0362,0203,0335,0334,0334,0337,0203,0334,0334,0334,0334,0335,0336,0203,0334,0337,0203,0363,0335,0320,0336,0331,0335,0335,0335,0337,0362,0203,0335,0335,0335,0336,0203,0335,0335,0203,0363,0331,0304,0335,0313,",
    "0232:0336,0336,0336,0336,0336,0362,0203,0337,0203,0306,0334,0337,0203,0335,0335,0203,0203,0334,0334,0203,0203,0335,0335,0203,0203,0334,0334,0203,0203,0335,0335,0203,0203,0334,0334,0203,0335,0203,0336,0336,0203,0304,0337,0337,0337,0337,0337,0364,",
    "0233:0336,0336,0362,0203,0336,0203,0334,0364,0337,0330,0335,0335,0337,0342,0336,0330,0332,0331,0337,0342,0336,0330,0334,0336,0362,0203,0337,0203,0335,0364,0335,0337,0337,0335,0335,",
    "0234:0336,0366,0330,0333,0333,0336,0331,0337,0367,0335,0335,0366,0331,0333,0333,0367,0335,0335,0337,",
    "0235:0313,0336,0314,0336,0313,0337,0234,0234,0234,0234,0314,0337,0313,",
    "0236:0336,0336,0336,0336,0347,0337,0337,0337,0337,",
    "0237:0246,0331,0332,0331,0246,0330,0333,0331,0331,0333,0246,0332,0330,",
    "01220:0333,0200,0336,0330,0332,0336,0331,0337,0333,0336,0332,0337,0220,0313,0304,0336,0331,0333,0337,0337,",
    "01221:0333,0200,0336,0330,0332,0336,0331,0333,0337,0221,0313,0304,0336,0331,0333,0337,0337,",
    "01222:0333,0200,0336,0330,0332,0336,0332,0336,0332,0222,0332,0337,0337,0331,0337,0333,",
    "01223:0333,0200,0336,0332,0330,0336,0332,0336,0332,0223,0332,0337,0337,0331,0337,0333,0320,",
    "01224:0333,0200,0336,0332,0336,0330,0336,0332,0332,0331,0332,0224,",
    "01225:0333,0200,0336,0330,0332,0336,0331,0332,0336,0331,0332,0225,0331,0332,0320,0337,0337,0337,0333,",
    "01226:0333,0200,0336,0336,0330,0332,0337,0226,0336,0333,0331,0337,0337,",
    "01227:0333,0200,0336,0330,0332,0336,0332,0337,0227,0333,0336,0333,0337,0331,0337,",
    "01230:0333,0200,",
    "01231:0333,0200,",
    "01232:0333,0200,",
    "01233:0333,0200,",
    "01234:0333,0200,",
    "01235:0333,0200,",
    "01236:0333,0200,",
    "01237:0333,0200,",
    "0240:0220,0336,0331,0333,0336,0321,0335,0342,0335,0335,0342,0335,0330,0330,0332,0332,0337,0337,",
    "01240:0333,0200,0336,0330,0332,0210,0240,0211,0333,0331,0337,",
    "0241:0220,0336,0321,0343,0332,0350,0335,0336,0342,0334,0334,0342,0335,0304,0337,0333,0337,",
    "01241:0333,0200,0336,0332,0330,0210,0241,0211,0333,0331,0337,",
    "0242:0220,0321,0336,0343,0333,0336,0350,0335,0342,0334,0334,0342,0335,0337,0304,0332,0337,",
    "01242:0333,0200,0336,0330,0332,0210,0242,0211,0333,0331,0337,",
    "0243:0220,0336,0331,0332,0336,0321,0343,0332,0350,0334,0336,0342,0335,0335,0342,0337,0334,0334,0335,0304,0332,0330,0330,0337,0337,0333,",
    "01243:0333,0200,0336,0330,0332,0210,0243,0211,0333,0331,0337,",
    "0244:0220,0336,0331,0333,0336,0321,0343,0333,0350,0336,0335,0342,0334,0334,0342,0335,0337,0304,0333,0330,0330,0337,0337,0332,",
    "01244:0333,0200,0336,0330,0332,0210,0244,0211,0333,0331,0337,",
    "0245:0210,0332,0332,0362,0335,0203,0203,0203,0203,0334,0203,0363,0332,0332,0331,0211,",
    "01245:0333,0200,0336,0330,0332,0336,0245,0337,0333,0331,0337,",
    "0246:0210,0332,0332,0335,0306,0336,0330,0335,0335,0335,0321,0362,0203,0335,0335,0203,0364,0331,0350,0335,0337,0366,0333,0333,0333,0333,0334,0334,0334,0334,0367,0335,0336,0342,0334,0334,0342,0330,0330,0330,0330,0335,0335,0335,0304,0337,0211,",
    "01246:0333,0200,0336,0330,0332,0336,0246,",
    "0247:0330,0332,0336,0332,0336,0221,0333,0333,0333,0222,0333,0333,0333,0223,0333,0333,0333,0225,0333,0331,0331,0331,0332,0332,0332,0332,0332,0332,0332,0332,0332,0332,0332,0332,0333,0333,0226,0331,0331,0331,0333,0333,0333,0333,0333,0333,0333,0333,0333,0333,0333,0333,0333,0330,0333,0330,0330,0333,0330,0331,0332,0332,0332,0332,0332,0332,0332,0332,0332,0332,0332,0332,0227,0333,0333,0333,0230,0333,0331,0331,0331,0331,0332,0332,0332,0330,0332,0332,0332,0332,0332,0332,0333,0333,0231,0333,0333,0333,0232,0331,0333,0330,0333,0333,0233,0333,0333,0333,0234,0330,0330,0332,0330,0332,0332,0337,0337,",
    "01247:0333,0200,0336,0330,0332,0220,0336,0247,0337,0331,0333,0337,"
  ]
}</json>-->    <circle cx="37" cy = "363" r = "1.588739878043407" stroke = "#000000" stroke-width = "1" fill = "#000000" />
    <circle cx="37" cy = "360" r = "1.588739878043407" stroke = "#000000" stroke-width = "1" fill = "#000000" />
    <circle cx="37" cy = "357" r = "1.588739878043407" stroke = "#000000" stroke-width = "1" fill = "#000000" />
    <circle cx="37" cy = "354" r = "1.588739878043407" stroke = "#000000" stroke-width = "1" fill = "#000000" />
    <circle cx="37" cy = "350" r = "1.588739878043407" stroke = "#000000" stroke-width = "1" fill = "#000000" />
    <circle cx="37" cy = "347" r = "1.588739878043407" stroke = "#000000" stroke-width = "1" fill = "#000000" />
    <circle cx="40" cy = "366" r = "1.588739878043407" stroke = "#000000" stroke-width = "1" fill = "#000000" />
    <circle cx="43" cy = "363" r = "1.588739878043407" stroke = "#000000" stroke-width = "1" fill = "#000000" />
    <circle cx="43" cy = "360" r = "1.588739878043407" stroke = "#000000" stroke-width = "1" fill = "#000000" />
    <circle cx="43" cy = "357" r = "1.588739878043407" stroke = "#000000" stroke-width = "1" fill = "#000000" />
    <circle cx="46" cy = "366" r = "1.588739878043407" stroke = "#000000" stroke-width = "1" fill = "#000000" />
    <circle cx="50" cy = "363" r = "1.588739878043407" stroke = "#000000" stroke-width = "1" fill = "#000000" />
    <circle cx="50" cy = "360" r = "1.588739878043407" stroke = "#000000" stroke-width = "1" fill = "#000000" />
    <circle cx="50" cy = "357" r = "1.588739878043407" stroke = "#000000" stroke-width = "1" fill = "#000000" />
    <circle cx="50" cy = "354" r = "1.588739878043407" stroke = "#000000" stroke-width = "1" fill = "#000000" />
    <circle cx="50" cy = "350" r = "1.588739878043407" stroke = "#000000" stroke-width = "1" fill = "#000000" />
    <circle cx="50" cy = "347" r = "1.588739878043407" stroke = "#000000" stroke-width = "1" fill = "#000000" />
    <circle cx="56" cy = "363" r = "1.588739878043407" stroke = "#000000" stroke-width = "1" fill = "#000000" />
    <circle cx="56" cy = "360" r = "1.588739878043407" stroke = "#000000" stroke-width = "1" fill = "#000000" />
    <circle cx="56" cy = "357" r = "1.588739878043407" stroke = "#000000" stroke-width = "1" fill = "#000000" />
    <circle cx="56" cy = "354" r = "1.588739878043407" stroke = "#000000" stroke-width = "1" fill = "#000000" />
    <circle cx="56" cy = "350" r = "1.588739878043407" stroke = "#000000" stroke-width = "1" fill = "#000000" />
    <circle cx="56" cy = "347" r = "1.588739878043407" stroke = "#000000" stroke-width = "1" fill = "#000000" />
    <circle cx="59" cy = "366" r = "1.588739878043407" stroke = "#000000" stroke-width = "1" fill = "#000000" />
    <circle cx="62" cy = "363" r = "1.588739878043407" stroke = "#000000" stroke-width = "1" fill = "#000000" />
    <circle cx="62" cy = "360" r = "1.588739878043407" stroke = "#000000" stroke-width = "1" fill = "#000000" />
    <circle cx="62" cy = "357" r = "1.588739878043407" stroke = "#000000" stroke-width = "1" fill = "#000000" />
    <circle cx="65" cy = "366" r = "1.588739878043407" stroke = "#000000" stroke-width = "1" fill = "#000000" />
    <circle cx="69" cy = "363" r = "1.588739878043407" stroke = "#000000" stroke-width = "1" fill = "#000000" />
    <circle cx="69" cy = "360" r = "1.588739878043407" stroke = "#000000" stroke-width = "1" fill = "#000000" />
    <circle cx="69" cy = "357" r = "1.588739878043407" stroke = "#000000" stroke-width = "1" fill = "#000000" />
    <circle cx="69" cy = "354" r = "1.588739878043407" stroke = "#000000" stroke-width = "1" fill = "#000000" />
    <circle cx="69" cy = "350" r = "1.588739878043407" stroke = "#000000" stroke-width = "1" fill = "#000000" />
    <circle cx="69" cy = "347" r = "1.588739878043407" stroke = "#000000" stroke-width = "1" fill = "#000000" />
    <circle cx="75" cy = "363" r = "1.588739878043407" stroke = "#000000" stroke-width = "1" fill = "#000000" />
    <circle cx="75" cy = "360" r = "1.588739878043407" stroke = "#000000" stroke-width = "1" fill = "#000000" />
    <circle cx="75" cy = "357" r = "1.588739878043407" stroke = "#000000" stroke-width = "1" fill = "#000000" />
    <circle cx="75" cy = "354" r = "1.588739878043407" stroke = "#000000" stroke-width = "1" fill = "#000000" />
    <circle cx="75" cy = "350" r = "1.588739878043407" stroke = "#000000" stroke-width = "1" fill = "#000000" />
    <circle cx="75" cy = "347" r = "1.588739878043407" stroke = "#000000" stroke-width = "1" fill = "#000000" />
    <circle cx="78" cy = "366" r = "1.588739878043407" stroke = "#000000" stroke-width = "1" fill = "#000000" />
    <circle cx="81" cy = "363" r = "1.588739878043407" stroke = "#000000" stroke-width = "1" fill = "#000000" />
    <circle cx="81" cy = "360" r = "1.588739878043407" stroke = "#000000" stroke-width = "1" fill = "#000000" />
    <circle cx="81" cy = "357" r = "1.588739878043407" stroke = "#000000" stroke-width = "1" fill = "#000000" />
    <circle cx="84" cy = "366" r = "1.588739878043407" stroke = "#000000" stroke-width = "1" fill = "#000000" />
    <circle cx="88" cy = "363" r = "1.588739878043407" stroke = "#000000" stroke-width = "1" fill = "#000000" />
    <circle cx="88" cy = "360" r = "1.588739878043407" stroke = "#000000" stroke-width = "1" fill = "#000000" />
    <circle cx="88" cy = "357" r = "1.588739878043407" stroke = "#000000" stroke-width = "1" fill = "#000000" />
    <circle cx="88" cy = "354" r = "1.588739878043407" stroke = "#000000" stroke-width = "1" fill = "#000000" />
    <circle cx="88" cy = "350" r = "1.588739878043407" stroke = "#000000" stroke-width = "1" fill = "#000000" />
    <circle cx="88" cy = "347" r = "1.588739878043407" stroke = "#000000" stroke-width = "1" fill = "#000000" />
    <circle cx="100" cy = "366" r = "1.588739878043407" stroke = "#000000" stroke-width = "1" fill = "#000000" />
    <circle cx="100" cy = "363" r = "1.588739878043407" stroke = "#000000" stroke-width = "1" fill = "#000000" />
    <circle cx="104" cy = "363" r = "1.588739878043407" stroke = "#000000" stroke-width = "1" fill = "#000000" />
    <circle cx="104" cy = "366" r = "1.588739878043407" stroke = "#000000" stroke-width = "1" fill = "#000000" />
    <circle cx="113" cy = "347" r = "1.588739878043407" stroke = "#000000" stroke-width = "1" fill = "#000000" />
    <circle cx="116" cy = "347" r = "1.588739878043407" stroke = "#000000" stroke-width = "1" fill = "#000000" />
    <circle cx="119" cy = "347" r = "1.588739878043407" stroke = "#000000" stroke-width = "1" fill = "#000000" />
    <circle cx="123" cy = "347" r = "1.588739878043407" stroke = "#000000" stroke-width = "1" fill = "#000000" />
    <circle cx="126" cy = "347" r = "1.588739878043407" stroke = "#000000" stroke-width = "1" fill = "#000000" />
    <circle cx="119" cy = "350" r = "1.588739878043407" stroke = "#000000" stroke-width = "1" fill = "#000000" />
    <circle cx="119" cy = "354" r = "1.588739878043407" stroke = "#000000" stroke-width = "1" fill = "#000000" />
    <circle cx="119" cy = "357" r = "1.588739878043407" stroke = "#000000" stroke-width = "1" fill = "#000000" />
    <circle cx="119" cy = "360" r = "1.588739878043407" stroke = "#000000" stroke-width = "1" fill = "#000000" />
    <circle cx="119" cy = "363" r = "1.588739878043407" stroke = "#000000" stroke-width = "1" fill = "#000000" />
    <circle cx="119" cy = "366" r = "1.588739878043407" stroke = "#000000" stroke-width = "1" fill = "#000000" />
    <circle cx="132" cy = "366" r = "1.588739878043407" stroke = "#000000" stroke-width = "1" fill = "#000000" />
    <circle cx="132" cy = "363" r = "1.588739878043407" stroke = "#000000" stroke-width = "1" fill = "#000000" />
    <circle cx="132" cy = "360" r = "1.588739878043407" stroke = "#000000" stroke-width = "1" fill = "#000000" />
    <circle cx="132" cy = "357" r = "1.588739878043407" stroke = "#000000" stroke-width = "1" fill = "#000000" />
    <circle cx="132" cy = "354" r = "1.588739878043407" stroke = "#000000" stroke-width = "1" fill = "#000000" />
    <circle cx="132" cy = "350" r = "1.588739878043407" stroke = "#000000" stroke-width = "1" fill = "#000000" />
    <circle cx="132" cy = "347" r = "1.588739878043407" stroke = "#000000" stroke-width = "1" fill = "#000000" />
    <circle cx="135" cy = "347" r = "1.588739878043407" stroke = "#000000" stroke-width = "1" fill = "#000000" />
    <circle cx="138" cy = "347" r = "1.588739878043407" stroke = "#000000" stroke-width = "1" fill = "#000000" />
    <circle cx="142" cy = "347" r = "1.588739878043407" stroke = "#000000" stroke-width = "1" fill = "#000000" />
    <circle cx="145" cy = "350" r = "1.588739878043407" stroke = "#000000" stroke-width = "1" fill = "#000000" />
    <circle cx="145" cy = "354" r = "1.588739878043407" stroke = "#000000" stroke-width = "1" fill = "#000000" />
    <circle cx="142" cy = "357" r = "1.588739878043407" stroke = "#000000" stroke-width = "1" fill = "#000000" />
    <circle cx="138" cy = "357" r = "1.588739878043407" stroke = "#000000" stroke-width = "1" fill = "#000000" />
    <circle cx="135" cy = "357" r = "1.588739878043407" stroke = "#000000" stroke-width = "1" fill = "#000000" />
    <circle cx="138" cy = "360" r = "1.588739878043407" stroke = "#000000" stroke-width = "1" fill = "#000000" />
    <circle cx="142" cy = "363" r = "1.588739878043407" stroke = "#000000" stroke-width = "1" fill = "#000000" />
    <circle cx="145" cy = "366" r = "1.588739878043407" stroke = "#000000" stroke-width = "1" fill = "#000000" />
    <circle cx="151" cy = "366" r = "1.588739878043407" stroke = "#000000" stroke-width = "1" fill = "#000000" />
    <circle cx="151" cy = "363" r = "1.588739878043407" stroke = "#000000" stroke-width = "1" fill = "#000000" />
    <circle cx="151" cy = "360" r = "1.588739878043407" stroke = "#000000" stroke-width = "1" fill = "#000000" />
    <circle cx="151" cy = "357" r = "1.588739878043407" stroke = "#000000" stroke-width = "1" fill = "#000000" />
    <circle cx="151" cy = "354" r = "1.588739878043407" stroke = "#000000" stroke-width = "1" fill = "#000000" />
    <circle cx="151" cy = "350" r = "1.588739878043407" stroke = "#000000" stroke-width = "1" fill = "#000000" />
    <circle cx="154" cy = "347" r = "1.588739878043407" stroke = "#000000" stroke-width = "1" fill = "#000000" />
    <circle cx="158" cy = "347" r = "1.588739878043407" stroke = "#000000" stroke-width = "1" fill = "#000000" />
    <circle cx="161" cy = "347" r = "1.588739878043407" stroke = "#000000" stroke-width = "1" fill = "#000000" />
    <circle cx="164" cy = "350" r = "1.588739878043407" stroke = "#000000" stroke-width = "1" fill = "#000000" />
    <circle cx="164" cy = "354" r = "1.588739878043407" stroke = "#000000" stroke-width = "1" fill = "#000000" />
    <circle cx="164" cy = "357" r = "1.588739878043407" stroke = "#000000" stroke-width = "1" fill = "#000000" />
    <circle cx="164" cy = "360" r = "1.588739878043407" stroke = "#000000" stroke-width = "1" fill = "#000000" />
    <circle cx="164" cy = "363" r = "1.588739878043407" stroke = "#000000" stroke-width = "1" fill = "#000000" />
    <circle cx="164" cy = "366" r = "1.588739878043407" stroke = "#000000" stroke-width = "1" fill = "#000000" />
    <circle cx="161" cy = "357" r = "1.588739878043407" stroke = "#000000" stroke-width = "1" fill = "#000000" />
    <circle cx="158" cy = "357" r = "1.588739878043407" stroke = "#000000" stroke-width = "1" fill = "#000000" />
    <circle cx="154" cy = "357" r = "1.588739878043407" stroke = "#000000" stroke-width = "1" fill = "#000000" />
    <circle cx="170" cy = "363" r = "1.588739878043407" stroke = "#000000" stroke-width = "1" fill = "#000000" />
    <circle cx="173" cy = "366" r = "1.588739878043407" stroke = "#000000" stroke-width = "1" fill = "#000000" />
    <circle cx="177" cy = "366" r = "1.588739878043407" stroke = "#000000" stroke-width = "1" fill = "#000000" />
    <circle cx="180" cy = "366" r = "1.588739878043407" stroke = "#000000" stroke-width = "1" fill = "#000000" />
    <circle cx="183" cy = "363" r = "1.588739878043407" stroke = "#000000" stroke-width = "1" fill = "#000000" />
    <circle cx="183" cy = "360" r = "1.588739878043407" stroke = "#000000" stroke-width = "1" fill = "#000000" />
    <circle cx="180" cy = "357" r = "1.588739878043407" stroke = "#000000" stroke-width = "1" fill = "#000000" />
    <circle cx="177" cy = "357" r = "1.588739878043407" stroke = "#000000" stroke-width = "1" fill = "#000000" />
    <circle cx="173" cy = "357" r = "1.588739878043407" stroke = "#000000" stroke-width = "1" fill = "#000000" />
    <circle cx="170" cy = "354" r = "1.588739878043407" stroke = "#000000" stroke-width = "1" fill = "#000000" />
    <circle cx="170" cy = "350" r = "1.588739878043407" stroke = "#000000" stroke-width = "1" fill = "#000000" />
    <circle cx="173" cy = "347" r = "1.588739878043407" stroke = "#000000" stroke-width = "1" fill = "#000000" />
    <circle cx="177" cy = "347" r = "1.588739878043407" stroke = "#000000" stroke-width = "1" fill = "#000000" />
    <circle cx="180" cy = "347" r = "1.588739878043407" stroke = "#000000" stroke-width = "1" fill = "#000000" />
    <circle cx="183" cy = "350" r = "1.588739878043407" stroke = "#000000" stroke-width = "1" fill = "#000000" />
    <circle cx="189" cy = "366" r = "1.588739878043407" stroke = "#000000" stroke-width = "1" fill = "#000000" />
    <circle cx="189" cy = "363" r = "1.588739878043407" stroke = "#000000" stroke-width = "1" fill = "#000000" />
    <circle cx="189" cy = "360" r = "1.588739878043407" stroke = "#000000" stroke-width = "1" fill = "#000000" />
    <circle cx="189" cy = "357" r = "1.588739878043407" stroke = "#000000" stroke-width = "1" fill = "#000000" />
    <circle cx="189" cy = "354" r = "1.588739878043407" stroke = "#000000" stroke-width = "1" fill = "#000000" />
    <circle cx="189" cy = "350" r = "1.588739878043407" stroke = "#000000" stroke-width = "1" fill = "#000000" />
    <circle cx="189" cy = "347" r = "1.588739878043407" stroke = "#000000" stroke-width = "1" fill = "#000000" />
    <circle cx="192" cy = "357" r = "1.588739878043407" stroke = "#000000" stroke-width = "1" fill = "#000000" />
    <circle cx="196" cy = "357" r = "1.588739878043407" stroke = "#000000" stroke-width = "1" fill = "#000000" />
    <circle cx="199" cy = "357" r = "1.588739878043407" stroke = "#000000" stroke-width = "1" fill = "#000000" />
    <circle cx="202" cy = "357" r = "1.588739878043407" stroke = "#000000" stroke-width = "1" fill = "#000000" />
    <circle cx="202" cy = "354" r = "1.588739878043407" stroke = "#000000" stroke-width = "1" fill = "#000000" />
    <circle cx="202" cy = "350" r = "1.588739878043407" stroke = "#000000" stroke-width = "1" fill = "#000000" />
    <circle cx="202" cy = "347" r = "1.588739878043407" stroke = "#000000" stroke-width = "1" fill = "#000000" />
    <circle cx="202" cy = "360" r = "1.588739878043407" stroke = "#000000" stroke-width = "1" fill = "#000000" />
    <circle cx="202" cy = "363" r = "1.588739878043407" stroke = "#000000" stroke-width = "1" fill = "#000000" />
    <circle cx="202" cy = "366" r = "1.588739878043407" stroke = "#000000" stroke-width = "1" fill = "#000000" />
    <circle cx="208" cy = "366" r = "1.588739878043407" stroke = "#000000" stroke-width = "1" fill = "#000000" />
    <circle cx="208" cy = "363" r = "1.588739878043407" stroke = "#000000" stroke-width = "1" fill = "#000000" />
    <circle cx="208" cy = "360" r = "1.588739878043407" stroke = "#000000" stroke-width = "1" fill = "#000000" />
    <circle cx="208" cy = "357" r = "1.588739878043407" stroke = "#000000" stroke-width = "1" fill = "#000000" />
    <circle cx="208" cy = "354" r = "1.588739878043407" stroke = "#000000" stroke-width = "1" fill = "#000000" />
    <circle cx="208" cy = "350" r = "1.588739878043407" stroke = "#000000" stroke-width = "1" fill = "#000000" />
    <circle cx="208" cy = "347" r = "1.588739878043407" stroke = "#000000" stroke-width = "1" fill = "#000000" />
    <circle cx="212" cy = "347" r = "1.588739878043407" stroke = "#000000" stroke-width = "1" fill = "#000000" />
    <circle cx="215" cy = "347" r = "1.588739878043407" stroke = "#000000" stroke-width = "1" fill = "#000000" />
    <circle cx="218" cy = "347" r = "1.588739878043407" stroke = "#000000" stroke-width = "1" fill = "#000000" />
    <circle cx="221" cy = "350" r = "1.588739878043407" stroke = "#000000" stroke-width = "1" fill = "#000000" />
    <circle cx="221" cy = "354" r = "1.588739878043407" stroke = "#000000" stroke-width = "1" fill = "#000000" />
    <circle cx="218" cy = "357" r = "1.588739878043407" stroke = "#000000" stroke-width = "1" fill = "#000000" />
    <circle cx="215" cy = "357" r = "1.588739878043407" stroke = "#000000" stroke-width = "1" fill = "#000000" />
    <circle cx="212" cy = "357" r = "1.588739878043407" stroke = "#000000" stroke-width = "1" fill = "#000000" />
    <circle cx="215" cy = "360" r = "1.588739878043407" stroke = "#000000" stroke-width = "1" fill = "#000000" />
    <circle cx="218" cy = "363" r = "1.588739878043407" stroke = "#000000" stroke-width = "1" fill = "#000000" />
    <circle cx="221" cy = "366" r = "1.588739878043407" stroke = "#000000" stroke-width = "1" fill = "#000000" />
    <circle cx="227" cy = "363" r = "1.588739878043407" stroke = "#000000" stroke-width = "1" fill = "#000000" />
    <circle cx="227" cy = "360" r = "1.588739878043407" stroke = "#000000" stroke-width = "1" fill = "#000000" />
    <circle cx="227" cy = "357" r = "1.588739878043407" stroke = "#000000" stroke-width = "1" fill = "#000000" />
    <circle cx="227" cy = "354" r = "1.588739878043407" stroke = "#000000" stroke-width = "1" fill = "#000000" />
    <circle cx="227" cy = "350" r = "1.588739878043407" stroke = "#000000" stroke-width = "1" fill = "#000000" />
    <circle cx="231" cy = "347" r = "1.588739878043407" stroke = "#000000" stroke-width = "1" fill = "#000000" />
    <circle cx="234" cy = "347" r = "1.588739878043407" stroke = "#000000" stroke-width = "1" fill = "#000000" />
    <circle cx="237" cy = "347" r = "1.588739878043407" stroke = "#000000" stroke-width = "1" fill = "#000000" />
    <circle cx="240" cy = "350" r = "1.588739878043407" stroke = "#000000" stroke-width = "1" fill = "#000000" />
    <circle cx="240" cy = "354" r = "1.588739878043407" stroke = "#000000" stroke-width = "1" fill = "#000000" />
    <circle cx="240" cy = "357" r = "1.588739878043407" stroke = "#000000" stroke-width = "1" fill = "#000000" />
    <circle cx="240" cy = "360" r = "1.588739878043407" stroke = "#000000" stroke-width = "1" fill = "#000000" />
    <circle cx="240" cy = "363" r = "1.588739878043407" stroke = "#000000" stroke-width = "1" fill = "#000000" />
    <circle cx="237" cy = "366" r = "1.588739878043407" stroke = "#000000" stroke-width = "1" fill = "#000000" />
    <circle cx="234" cy = "366" r = "1.588739878043407" stroke = "#000000" stroke-width = "1" fill = "#000000" />
    <circle cx="231" cy = "366" r = "1.588739878043407" stroke = "#000000" stroke-width = "1" fill = "#000000" />
    <circle cx="247" cy = "366" r = "1.588739878043407" stroke = "#000000" stroke-width = "1" fill = "#000000" />
    <circle cx="247" cy = "363" r = "1.588739878043407" stroke = "#000000" stroke-width = "1" fill = "#000000" />
    <circle cx="247" cy = "360" r = "1.588739878043407" stroke = "#000000" stroke-width = "1" fill = "#000000" />
    <circle cx="247" cy = "357" r = "1.588739878043407" stroke = "#000000" stroke-width = "1" fill = "#000000" />
    <circle cx="247" cy = "354" r = "1.588739878043407" stroke = "#000000" stroke-width = "1" fill = "#000000" />
    <circle cx="247" cy = "350" r = "1.588739878043407" stroke = "#000000" stroke-width = "1" fill = "#000000" />
    <circle cx="247" cy = "347" r = "1.588739878043407" stroke = "#000000" stroke-width = "1" fill = "#000000" />
    <circle cx="250" cy = "347" r = "1.588739878043407" stroke = "#000000" stroke-width = "1" fill = "#000000" />
    <circle cx="253" cy = "347" r = "1.588739878043407" stroke = "#000000" stroke-width = "1" fill = "#000000" />
    <circle cx="256" cy = "347" r = "1.588739878043407" stroke = "#000000" stroke-width = "1" fill = "#000000" />
    <circle cx="259" cy = "350" r = "1.588739878043407" stroke = "#000000" stroke-width = "1" fill = "#000000" />
    <circle cx="259" cy = "354" r = "1.588739878043407" stroke = "#000000" stroke-width = "1" fill = "#000000" />
    <circle cx="256" cy = "357" r = "1.588739878043407" stroke = "#000000" stroke-width = "1" fill = "#000000" />
    <circle cx="253" cy = "357" r = "1.588739878043407" stroke = "#000000" stroke-width = "1" fill = "#000000" />
    <circle cx="250" cy = "357" r = "1.588739878043407" stroke = "#000000" stroke-width = "1" fill = "#000000" />
    <circle cx="259" cy = "360" r = "1.588739878043407" stroke = "#000000" stroke-width = "1" fill = "#000000" />
    <circle cx="259" cy = "363" r = "1.588739878043407" stroke = "#000000" stroke-width = "1" fill = "#000000" />
    <circle cx="256" cy = "366" r = "1.588739878043407" stroke = "#000000" stroke-width = "1" fill = "#000000" />
    <circle cx="253" cy = "366" r = "1.588739878043407" stroke = "#000000" stroke-width = "1" fill = "#000000" />
    <circle cx="250" cy = "366" r = "1.588739878043407" stroke = "#000000" stroke-width = "1" fill = "#000000" />
    <circle cx="266" cy = "363" r = "1.588739878043407" stroke = "#000000" stroke-width = "1" fill = "#000000" />
    <circle cx="266" cy = "360" r = "1.588739878043407" stroke = "#000000" stroke-width = "1" fill = "#000000" />
    <circle cx="266" cy = "357" r = "1.588739878043407" stroke = "#000000" stroke-width = "1" fill = "#000000" />
    <circle cx="266" cy = "354" r = "1.588739878043407" stroke = "#000000" stroke-width = "1" fill = "#000000" />
    <circle cx="266" cy = "350" r = "1.588739878043407" stroke = "#000000" stroke-width = "1" fill = "#000000" />
    <circle cx="269" cy = "347" r = "1.588739878043407" stroke = "#000000" stroke-width = "1" fill = "#000000" />
    <circle cx="272" cy = "347" r = "1.588739878043407" stroke = "#000000" stroke-width = "1" fill = "#000000" />
    <circle cx="275" cy = "347" r = "1.588739878043407" stroke = "#000000" stroke-width = "1" fill = "#000000" />
    <circle cx="278" cy = "350" r = "1.588739878043407" stroke = "#000000" stroke-width = "1" fill = "#000000" />
    <circle cx="278" cy = "354" r = "1.588739878043407" stroke = "#000000" stroke-width = "1" fill = "#000000" />
    <circle cx="278" cy = "357" r = "1.588739878043407" stroke = "#000000" stroke-width = "1" fill = "#000000" />
    <circle cx="278" cy = "360" r = "1.588739878043407" stroke = "#000000" stroke-width = "1" fill = "#000000" />
    <circle cx="278" cy = "363" r = "1.588739878043407" stroke = "#000000" stroke-width = "1" fill = "#000000" />
    <circle cx="275" cy = "366" r = "1.588739878043407" stroke = "#000000" stroke-width = "1" fill = "#000000" />
    <circle cx="272" cy = "366" r = "1.588739878043407" stroke = "#000000" stroke-width = "1" fill = "#000000" />
    <circle cx="269" cy = "366" r = "1.588739878043407" stroke = "#000000" stroke-width = "1" fill = "#000000" />
    <circle cx="285" cy = "347" r = "1.588739878043407" stroke = "#000000" stroke-width = "1" fill = "#000000" />
    <circle cx="288" cy = "347" r = "1.588739878043407" stroke = "#000000" stroke-width = "1" fill = "#000000" />
    <circle cx="291" cy = "347" r = "1.588739878043407" stroke = "#000000" stroke-width = "1" fill = "#000000" />
    <circle cx="294" cy = "347" r = "1.588739878043407" stroke = "#000000" stroke-width = "1" fill = "#000000" />
    <circle cx="297" cy = "347" r = "1.588739878043407" stroke = "#000000" stroke-width = "1" fill = "#000000" />
    <circle cx="291" cy = "350" r = "1.588739878043407" stroke = "#000000" stroke-width = "1" fill = "#000000" />
    <circle cx="291" cy = "354" r = "1.588739878043407" stroke = "#000000" stroke-width = "1" fill = "#000000" />
    <circle cx="291" cy = "357" r = "1.588739878043407" stroke = "#000000" stroke-width = "1" fill = "#000000" />
    <circle cx="291" cy = "360" r = "1.588739878043407" stroke = "#000000" stroke-width = "1" fill = "#000000" />
    <circle cx="291" cy = "363" r = "1.588739878043407" stroke = "#000000" stroke-width = "1" fill = "#000000" />
    <circle cx="291" cy = "366" r = "1.588739878043407" stroke = "#000000" stroke-width = "1" fill = "#000000" />
    <circle cx="310" cy = "366" r = "1.588739878043407" stroke = "#000000" stroke-width = "1" fill = "#000000" />
    <circle cx="310" cy = "363" r = "1.588739878043407" stroke = "#000000" stroke-width = "1" fill = "#000000" />
    <circle cx="313" cy = "363" r = "1.588739878043407" stroke = "#000000" stroke-width = "1" fill = "#000000" />
    <circle cx="313" cy = "366" r = "1.588739878043407" stroke = "#000000" stroke-width = "1" fill = "#000000" />
    <circle cx="323" cy = "363" r = "1.588739878043407" stroke = "#000000" stroke-width = "1" fill = "#000000" />
    <circle cx="323" cy = "360" r = "1.588739878043407" stroke = "#000000" stroke-width = "1" fill = "#000000" />
    <circle cx="323" cy = "357" r = "1.588739878043407" stroke = "#000000" stroke-width = "1" fill = "#000000" />
    <circle cx="323" cy = "354" r = "1.588739878043407" stroke = "#000000" stroke-width = "1" fill = "#000000" />
    <circle cx="323" cy = "350" r = "1.588739878043407" stroke = "#000000" stroke-width = "1" fill = "#000000" />
    <circle cx="326" cy = "347" r = "1.588739878043407" stroke = "#000000" stroke-width = "1" fill = "#000000" />
    <circle cx="329" cy = "347" r = "1.588739878043407" stroke = "#000000" stroke-width = "1" fill = "#000000" />
    <circle cx="332" cy = "347" r = "1.588739878043407" stroke = "#000000" stroke-width = "1" fill = "#000000" />
    <circle cx="335" cy = "350" r = "1.588739878043407" stroke = "#000000" stroke-width = "1" fill = "#000000" />
    <circle cx="335" cy = "354" r = "1.588739878043407" stroke = "#000000" stroke-width = "1" fill = "#000000" />
    <circle cx="335" cy = "357" r = "1.588739878043407" stroke = "#000000" stroke-width = "1" fill = "#000000" />
    <circle cx="335" cy = "360" r = "1.588739878043407" stroke = "#000000" stroke-width = "1" fill = "#000000" />
    <circle cx="335" cy = "363" r = "1.588739878043407" stroke = "#000000" stroke-width = "1" fill = "#000000" />
    <circle cx="332" cy = "366" r = "1.588739878043407" stroke = "#000000" stroke-width = "1" fill = "#000000" />
    <circle cx="329" cy = "366" r = "1.588739878043407" stroke = "#000000" stroke-width = "1" fill = "#000000" />
    <circle cx="326" cy = "366" r = "1.588739878043407" stroke = "#000000" stroke-width = "1" fill = "#000000" />
    <circle cx="342" cy = "366" r = "1.588739878043407" stroke = "#000000" stroke-width = "1" fill = "#000000" />
    <circle cx="342" cy = "363" r = "1.588739878043407" stroke = "#000000" stroke-width = "1" fill = "#000000" />
    <circle cx="342" cy = "360" r = "1.588739878043407" stroke = "#000000" stroke-width = "1" fill = "#000000" />
    <circle cx="342" cy = "357" r = "1.588739878043407" stroke = "#000000" stroke-width = "1" fill = "#000000" />
    <circle cx="342" cy = "354" r = "1.588739878043407" stroke = "#000000" stroke-width = "1" fill = "#000000" />
    <circle cx="342" cy = "350" r = "1.588739878043407" stroke = "#000000" stroke-width = "1" fill = "#000000" />
    <circle cx="342" cy = "347" r = "1.588739878043407" stroke = "#000000" stroke-width = "1" fill = "#000000" />
    <circle cx="345" cy = "347" r = "1.588739878043407" stroke = "#000000" stroke-width = "1" fill = "#000000" />
    <circle cx="348" cy = "347" r = "1.588739878043407" stroke = "#000000" stroke-width = "1" fill = "#000000" />
    <circle cx="351" cy = "347" r = "1.588739878043407" stroke = "#000000" stroke-width = "1" fill = "#000000" />
    <circle cx="355" cy = "350" r = "1.588739878043407" stroke = "#000000" stroke-width = "1" fill = "#000000" />
    <circle cx="355" cy = "354" r = "1.588739878043407" stroke = "#000000" stroke-width = "1" fill = "#000000" />
    <circle cx="351" cy = "357" r = "1.588739878043407" stroke = "#000000" stroke-width = "1" fill = "#000000" />
    <circle cx="348" cy = "357" r = "1.588739878043407" stroke = "#000000" stroke-width = "1" fill = "#000000" />
    <circle cx="345" cy = "357" r = "1.588739878043407" stroke = "#000000" stroke-width = "1" fill = "#000000" />
    <circle cx="348" cy = "360" r = "1.588739878043407" stroke = "#000000" stroke-width = "1" fill = "#000000" />
    <circle cx="351" cy = "363" r = "1.588739878043407" stroke = "#000000" stroke-width = "1" fill = "#000000" />
    <circle cx="355" cy = "366" r = "1.588739878043407" stroke = "#000000" stroke-width = "1" fill = "#000000" />
    <circle cx="361" cy = "363" r = "1.588739878043407" stroke = "#000000" stroke-width = "1" fill = "#000000" />
    <circle cx="361" cy = "360" r = "1.588739878043407" stroke = "#000000" stroke-width = "1" fill = "#000000" />
    <circle cx="361" cy = "357" r = "1.588739878043407" stroke = "#000000" stroke-width = "1" fill = "#000000" />
    <circle cx="361" cy = "354" r = "1.588739878043407" stroke = "#000000" stroke-width = "1" fill = "#000000" />
    <circle cx="361" cy = "350" r = "1.588739878043407" stroke = "#000000" stroke-width = "1" fill = "#000000" />
    <circle cx="364" cy = "347" r = "1.588739878043407" stroke = "#000000" stroke-width = "1" fill = "#000000" />
    <circle cx="367" cy = "347" r = "1.588739878043407" stroke = "#000000" stroke-width = "1" fill = "#000000" />
    <circle cx="370" cy = "347" r = "1.588739878043407" stroke = "#000000" stroke-width = "1" fill = "#000000" />
    <circle cx="374" cy = "350" r = "1.588739878043407" stroke = "#000000" stroke-width = "1" fill = "#000000" />
    <circle cx="370" cy = "357" r = "1.588739878043407" stroke = "#000000" stroke-width = "1" fill = "#000000" />
    <circle cx="367" cy = "357" r = "1.588739878043407" stroke = "#000000" stroke-width = "1" fill = "#000000" />
    <circle cx="374" cy = "357" r = "1.588739878043407" stroke = "#000000" stroke-width = "1" fill = "#000000" />
    <circle cx="374" cy = "360" r = "1.588739878043407" stroke = "#000000" stroke-width = "1" fill = "#000000" />
    <circle cx="374" cy = "363" r = "1.588739878043407" stroke = "#000000" stroke-width = "1" fill = "#000000" />
    <circle cx="374" cy = "366" r = "1.588739878043407" stroke = "#000000" stroke-width = "1" fill = "#000000" />
    <circle cx="370" cy = "366" r = "1.588739878043407" stroke = "#000000" stroke-width = "1" fill = "#000000" />
    <circle cx="367" cy = "366" r = "1.588739878043407" stroke = "#000000" stroke-width = "1" fill = "#000000" />
    <circle cx="364" cy = "366" r = "1.588739878043407" stroke = "#000000" stroke-width = "1" fill = "#000000" />
    <line x1="267" y1="133" x2="133" y2="133" style="stroke:#000000;stroke-width:1" />
    <line x1="133" y1="133" x2="241" y2="212" style="stroke:#000000;stroke-width:1" />
    <line x1="241" y1="212" x2="200" y2="85" style="stroke:#000000;stroke-width:1" />
    <line x1="200" y1="85" x2="159" y2="212" style="stroke:#000000;stroke-width:1" />
    <line x1="159" y1="212" x2="267" y2="133" style="stroke:#000000;stroke-width:1" />
    <line x1="267" y1="133" x2="200" y2="85" style="stroke:#000000;stroke-width:1" />
    <line x1="200" y1="85" x2="133" y2="133" style="stroke:#000000;stroke-width:1" />
    <line x1="133" y1="133" x2="159" y2="212" style="stroke:#000000;stroke-width:1" />
    <line x1="159" y1="212" x2="241" y2="212" style="stroke:#000000;stroke-width:1" />
    <line x1="241" y1="212" x2="267" y2="133" style="stroke:#000000;stroke-width:1" />
    <line x1="267" y1="133" x2="308" y2="7" style="stroke:#000000;stroke-width:1" />
    <line x1="308" y1="7" x2="200" y2="85" style="stroke:#000000;stroke-width:1" />
    <line x1="200" y1="85" x2="92" y2="7" style="stroke:#000000;stroke-width:1" />
    <line x1="92" y1="7" x2="133" y2="133" style="stroke:#000000;stroke-width:1" />
    <line x1="133" y1="133" x2="26" y2="212" style="stroke:#000000;stroke-width:1" />
    <line x1="26" y1="212" x2="159" y2="212" style="stroke:#000000;stroke-width:1" />
    <line x1="159" y1="212" x2="200" y2="338" style="stroke:#000000;stroke-width:1" />
    <line x1="200" y1="338" x2="241" y2="212" style="stroke:#000000;stroke-width:1" />
    <line x1="241" y1="212" x2="374" y2="212" style="stroke:#000000;stroke-width:1" />
    <line x1="374" y1="212" x2="267" y2="133" style="stroke:#000000;stroke-width:1" />
    <line x1="308" y1="7" x2="92" y2="7" style="stroke:#000000;stroke-width:1" />
    <line x1="92" y1="7" x2="26" y2="212" style="stroke:#000000;stroke-width:1" />
    <line x1="26" y1="212" x2="200" y2="338" style="stroke:#000000;stroke-width:1" />
    <line x1="200" y1="338" x2="374" y2="212" style="stroke:#000000;stroke-width:1" />
    <line x1="374" y1="212" x2="308" y2="7" style="stroke:#000000;stroke-width:1" />
	<path d = "M200 85 L267 133 L308 7 L200 85 Z" stroke = "#808080" stroke-width = "1" fill = "#808080" />	<path d = "M267 133 L241 212 L374 212 L267 133 Z" stroke = "#808080" stroke-width = "1" fill = "#808080" />	<path d = "M241 212 L159 212 L200 338 L241 212 Z" stroke = "#808080" stroke-width = "1" fill = "#808080" />	<path d = "M159 212 L133 133 L26 212 L159 212 Z" stroke = "#808080" stroke-width = "1" fill = "#808080" />	<path d = "M133 133 L200 85 L92 7 L133 133 Z" stroke = "#808080" stroke-width = "1" fill = "#808080" />	<path d = "M184 133 L216 133 L200 85 L184 133 Z" stroke = "#808080" stroke-width = "1" fill = "#808080" />	<path d = "M216 133 L225 163 L267 133 L216 133 Z" stroke = "#808080" stroke-width = "1" fill = "#808080" />	<path d = "M225 163 L200 182 L241 212 L225 163 Z" stroke = "#808080" stroke-width = "1" fill = "#808080" />	<path d = "M200 182 L175 163 L159 212 L200 182 Z" stroke = "#808080" stroke-width = "1" fill = "#808080" />	<path d = "M175 163 L184 133 L133 133 L175 163 Z" stroke = "#808080" stroke-width = "1" fill = "#808080" />	<path d = "M308 7 L92 7 L200 85 L308 7 Z" stroke = "#404040" stroke-width = "1" fill = "#404040" />	<path d = "M92 7 L26 212 L133 133 L92 7 Z" stroke = "#404040" stroke-width = "1" fill = "#404040" />	<path d = "M26 212 L200 338 L159 212 L26 212 Z" stroke = "#404040" stroke-width = "1" fill = "#404040" />	<path d = "M200 338 L374 212 L241 212 L200 338 Z" stroke = "#404040" stroke-width = "1" fill = "#404040" />	<path d = "M374 212 L308 7 L267 133 L374 212 Z" stroke = "#404040" stroke-width = "1" fill = "#404040" />	<path d = "M267 133 L200 85 L216 133 L267 133 Z" stroke = "#404040" stroke-width = "1" fill = "#404040" />	<path d = "M200 85 L133 133 L184 133 L200 85 Z" stroke = "#404040" stroke-width = "1" fill = "#404040" />	<path d = "M133 133 L159 212 L175 163 L133 133 Z" stroke = "#404040" stroke-width = "1" fill = "#404040" />	<path d = "M159 212 L241 212 L200 182 L159 212 Z" stroke = "#404040" stroke-width = "1" fill = "#404040" />	<path d = "M241 212 L267 133 L225 163 L241 212 Z" stroke = "#404040" stroke-width = "1" fill = "#404040" />	<path d = "M225 163 L216 133 L184 133 L175 163 L200 182 L225 163 Z" stroke = "#b0b0b0" stroke-width = "1" fill = "#b0b0b0" />    <line x1="225" y1="163" x2="267" y2="133" style="stroke:#000000;stroke-width:5" />
    <line x1="267" y1="133" x2="200" y2="85" style="stroke:#000000;stroke-width:5" />
    <line x1="200" y1="85" x2="133" y2="133" style="stroke:#000000;stroke-width:5" />
    <line x1="133" y1="133" x2="159" y2="212" style="stroke:#000000;stroke-width:5" />
    <line x1="159" y1="212" x2="241" y2="212" style="stroke:#000000;stroke-width:5" />
    <line x1="241" y1="212" x2="267" y2="133" style="stroke:#000000;stroke-width:5" />
    <line x1="241" y1="212" x2="200" y2="85" style="stroke:#000000;stroke-width:5" />
    <line x1="200" y1="85" x2="159" y2="212" style="stroke:#000000;stroke-width:5" />
    <line x1="159" y1="212" x2="267" y2="133" style="stroke:#000000;stroke-width:5" />
    <line x1="267" y1="133" x2="133" y2="133" style="stroke:#000000;stroke-width:5" />
    <line x1="133" y1="133" x2="241" y2="212" style="stroke:#000000;stroke-width:5" />
    <line x1="200" y1="338" x2="308" y2="7" style="stroke:#000000;stroke-width:5" />
    <line x1="308" y1="7" x2="26" y2="212" style="stroke:#000000;stroke-width:5" />
    <line x1="26" y1="212" x2="374" y2="212" style="stroke:#000000;stroke-width:5" />
    <line x1="374" y1="212" x2="92" y2="7" style="stroke:#000000;stroke-width:5" />
    <line x1="92" y1="7" x2="200" y2="338" style="stroke:#000000;stroke-width:5" />
	<path d = "M200 338 L374 212 L308 7 L92 7 L26 212 L200 338 Z" stroke = "#000000" stroke-width = "5" fill = "none" /></svg>