<svg width="400" height="150" viewbox = "0 0 400 150"  xmlns="http://www.w3.org/2000/svg">
<!--<json>{
  "glyph": "0331,0331,0332,0331,0332,0332,0330,0330,0330,0330,0330,0223,",
  "x0": 200,
  "y0": 226.25,
  "unit": 60.500000000000014,
  "width": 400,
  "height": 150,
  "style": {
    "color0": "black",
    "fill0": "black",
    "line0": 1,
    "color1": "black",
    "fill1": "black",
    "line1": 5,
    "color2": "red",
    "fill2": "red",
    "line2": 1,
    "color3": "#FF7900",
    "fill3": "#FF7900",
    "line3": 1,
    "color4": "yellow",
    "fill4": "yellow",
    "line4": 1,
    "color5": "green",
    "fill5": "green",
    "line5": 1,
    "color6": "blue",
    "fill6": "blue",
    "line6": 1,
    "color7": "purple",
    "fill7": "purple",
    "line7": 1
  },
  "shapes": [
    "0220:0342,0336,0333,0342,0336,0332,0342,0333,0333,0342,0336,0333,0342,0332,0332,0342,0332,0332,0342,0332,0332,0342,0333,0333,0333,0333,0333,0333,0333,0337,0337,0337,",
    "0221:0316,0336,0313,0342,0336,0333,0342,0333,0342,0333,0342,0333,0342,0333,0337,0342,0336,0333,0342,0333,0342,0333,0342,0333,0342,0333,0342,0337,0316,0337,0313,",
    "0222:0362,0203,0335,0203,0203,0203,0203,0203,0203,0335,0203,0335,0203,0203,0203,0203,0203,0203,0354,0335,",
    "0223:0222,0221,0221,0221,0221,0221,0221,0334,0221,0334,0220,0220,0220,0220,0220,0220,0334,0220,0334,0320,",
    "0224:0222,0330,0222,0330,0222,0330,0222,0330,0222,0330,0222,0331,0331,0331,0331,0331,",
    "0225:0223,0330,0223,0330,0223,0330,0223,0330,0223,0330,0223,0331,0331,0331,0331,0331,",
    "0226:0313,0304,0335,0306,0350,0312,0330,0334,0334,0334,0334,0334,0336,0330,0334,0334,0330,0331,0334,0336,0342,0334,0334,0342,0330,0334,0336,0331,0342,0335,0335,0335,0335,0342,0334,0336,0342,0334,0334,0342,0330,0334,0336,0331,0342,0335,0335,0335,0335,0342,0334,0336,0342,0334,0334,0342,0334,0337,0330,0335,0337,0331,0334,0337,0330,0335,0337,0331,0313,0336,0312,0335,0337,0342,0330,0335,0335,0335,0337,0330,0335,0335,0335,0313,0337,0304,0313,",
    "0227:0331,0220,0333,0332,0222,0333,0330,0332,0335,0335,0332,0223,0335,0335,0221,0312,0336,0331,0306,0334,0313,0337,0330,0335,0304,0335,0335,0336,0312,0337,0313,0304,0330,0335,0330,0335,0330,0335,0330,0334,0331,0335,0330,0334,0334,0350,0310,0337,0335,0330,0336,0335,0304,0335,0306,0334,0330,0335,0335,0330,0335,0335,0330,0335,0335,0304,0334,0226,0335,0306,0350,0334,0312,0336,0330,0335,0335,0330,0331,0334,0334,0331,0337,0313,0304,0332,0225,0335,0305,0334,0311,0336,0330,0335,0350,0335,0337,0304,0334,0224,0335,0305,0350,0334,0311,0336,0330,0335,0335,0335,0335,0335,0304,0305,0330,0334,0334,0311,0337,0330,0335,0335,0304,0335,0313,",
    "0230:0331,0200,0335,0201,0334,0334,0350,0335,0310,0337,0201,0335,0304,0335,0336,0201,0335,0312,0336,0201,0335,0306,0350,0335,0313,0337,0201,0334,0313,0336,0312,0337,0304,0335,0335,0306,0334,0201,0335,0335,0342,0335,0350,0335,0312,0336,0201,0334,0334,0201,0335,0335,0335,0337,0313,0304,0335,0332,0335,0305,0334,0311,0336,0201,0335,0350,0335,0337,0342,0334,0336,0201,0335,0335,0201,0335,0335,0335,0337,0313,0304,0335,",
    "0231:0350,0310,0362,0203,0335,0335,0203,0335,0335,0335,0337,0203,0363,0324,0334,0334,0334,0336,0362,0203,0335,0334,0334,0337,0203,0334,0334,0334,0334,0335,0336,0203,0334,0337,0203,0363,0335,0320,0336,0331,0335,0335,0335,0337,0362,0203,0335,0335,0335,0336,0203,0335,0335,0203,0363,0331,0304,0335,0313,",
    "0232:0336,0336,0336,0336,0336,0362,0203,0337,0203,0306,0334,0337,0203,0335,0335,0203,0203,0334,0334,0203,0203,0335,0335,0203,0203,0334,0334,0203,0203,0335,0335,0203,0203,0334,0334,0203,0335,0203,0336,0336,0203,0304,0337,0337,0337,0337,0337,0364,",
    "0233:0336,0336,0362,0203,0336,0203,0334,0364,0337,0330,0335,0335,0337,0342,0336,0330,0332,0331,0337,0342,0336,0330,0334,0336,0362,0203,0337,0203,0335,0364,0335,0337,0337,0335,0335,",
    "0234:0336,0366,0330,0333,0333,0336,0331,0337,0367,0335,0335,0366,0331,0333,0333,0367,0335,0335,0337,",
    "0235:0313,0336,0314,0336,0313,0337,0234,0234,0234,0234,0314,0337,0313,",
    "0236:0336,0336,0336,0336,0347,0337,0337,0337,0337,",
    "0237:0246,0331,0332,0331,0246,0330,0333,0331,0331,0333,0246,0332,0330,",
    "01220:0333,0200,0336,0332,0330,0336,0332,0337,0220,0331,0336,0333,0337,0337,",
    "01221:0333,0200,0336,0330,0332,0336,0332,0337,0221,0336,0333,0337,0331,0337,",
    "01222:0333,0200,0336,0330,0332,0336,0332,0336,0332,0222,0332,0337,0337,0331,0337,0333,",
    "01223:0333,0200,0336,0332,0330,0336,0332,0336,0332,0223,0332,0337,0337,0331,0337,0333,0320,",
    "01224:0333,0200,0336,0332,0336,0330,0336,0332,0332,0331,0332,0224,",
    "01225:0333,0200,0336,0330,0332,0336,0331,0332,0336,0331,0332,0225,0331,0332,0320,0337,0337,0337,0333,",
    "01226:0333,0200,0336,0336,0330,0332,0337,0226,0336,0333,0331,0337,0337,",
    "01227:0333,0200,0336,0330,0332,0336,0332,0337,0227,0333,0336,0333,0337,0331,0337,",
    "01230:0333,0200,",
    "01231:0333,0200,",
    "01232:0333,0200,",
    "01233:0333,0200,",
    "01234:0333,0200,",
    "01235:0333,0200,",
    "01236:0333,0200,",
    "01237:0333,0200,",
    "0240:0220,0336,0331,0333,0336,0321,0335,0342,0335,0335,0342,0335,0330,0330,0332,0332,0337,0337,",
    "01240:0333,0200,0336,0330,0332,0210,0240,0211,0333,0331,0337,",
    "0241:0220,0336,0321,0343,0332,0350,0335,0336,0342,0334,0334,0342,0335,0304,0337,0333,0337,",
    "01241:0333,0200,0336,0332,0330,0210,0241,0211,0333,0331,0337,",
    "0242:0220,0321,0336,0343,0333,0336,0350,0335,0342,0334,0334,0342,0335,0337,0304,0332,0337,",
    "01242:0333,0200,0336,0330,0332,0210,0242,0211,0333,0331,0337,",
    "0243:0220,0336,0331,0332,0336,0321,0343,0332,0350,0334,0336,0342,0335,0335,0342,0337,0334,0334,0335,0304,0332,0330,0330,0337,0337,0333,",
    "01243:0333,0200,0336,0330,0332,0210,0243,0211,0333,0331,0337,",
    "0244:0220,0336,0331,0333,0336,0321,0343,0333,0350,0336,0335,0342,0334,0334,0342,0335,0337,0304,0333,0330,0330,0337,0337,0332,",
    "01244:0333,0200,0336,0330,0332,0210,0244,0211,0333,0331,0337,",
    "0245:0210,0332,0332,0362,0335,0203,0203,0203,0203,0334,0203,0363,0332,0332,0331,0211,",
    "01245:0333,0200,0336,0330,0332,0336,0245,0337,0333,0331,0337,",
    "0246:0210,0332,0332,0335,0306,0336,0330,0335,0335,0335,0321,0362,0203,0335,0335,0203,0364,0331,0350,0335,0337,0366,0333,0333,0333,0333,0334,0334,0334,0334,0367,0335,0336,0342,0334,0334,0342,0330,0330,0330,0330,0335,0335,0335,0304,0337,0211,",
    "01246:0333,0200,0336,0330,0332,0336,0246,",
    "0247:0330,0332,0336,0332,0336,0221,0333,0333,0333,0222,0333,0333,0333,0223,0333,0333,0333,0225,0333,0331,0331,0331,0332,0332,0332,0332,0332,0332,0332,0332,0332,0332,0332,0332,0333,0333,0226,0331,0331,0331,0333,0333,0333,0333,0333,0333,0333,0333,0333,0333,0333,0333,0333,0330,0333,0330,0330,0333,0330,0331,0332,0332,0332,0332,0332,0332,0332,0332,0332,0332,0332,0332,0227,0333,0333,0333,0230,0333,0331,0331,0331,0331,0332,0332,0332,0330,0332,0332,0332,0332,0332,0332,0333,0333,0231,0333,0333,0333,0232,0331,0333,0330,0333,0333,0233,0333,0333,0333,0234,0330,0330,0332,0330,0332,0332,0337,0337,",
    "01247:0333,0200,0336,0330,0332,0220,0336,0247,0337,0331,0333,0337,"
  ]
}</json>-->	<path d = "M18 105 L18 45 L79 45 L140 45 L200 45 L261 45 L321 45 L382 45 L382 105 L321 105 L261 105 L200 105 L140 105 L79 105 L18 105 Z" stroke = "#000000" stroke-width = "1" fill = "none" />    <line x1="18" y1="105" x2="18" y2="93" style="stroke:#000000;stroke-width:1" />
    <line x1="25" y1="105" x2="25" y2="99" style="stroke:#000000;stroke-width:1" />
    <line x1="31" y1="105" x2="31" y2="99" style="stroke:#000000;stroke-width:1" />
    <line x1="37" y1="105" x2="37" y2="99" style="stroke:#000000;stroke-width:1" />
    <line x1="43" y1="105" x2="43" y2="99" style="stroke:#000000;stroke-width:1" />
    <line x1="49" y1="105" x2="49" y2="93" style="stroke:#000000;stroke-width:1" />
    <line x1="55" y1="105" x2="55" y2="99" style="stroke:#000000;stroke-width:1" />
    <line x1="61" y1="105" x2="61" y2="99" style="stroke:#000000;stroke-width:1" />
    <line x1="67" y1="105" x2="67" y2="99" style="stroke:#000000;stroke-width:1" />
    <line x1="73" y1="105" x2="73" y2="99" style="stroke:#000000;stroke-width:1" />
    <line x1="79" y1="105" x2="79" y2="99" style="stroke:#000000;stroke-width:1" />
    <line x1="79" y1="105" x2="79" y2="93" style="stroke:#000000;stroke-width:1" />
    <line x1="85" y1="105" x2="85" y2="99" style="stroke:#000000;stroke-width:1" />
    <line x1="91" y1="105" x2="91" y2="99" style="stroke:#000000;stroke-width:1" />
    <line x1="97" y1="105" x2="97" y2="99" style="stroke:#000000;stroke-width:1" />
    <line x1="103" y1="105" x2="103" y2="99" style="stroke:#000000;stroke-width:1" />
    <line x1="109" y1="105" x2="109" y2="93" style="stroke:#000000;stroke-width:1" />
    <line x1="115" y1="105" x2="115" y2="99" style="stroke:#000000;stroke-width:1" />
    <line x1="121" y1="105" x2="121" y2="99" style="stroke:#000000;stroke-width:1" />
    <line x1="127" y1="105" x2="127" y2="99" style="stroke:#000000;stroke-width:1" />
    <line x1="133" y1="105" x2="133" y2="99" style="stroke:#000000;stroke-width:1" />
    <line x1="139" y1="105" x2="139" y2="99" style="stroke:#000000;stroke-width:1" />
    <line x1="139" y1="105" x2="139" y2="93" style="stroke:#000000;stroke-width:1" />
    <line x1="146" y1="105" x2="146" y2="99" style="stroke:#000000;stroke-width:1" />
    <line x1="152" y1="105" x2="152" y2="99" style="stroke:#000000;stroke-width:1" />
    <line x1="158" y1="105" x2="158" y2="99" style="stroke:#000000;stroke-width:1" />
    <line x1="164" y1="105" x2="164" y2="99" style="stroke:#000000;stroke-width:1" />
    <line x1="170" y1="105" x2="170" y2="93" style="stroke:#000000;stroke-width:1" />
    <line x1="176" y1="105" x2="176" y2="99" style="stroke:#000000;stroke-width:1" />
    <line x1="182" y1="105" x2="182" y2="99" style="stroke:#000000;stroke-width:1" />
    <line x1="188" y1="105" x2="188" y2="99" style="stroke:#000000;stroke-width:1" />
    <line x1="194" y1="105" x2="194" y2="99" style="stroke:#000000;stroke-width:1" />
    <line x1="200" y1="105" x2="200" y2="99" style="stroke:#000000;stroke-width:1" />
    <line x1="200" y1="105" x2="200" y2="93" style="stroke:#000000;stroke-width:1" />
    <line x1="206" y1="105" x2="206" y2="99" style="stroke:#000000;stroke-width:1" />
    <line x1="212" y1="105" x2="212" y2="99" style="stroke:#000000;stroke-width:1" />
    <line x1="218" y1="105" x2="218" y2="99" style="stroke:#000000;stroke-width:1" />
    <line x1="224" y1="105" x2="224" y2="99" style="stroke:#000000;stroke-width:1" />
    <line x1="230" y1="105" x2="230" y2="93" style="stroke:#000000;stroke-width:1" />
    <line x1="236" y1="105" x2="236" y2="99" style="stroke:#000000;stroke-width:1" />
    <line x1="242" y1="105" x2="242" y2="99" style="stroke:#000000;stroke-width:1" />
    <line x1="248" y1="105" x2="248" y2="99" style="stroke:#000000;stroke-width:1" />
    <line x1="254" y1="105" x2="254" y2="99" style="stroke:#000000;stroke-width:1" />
    <line x1="261" y1="105" x2="261" y2="99" style="stroke:#000000;stroke-width:1" />
    <line x1="261" y1="105" x2="261" y2="93" style="stroke:#000000;stroke-width:1" />
    <line x1="267" y1="105" x2="267" y2="99" style="stroke:#000000;stroke-width:1" />
    <line x1="273" y1="105" x2="273" y2="99" style="stroke:#000000;stroke-width:1" />
    <line x1="279" y1="105" x2="279" y2="99" style="stroke:#000000;stroke-width:1" />
    <line x1="285" y1="105" x2="285" y2="99" style="stroke:#000000;stroke-width:1" />
    <line x1="291" y1="105" x2="291" y2="93" style="stroke:#000000;stroke-width:1" />
    <line x1="297" y1="105" x2="297" y2="99" style="stroke:#000000;stroke-width:1" />
    <line x1="303" y1="105" x2="303" y2="99" style="stroke:#000000;stroke-width:1" />
    <line x1="309" y1="105" x2="309" y2="99" style="stroke:#000000;stroke-width:1" />
    <line x1="315" y1="105" x2="315" y2="99" style="stroke:#000000;stroke-width:1" />
    <line x1="321" y1="105" x2="321" y2="99" style="stroke:#000000;stroke-width:1" />
    <line x1="321" y1="105" x2="321" y2="93" style="stroke:#000000;stroke-width:1" />
    <line x1="327" y1="105" x2="327" y2="99" style="stroke:#000000;stroke-width:1" />
    <line x1="333" y1="105" x2="333" y2="99" style="stroke:#000000;stroke-width:1" />
    <line x1="339" y1="105" x2="339" y2="99" style="stroke:#000000;stroke-width:1" />
    <line x1="345" y1="105" x2="345" y2="99" style="stroke:#000000;stroke-width:1" />
    <line x1="351" y1="105" x2="351" y2="93" style="stroke:#000000;stroke-width:1" />
    <line x1="357" y1="105" x2="357" y2="99" style="stroke:#000000;stroke-width:1" />
    <line x1="363" y1="105" x2="363" y2="99" style="stroke:#000000;stroke-width:1" />
    <line x1="369" y1="105" x2="369" y2="99" style="stroke:#000000;stroke-width:1" />
    <line x1="375" y1="105" x2="375" y2="99" style="stroke:#000000;stroke-width:1" />
    <line x1="382" y1="105" x2="382" y2="99" style="stroke:#000000;stroke-width:1" />
    <line x1="382" y1="105" x2="369" y2="105" style="stroke:#000000;stroke-width:1" />
    <line x1="382" y1="99" x2="375" y2="99" style="stroke:#000000;stroke-width:1" />
    <line x1="382" y1="93" x2="375" y2="93" style="stroke:#000000;stroke-width:1" />
    <line x1="382" y1="87" x2="375" y2="87" style="stroke:#000000;stroke-width:1" />
    <line x1="382" y1="81" x2="375" y2="81" style="stroke:#000000;stroke-width:1" />
    <line x1="382" y1="75" x2="369" y2="75" style="stroke:#000000;stroke-width:1" />
    <line x1="382" y1="69" x2="375" y2="69" style="stroke:#000000;stroke-width:1" />
    <line x1="382" y1="63" x2="375" y2="63" style="stroke:#000000;stroke-width:1" />
    <line x1="382" y1="57" x2="375" y2="57" style="stroke:#000000;stroke-width:1" />
    <line x1="382" y1="51" x2="375" y2="51" style="stroke:#000000;stroke-width:1" />
    <line x1="382" y1="45" x2="375" y2="45" style="stroke:#000000;stroke-width:1" />
    <line x1="382" y1="45" x2="382" y2="105" style="stroke:#000000;stroke-width:1" />
    <line x1="351" y1="45" x2="351" y2="75" style="stroke:#000000;stroke-width:1" />
    <line x1="366" y1="45" x2="366" y2="60" style="stroke:#000000;stroke-width:1" />
    <line x1="336" y1="45" x2="336" y2="60" style="stroke:#000000;stroke-width:1" />
    <line x1="329" y1="45" x2="329" y2="52" style="stroke:#000000;stroke-width:1" />
    <line x1="344" y1="45" x2="344" y2="52" style="stroke:#000000;stroke-width:1" />
    <line x1="359" y1="45" x2="359" y2="52" style="stroke:#000000;stroke-width:1" />
    <line x1="374" y1="45" x2="374" y2="52" style="stroke:#000000;stroke-width:1" />
    <line x1="321" y1="45" x2="321" y2="105" style="stroke:#000000;stroke-width:1" />
    <line x1="291" y1="45" x2="291" y2="75" style="stroke:#000000;stroke-width:1" />
    <line x1="306" y1="45" x2="306" y2="60" style="stroke:#000000;stroke-width:1" />
    <line x1="276" y1="45" x2="276" y2="60" style="stroke:#000000;stroke-width:1" />
    <line x1="268" y1="45" x2="268" y2="52" style="stroke:#000000;stroke-width:1" />
    <line x1="283" y1="45" x2="283" y2="52" style="stroke:#000000;stroke-width:1" />
    <line x1="298" y1="45" x2="298" y2="52" style="stroke:#000000;stroke-width:1" />
    <line x1="313" y1="45" x2="313" y2="52" style="stroke:#000000;stroke-width:1" />
    <line x1="261" y1="45" x2="261" y2="105" style="stroke:#000000;stroke-width:1" />
    <line x1="230" y1="45" x2="230" y2="75" style="stroke:#000000;stroke-width:1" />
    <line x1="245" y1="45" x2="245" y2="60" style="stroke:#000000;stroke-width:1" />
    <line x1="215" y1="45" x2="215" y2="60" style="stroke:#000000;stroke-width:1" />
    <line x1="208" y1="45" x2="208" y2="52" style="stroke:#000000;stroke-width:1" />
    <line x1="223" y1="45" x2="223" y2="52" style="stroke:#000000;stroke-width:1" />
    <line x1="238" y1="45" x2="238" y2="52" style="stroke:#000000;stroke-width:1" />
    <line x1="253" y1="45" x2="253" y2="52" style="stroke:#000000;stroke-width:1" />
    <line x1="200" y1="45" x2="200" y2="105" style="stroke:#000000;stroke-width:1" />
    <line x1="170" y1="45" x2="170" y2="75" style="stroke:#000000;stroke-width:1" />
    <line x1="185" y1="45" x2="185" y2="60" style="stroke:#000000;stroke-width:1" />
    <line x1="155" y1="45" x2="155" y2="60" style="stroke:#000000;stroke-width:1" />
    <line x1="147" y1="45" x2="147" y2="52" style="stroke:#000000;stroke-width:1" />
    <line x1="162" y1="45" x2="162" y2="52" style="stroke:#000000;stroke-width:1" />
    <line x1="177" y1="45" x2="177" y2="52" style="stroke:#000000;stroke-width:1" />
    <line x1="192" y1="45" x2="192" y2="52" style="stroke:#000000;stroke-width:1" />
    <line x1="140" y1="45" x2="140" y2="105" style="stroke:#000000;stroke-width:1" />
    <line x1="109" y1="45" x2="109" y2="75" style="stroke:#000000;stroke-width:1" />
    <line x1="124" y1="45" x2="124" y2="60" style="stroke:#000000;stroke-width:1" />
    <line x1="94" y1="45" x2="94" y2="60" style="stroke:#000000;stroke-width:1" />
    <line x1="87" y1="45" x2="87" y2="52" style="stroke:#000000;stroke-width:1" />
    <line x1="102" y1="45" x2="102" y2="52" style="stroke:#000000;stroke-width:1" />
    <line x1="117" y1="45" x2="117" y2="52" style="stroke:#000000;stroke-width:1" />
    <line x1="132" y1="45" x2="132" y2="52" style="stroke:#000000;stroke-width:1" />
    <line x1="79" y1="45" x2="79" y2="105" style="stroke:#000000;stroke-width:1" />
    <line x1="49" y1="45" x2="49" y2="75" style="stroke:#000000;stroke-width:1" />
    <line x1="64" y1="45" x2="64" y2="60" style="stroke:#000000;stroke-width:1" />
    <line x1="34" y1="45" x2="34" y2="60" style="stroke:#000000;stroke-width:1" />
    <line x1="26" y1="45" x2="26" y2="52" style="stroke:#000000;stroke-width:1" />
    <line x1="41" y1="45" x2="41" y2="52" style="stroke:#000000;stroke-width:1" />
    <line x1="56" y1="45" x2="56" y2="52" style="stroke:#000000;stroke-width:1" />
    <line x1="71" y1="45" x2="71" y2="52" style="stroke:#000000;stroke-width:1" />
    <line x1="19" y1="45" x2="79" y2="45" style="stroke:#000000;stroke-width:1" />
    <line x1="19" y1="75" x2="49" y2="75" style="stroke:#000000;stroke-width:1" />
    <line x1="19" y1="60" x2="34" y2="60" style="stroke:#000000;stroke-width:1" />
    <line x1="19" y1="90" x2="34" y2="90" style="stroke:#000000;stroke-width:1" />
    <line x1="19" y1="98" x2="26" y2="98" style="stroke:#000000;stroke-width:1" />
    <line x1="19" y1="83" x2="26" y2="83" style="stroke:#000000;stroke-width:1" />
    <line x1="19" y1="67" x2="26" y2="67" style="stroke:#000000;stroke-width:1" />
    <line x1="19" y1="52" x2="26" y2="52" style="stroke:#000000;stroke-width:1" />
</svg>