<svg width="400" height="400" viewbox = "0 0 400 400"  xmlns="http://www.w3.org/2000/svg">
<!--<json>{
  "glyph": "0332,0332,0332,0223,",
  "x0": 200,
  "y0": 200,
  "unit": 50,
  "width": 400,
  "height": 400,
  "style": {
    "color0": "black",
    "fill0": "black",
    "line0": 1,
    "color1": "black",
    "fill1": "black",
    "line1": 5,
    "color2": "red",
    "fill2": "red",
    "line2": 1,
    "color3": "#FF7900",
    "fill3": "#FF7900",
    "line3": 1,
    "color4": "yellow",
    "fill4": "yellow",
    "line4": 1,
    "color5": "green",
    "fill5": "green",
    "line5": 1,
    "color6": "blue",
    "fill6": "blue",
    "line6": 1,
    "color7": "purple",
    "fill7": "purple",
    "line7": 1
  },
  "shapes": [
    "0220:0342,0336,0333,0342,0336,0332,0342,0333,0333,0342,0336,0333,0342,0332,0332,0342,0332,0332,0342,0332,0332,0342,0333,0333,0333,0333,0333,0333,0333,0337,0337,0337,",
    "0221:0316,0336,0313,0342,0336,0333,0342,0333,0342,0333,0342,0333,0342,0333,0337,0342,0336,0333,0342,0333,0342,0333,0342,0333,0342,0333,0342,0337,0316,0337,0313,",
    "0222:0362,0203,0335,0203,0203,0203,0203,0203,0203,0335,0203,0335,0203,0203,0203,0203,0203,0203,0354,0335,",
    "0223:0222,0322,0221,0221,0221,0221,0221,0221,0334,0221,0334,0220,0220,0220,0220,0220,0220,0334,0220,0334,0320,",
    "0224:0222,0330,0222,0330,0222,0330,0222,0330,0222,0330,0222,0331,0331,0331,0331,0331,",
    "0225:0223,0330,0223,0330,0223,0330,0223,0330,0223,0330,0223,0331,0331,0331,0331,0331,",
    "0226:0362,0203,0334,0203,0203,0334,0203,0334,0203,0203,0354,0334,0336,0336,0330,0332,0330,0332,0331,0337,0342,0336,0330,0335,0331,0337,0342,0334,0332,0332,0335,0342,0331,0334,0331,0333,0333,0333,0333,0333,0336,0332,0337,0337,0330,0332,0332,0336,0333,0336,0362,0203,0335,0203,0335,0203,0364,0334,0330,0330,0334,0362,0203,0335,0203,0335,0203,0364,0334,0334,0333,0333,0331,0331,0331,0331,0337,0337,",
    "0227:0200,0336,0330,0336,0331,0332,0332,0332,0337,0120,0151,0365,0331,0333,0336,0330,0333,0337,0337,",
    "0230:0336,0336,0347,0337,0337,0350,0336,0310,0343,0337,0343,0337,0343,0336,0336,0304,0313,0336,0337,0337,0335,0305,0335,0311,0337,0362,0203,0335,0350,0335,0336,0203,0335,0335,0335,0337,0203,0363,0335,0335,0336,0304,0334,0313,",
    "0231:0321,0342,0330,0320,0336,0230,0331,0331,0337,0350,0335,0304,",
    "0232:0231,0231,0231,0231,0231,0231,0231,0231,",
    "0233:0220,0336,0210,0232,",
    "0234:0220,0336,0335,0335,0331,0335,0331,0337,0321,0342,0332,0342,0336,0333,0337,0342,0330,0336,0336,0336,0330,0337,0366,0332,0332,0332,0367,0350,0335,0306,0350,0320,0335,0362,0203,0334,0334,0334,0334,0203,0334,0334,0334,0334,0203,0363,0335,0304,0350,0335,0304,0335,0335,0331,0331,0332,01015,0145,0154,0145,0155,0145,0156,0164,040,0144,0157,0167,0156,0365,0330,0330,0330,0330,0330,0333,0333,0333,0336,0332,0337,0333,0337,0337,",
    "0235:0220,0321,0336,0342,0335,0342,0335,0342,0335,0342,0335,0337,",
    "0236:0321,0220,0335,0336,0321,0342,0335,0335,0342,0335,0337,",
    "0237:0220,0336,0331,0332,0336,0321,0342,0335,0342,0335,0342,0335,0342,0335,0330,0330,0333,0333,0337,0337,",
    "01220:0333,0200,0336,0332,0330,0336,0332,0337,0220,0331,0336,0333,0337,0337,",
    "01221:0333,0200,0336,0330,0332,0336,0332,0337,0221,0336,0333,0337,0331,0337,",
    "01222:0333,0200,0336,0330,0332,0336,0332,0336,0332,0222,0332,0337,0337,0331,0337,0333,",
    "01223:0333,0200,0336,0332,0330,0336,0332,0336,0332,0223,0332,0337,0337,0331,0337,0333,0320,",
    "01224:0333,0200,0336,0332,0336,0330,0336,0332,0332,0331,0332,0224,",
    "01225:0333,0200,0336,0330,0332,0336,0331,0332,0336,0331,0332,0225,0331,0332,0320,0337,0337,0337,0333,",
    "01226:0333,0200,0336,0336,0330,0332,0337,0226,0336,0333,0331,0337,0337,",
    "01227:0333,0200,0336,0330,0332,0336,0332,0337,0227,0333,0336,0333,0337,0331,0337,",
    "01230:0333,0200,",
    "01231:0333,0200,",
    "01232:0333,0200,",
    "01233:0333,0200,",
    "01234:0333,0200,",
    "01235:0333,0200,",
    "01236:0333,0200,",
    "01237:0333,0200,",
    "0240:0220,0336,0331,0333,0336,0321,0335,0342,0335,0335,0342,0335,0330,0330,0332,0332,0337,0337,",
    "01240:0333,0200,0336,0330,0332,0210,0240,0211,0333,0331,0337,",
    "0241:0220,0336,0321,0343,0332,0350,0335,0336,0342,0334,0334,0342,0335,0304,0337,0333,0337,",
    "01241:0333,0200,0336,0332,0330,0210,0241,0211,0333,0331,0337,",
    "0242:0220,0321,0336,0343,0333,0336,0350,0335,0342,0334,0334,0342,0335,0337,0304,0332,0337,",
    "01242:0333,0200,0336,0330,0332,0210,0242,0211,0333,0331,0337,",
    "0243:0220,0336,0331,0332,0336,0321,0343,0332,0350,0334,0336,0342,0335,0335,0342,0337,0334,0334,0335,0304,0332,0330,0330,0337,0337,0333,",
    "01243:0333,0200,0336,0330,0332,0210,0243,0211,0333,0331,0337,",
    "0244:0220,0336,0331,0333,0336,0321,0343,0333,0350,0336,0335,0342,0334,0334,0342,0335,0337,0304,0333,0330,0330,0337,0337,0332,",
    "01244:0333,0200,0336,0330,0332,0210,0244,0211,0333,0331,0337,",
    "0245:0210,0332,0332,0362,0335,0203,0203,0203,0203,0334,0203,0363,0332,0332,0331,0211,",
    "01245:0333,0200,0336,0330,0332,0336,0245,0337,0333,0331,0337,",
    "0246:0210,0332,0332,0335,0306,0336,0330,0335,0335,0335,0321,0362,0203,0335,0335,0203,0364,0331,0350,0335,0337,0366,0333,0333,0333,0333,0334,0334,0334,0334,0367,0335,0336,0342,0334,0334,0342,0330,0330,0330,0330,0335,0335,0335,0304,0337,0211,",
    "01246:0333,0200,0336,0330,0332,0336,0246,",
    "0247:0330,0332,0336,0332,0336,0221,0333,0333,0333,0222,0333,0333,0333,0223,0333,0333,0333,0225,0333,0331,0331,0331,0332,0332,0332,0332,0332,0332,0332,0332,0332,0332,0332,0332,0333,0333,0226,0331,0331,0331,0333,0333,0333,0333,0333,0333,0333,0333,0333,0333,0333,0333,0333,0330,0333,0330,0330,0333,0330,0331,0332,0332,0332,0332,0332,0332,0332,0332,0332,0332,0332,0332,0227,0333,0333,0333,0230,0333,0331,0331,0331,0331,0332,0332,0332,0330,0332,0332,0332,0332,0332,0332,0333,0333,0231,0333,0333,0333,0232,0331,0333,0330,0333,0333,0233,0333,0333,0333,0234,0330,0330,0332,0330,0332,0332,0337,0337,",
    "01247:0333,0200,0336,0330,0332,0220,0336,0247,0337,0331,0333,0337,"
  ]
}</json>-->	<path d = "M50 200 L50 150 L100 150 L150 150 L200 150 L250 150 L300 150 L350 150 L350 200 L300 200 L250 200 L200 200 L150 200 L100 200 L50 200 Z" stroke = "#000000" stroke-width = "1" fill = "none" />    <line x1="50" y1="200" x2="50" y2="190" style="stroke:#ff0000;stroke-width:1" />
    <line x1="55" y1="200" x2="55" y2="195" style="stroke:#ff0000;stroke-width:1" />
    <line x1="60" y1="200" x2="60" y2="195" style="stroke:#ff0000;stroke-width:1" />
    <line x1="65" y1="200" x2="65" y2="195" style="stroke:#ff0000;stroke-width:1" />
    <line x1="70" y1="200" x2="70" y2="195" style="stroke:#ff0000;stroke-width:1" />
    <line x1="75" y1="200" x2="75" y2="190" style="stroke:#ff0000;stroke-width:1" />
    <line x1="80" y1="200" x2="80" y2="195" style="stroke:#ff0000;stroke-width:1" />
    <line x1="85" y1="200" x2="85" y2="195" style="stroke:#ff0000;stroke-width:1" />
    <line x1="90" y1="200" x2="90" y2="195" style="stroke:#ff0000;stroke-width:1" />
    <line x1="95" y1="200" x2="95" y2="195" style="stroke:#ff0000;stroke-width:1" />
    <line x1="100" y1="200" x2="100" y2="195" style="stroke:#ff0000;stroke-width:1" />
    <line x1="100" y1="200" x2="100" y2="190" style="stroke:#ff0000;stroke-width:1" />
    <line x1="105" y1="200" x2="105" y2="195" style="stroke:#ff0000;stroke-width:1" />
    <line x1="110" y1="200" x2="110" y2="195" style="stroke:#ff0000;stroke-width:1" />
    <line x1="115" y1="200" x2="115" y2="195" style="stroke:#ff0000;stroke-width:1" />
    <line x1="120" y1="200" x2="120" y2="195" style="stroke:#ff0000;stroke-width:1" />
    <line x1="125" y1="200" x2="125" y2="190" style="stroke:#ff0000;stroke-width:1" />
    <line x1="130" y1="200" x2="130" y2="195" style="stroke:#ff0000;stroke-width:1" />
    <line x1="135" y1="200" x2="135" y2="195" style="stroke:#ff0000;stroke-width:1" />
    <line x1="140" y1="200" x2="140" y2="195" style="stroke:#ff0000;stroke-width:1" />
    <line x1="145" y1="200" x2="145" y2="195" style="stroke:#ff0000;stroke-width:1" />
    <line x1="150" y1="200" x2="150" y2="195" style="stroke:#ff0000;stroke-width:1" />
    <line x1="150" y1="200" x2="150" y2="190" style="stroke:#ff0000;stroke-width:1" />
    <line x1="155" y1="200" x2="155" y2="195" style="stroke:#ff0000;stroke-width:1" />
    <line x1="160" y1="200" x2="160" y2="195" style="stroke:#ff0000;stroke-width:1" />
    <line x1="165" y1="200" x2="165" y2="195" style="stroke:#ff0000;stroke-width:1" />
    <line x1="170" y1="200" x2="170" y2="195" style="stroke:#ff0000;stroke-width:1" />
    <line x1="175" y1="200" x2="175" y2="190" style="stroke:#ff0000;stroke-width:1" />
    <line x1="180" y1="200" x2="180" y2="195" style="stroke:#ff0000;stroke-width:1" />
    <line x1="185" y1="200" x2="185" y2="195" style="stroke:#ff0000;stroke-width:1" />
    <line x1="190" y1="200" x2="190" y2="195" style="stroke:#ff0000;stroke-width:1" />
    <line x1="195" y1="200" x2="195" y2="195" style="stroke:#ff0000;stroke-width:1" />
    <line x1="200" y1="200" x2="200" y2="195" style="stroke:#ff0000;stroke-width:1" />
    <line x1="200" y1="200" x2="200" y2="190" style="stroke:#ff0000;stroke-width:1" />
    <line x1="205" y1="200" x2="205" y2="195" style="stroke:#ff0000;stroke-width:1" />
    <line x1="210" y1="200" x2="210" y2="195" style="stroke:#ff0000;stroke-width:1" />
    <line x1="215" y1="200" x2="215" y2="195" style="stroke:#ff0000;stroke-width:1" />
    <line x1="220" y1="200" x2="220" y2="195" style="stroke:#ff0000;stroke-width:1" />
    <line x1="225" y1="200" x2="225" y2="190" style="stroke:#ff0000;stroke-width:1" />
    <line x1="230" y1="200" x2="230" y2="195" style="stroke:#ff0000;stroke-width:1" />
    <line x1="235" y1="200" x2="235" y2="195" style="stroke:#ff0000;stroke-width:1" />
    <line x1="240" y1="200" x2="240" y2="195" style="stroke:#ff0000;stroke-width:1" />
    <line x1="245" y1="200" x2="245" y2="195" style="stroke:#ff0000;stroke-width:1" />
    <line x1="250" y1="200" x2="250" y2="195" style="stroke:#ff0000;stroke-width:1" />
    <line x1="250" y1="200" x2="250" y2="190" style="stroke:#ff0000;stroke-width:1" />
    <line x1="255" y1="200" x2="255" y2="195" style="stroke:#ff0000;stroke-width:1" />
    <line x1="260" y1="200" x2="260" y2="195" style="stroke:#ff0000;stroke-width:1" />
    <line x1="265" y1="200" x2="265" y2="195" style="stroke:#ff0000;stroke-width:1" />
    <line x1="270" y1="200" x2="270" y2="195" style="stroke:#ff0000;stroke-width:1" />
    <line x1="275" y1="200" x2="275" y2="190" style="stroke:#ff0000;stroke-width:1" />
    <line x1="280" y1="200" x2="280" y2="195" style="stroke:#ff0000;stroke-width:1" />
    <line x1="285" y1="200" x2="285" y2="195" style="stroke:#ff0000;stroke-width:1" />
    <line x1="290" y1="200" x2="290" y2="195" style="stroke:#ff0000;stroke-width:1" />
    <line x1="295" y1="200" x2="295" y2="195" style="stroke:#ff0000;stroke-width:1" />
    <line x1="300" y1="200" x2="300" y2="195" style="stroke:#ff0000;stroke-width:1" />
    <line x1="300" y1="200" x2="300" y2="190" style="stroke:#ff0000;stroke-width:1" />
    <line x1="305" y1="200" x2="305" y2="195" style="stroke:#ff0000;stroke-width:1" />
    <line x1="310" y1="200" x2="310" y2="195" style="stroke:#ff0000;stroke-width:1" />
    <line x1="315" y1="200" x2="315" y2="195" style="stroke:#ff0000;stroke-width:1" />
    <line x1="320" y1="200" x2="320" y2="195" style="stroke:#ff0000;stroke-width:1" />
    <line x1="325" y1="200" x2="325" y2="190" style="stroke:#ff0000;stroke-width:1" />
    <line x1="330" y1="200" x2="330" y2="195" style="stroke:#ff0000;stroke-width:1" />
    <line x1="335" y1="200" x2="335" y2="195" style="stroke:#ff0000;stroke-width:1" />
    <line x1="340" y1="200" x2="340" y2="195" style="stroke:#ff0000;stroke-width:1" />
    <line x1="345" y1="200" x2="345" y2="195" style="stroke:#ff0000;stroke-width:1" />
    <line x1="350" y1="200" x2="350" y2="195" style="stroke:#ff0000;stroke-width:1" />
    <line x1="350" y1="200" x2="340" y2="200" style="stroke:#ff0000;stroke-width:1" />
    <line x1="350" y1="195" x2="345" y2="195" style="stroke:#ff0000;stroke-width:1" />
    <line x1="350" y1="190" x2="345" y2="190" style="stroke:#ff0000;stroke-width:1" />
    <line x1="350" y1="185" x2="345" y2="185" style="stroke:#ff0000;stroke-width:1" />
    <line x1="350" y1="180" x2="345" y2="180" style="stroke:#ff0000;stroke-width:1" />
    <line x1="350" y1="175" x2="340" y2="175" style="stroke:#ff0000;stroke-width:1" />
    <line x1="350" y1="170" x2="345" y2="170" style="stroke:#ff0000;stroke-width:1" />
    <line x1="350" y1="165" x2="345" y2="165" style="stroke:#ff0000;stroke-width:1" />
    <line x1="350" y1="160" x2="345" y2="160" style="stroke:#ff0000;stroke-width:1" />
    <line x1="350" y1="155" x2="345" y2="155" style="stroke:#ff0000;stroke-width:1" />
    <line x1="350" y1="150" x2="345" y2="150" style="stroke:#ff0000;stroke-width:1" />
    <line x1="350" y1="150" x2="350" y2="200" style="stroke:#ff0000;stroke-width:1" />
    <line x1="325" y1="150" x2="325" y2="175" style="stroke:#ff0000;stroke-width:1" />
    <line x1="338" y1="150" x2="338" y2="163" style="stroke:#ff0000;stroke-width:1" />
    <line x1="313" y1="150" x2="313" y2="163" style="stroke:#ff0000;stroke-width:1" />
    <line x1="306" y1="150" x2="306" y2="156" style="stroke:#ff0000;stroke-width:1" />
    <line x1="319" y1="150" x2="319" y2="156" style="stroke:#ff0000;stroke-width:1" />
    <line x1="331" y1="150" x2="331" y2="156" style="stroke:#ff0000;stroke-width:1" />
    <line x1="344" y1="150" x2="344" y2="156" style="stroke:#ff0000;stroke-width:1" />
    <line x1="300" y1="150" x2="300" y2="200" style="stroke:#ff0000;stroke-width:1" />
    <line x1="275" y1="150" x2="275" y2="175" style="stroke:#ff0000;stroke-width:1" />
    <line x1="288" y1="150" x2="288" y2="163" style="stroke:#ff0000;stroke-width:1" />
    <line x1="263" y1="150" x2="263" y2="163" style="stroke:#ff0000;stroke-width:1" />
    <line x1="256" y1="150" x2="256" y2="156" style="stroke:#ff0000;stroke-width:1" />
    <line x1="269" y1="150" x2="269" y2="156" style="stroke:#ff0000;stroke-width:1" />
    <line x1="281" y1="150" x2="281" y2="156" style="stroke:#ff0000;stroke-width:1" />
    <line x1="294" y1="150" x2="294" y2="156" style="stroke:#ff0000;stroke-width:1" />
    <line x1="250" y1="150" x2="250" y2="200" style="stroke:#ff0000;stroke-width:1" />
    <line x1="225" y1="150" x2="225" y2="175" style="stroke:#ff0000;stroke-width:1" />
    <line x1="238" y1="150" x2="238" y2="163" style="stroke:#ff0000;stroke-width:1" />
    <line x1="213" y1="150" x2="213" y2="163" style="stroke:#ff0000;stroke-width:1" />
    <line x1="206" y1="150" x2="206" y2="156" style="stroke:#ff0000;stroke-width:1" />
    <line x1="219" y1="150" x2="219" y2="156" style="stroke:#ff0000;stroke-width:1" />
    <line x1="231" y1="150" x2="231" y2="156" style="stroke:#ff0000;stroke-width:1" />
    <line x1="244" y1="150" x2="244" y2="156" style="stroke:#ff0000;stroke-width:1" />
    <line x1="200" y1="150" x2="200" y2="200" style="stroke:#ff0000;stroke-width:1" />
    <line x1="175" y1="150" x2="175" y2="175" style="stroke:#ff0000;stroke-width:1" />
    <line x1="188" y1="150" x2="188" y2="163" style="stroke:#ff0000;stroke-width:1" />
    <line x1="163" y1="150" x2="163" y2="163" style="stroke:#ff0000;stroke-width:1" />
    <line x1="156" y1="150" x2="156" y2="156" style="stroke:#ff0000;stroke-width:1" />
    <line x1="169" y1="150" x2="169" y2="156" style="stroke:#ff0000;stroke-width:1" />
    <line x1="181" y1="150" x2="181" y2="156" style="stroke:#ff0000;stroke-width:1" />
    <line x1="194" y1="150" x2="194" y2="156" style="stroke:#ff0000;stroke-width:1" />
    <line x1="150" y1="150" x2="150" y2="200" style="stroke:#ff0000;stroke-width:1" />
    <line x1="125" y1="150" x2="125" y2="175" style="stroke:#ff0000;stroke-width:1" />
    <line x1="138" y1="150" x2="138" y2="163" style="stroke:#ff0000;stroke-width:1" />
    <line x1="113" y1="150" x2="113" y2="163" style="stroke:#ff0000;stroke-width:1" />
    <line x1="106" y1="150" x2="106" y2="156" style="stroke:#ff0000;stroke-width:1" />
    <line x1="119" y1="150" x2="119" y2="156" style="stroke:#ff0000;stroke-width:1" />
    <line x1="131" y1="150" x2="131" y2="156" style="stroke:#ff0000;stroke-width:1" />
    <line x1="144" y1="150" x2="144" y2="156" style="stroke:#ff0000;stroke-width:1" />
    <line x1="100" y1="150" x2="100" y2="200" style="stroke:#ff0000;stroke-width:1" />
    <line x1="75" y1="150" x2="75" y2="175" style="stroke:#ff0000;stroke-width:1" />
    <line x1="88" y1="150" x2="88" y2="163" style="stroke:#ff0000;stroke-width:1" />
    <line x1="63" y1="150" x2="63" y2="163" style="stroke:#ff0000;stroke-width:1" />
    <line x1="56" y1="150" x2="56" y2="156" style="stroke:#ff0000;stroke-width:1" />
    <line x1="69" y1="150" x2="69" y2="156" style="stroke:#ff0000;stroke-width:1" />
    <line x1="81" y1="150" x2="81" y2="156" style="stroke:#ff0000;stroke-width:1" />
    <line x1="94" y1="150" x2="94" y2="156" style="stroke:#ff0000;stroke-width:1" />
    <line x1="50" y1="150" x2="100" y2="150" style="stroke:#ff0000;stroke-width:1" />
    <line x1="50" y1="175" x2="75" y2="175" style="stroke:#ff0000;stroke-width:1" />
    <line x1="50" y1="163" x2="63" y2="163" style="stroke:#ff0000;stroke-width:1" />
    <line x1="50" y1="188" x2="63" y2="188" style="stroke:#ff0000;stroke-width:1" />
    <line x1="50" y1="194" x2="56" y2="194" style="stroke:#ff0000;stroke-width:1" />
    <line x1="50" y1="181" x2="56" y2="181" style="stroke:#ff0000;stroke-width:1" />
    <line x1="50" y1="169" x2="56" y2="169" style="stroke:#ff0000;stroke-width:1" />
    <line x1="50" y1="156" x2="56" y2="156" style="stroke:#ff0000;stroke-width:1" />
</svg>