<svg width="600" height="150" viewbox = "0 0 600 150"  xmlns="http://www.w3.org/2000/svg">
<!--<json>{
  "glyph": "0336,0333,0337,0331,0332,0332,0332,0332,0332,0332,0332,0332,0220,0220,0220,0220,0220,0220,0220,0220,0220,0220,0220,0220,0220,0220,0220,0334,0220,0220,0334,0221,0221,0221,0221,0221,0221,0221,0221,0221,0221,0221,0221,0221,0221,0221,0334,0221,0221,0332,0201,0201,0201,0201,0201,0201,0201,0201,0201,0201,0201,0201,0201,0201,0201,0334,0332,0342,0332,0342,0332,0342,0332,0342,0332,0342,0332,0342,0332,0342,0332,0342,0332,0342,0332,0342,0332,0342,0332,0342,0332,0342,0332,0342,0332,0333,0333,0333,0333,0333,0322,0330,0335,0337,0337,0331,0336,0336,0331,0362,0203,0203,0203,0203,0203,0203,0203,0203,0203,0203,0203,0203,0203,0203,0203,0335,0203,0203,0335,0203,0203,0203,0203,0203,0203,0203,0203,0203,0203,0203,0203,0203,0203,0203,0335,0203,0203,0354,0331,0331,0333,0333,0333,0333,0333,0330,0336,0336,0336,0320,0347,0337,0337,0337,0333,0333,0333,0333,0333,0336,0336,0336,0337,0337,0337,0332,0332,0333,0333,0336,0336,0336,0347,0337,0337,0337,0332,0332,",
  "x0": 300,
  "y0": 75,
  "unit": 37.56574004507889,
  "width": 600,
  "height": 150,
  "style": {
    "color0": "black",
    "fill0": "black",
    "line0": 1,
    "color1": "black",
    "fill1": "black",
    "line1": 5,
    "color2": "red",
    "fill2": "red",
    "line2": 1,
    "color3": "#FF7900",
    "fill3": "#FF7900",
    "line3": 1,
    "color4": "yellow",
    "fill4": "yellow",
    "line4": 1,
    "color5": "green",
    "fill5": "green",
    "line5": 1,
    "color6": "blue",
    "fill6": "blue",
    "line6": 1,
    "color7": "purple",
    "fill7": "purple",
    "line7": 1
  },
  "shapes": [
    "0220:0342,0336,0333,0342,0336,0332,0342,0333,0333,0342,0336,0333,0342,0332,0332,0342,0332,0332,0342,0332,0332,0342,0333,0333,0333,0333,0333,0333,0333,0337,0337,0337,",
    "0221:0316,0336,0313,0342,0336,0333,0342,0333,0342,0333,0342,0333,0342,0333,0337,0342,0336,0333,0342,0333,0342,0333,0342,0333,0342,0333,0342,0337,0316,0337,0313,",
    "0222:0362,0203,0335,0203,0203,0203,0203,0203,0203,0335,0203,0335,0203,0203,0203,0203,0203,0203,0354,0335,",
    "0223:0222,0322,0221,0221,0221,0221,0221,0221,0334,0221,0334,0220,0220,0220,0220,0220,0220,0334,0220,0334,0320,",
    "0224:0222,0330,0222,0330,0222,0330,0222,0330,0222,0330,0222,0331,0331,0331,0331,0331,",
    "0225:0223,0330,0223,0330,0223,0330,0223,0330,0223,0330,0223,0331,0331,0331,0331,0331,",
    "0226:0336,0333,0337,0331,0332,0332,0332,0332,0332,0332,0332,0332,0220,0220,0220,0220,0220,0220,0220,0220,0220,0220,0220,0220,0220,0220,0220,0334,0220,0220,0334,0221,0221,0221,0221,0221,0221,0221,0221,0221,0221,0221,0221,0221,0221,0221,0334,0221,0221,0332,0201,0201,0201,0201,0201,0201,0201,0201,0201,0201,0201,0201,0201,0201,0201,0334,0332,0342,0332,0342,0332,0342,0332,0342,0332,0342,0332,0342,0332,0342,0332,0342,0332,0342,0332,0342,0332,0342,0332,0342,0332,0342,0332,0342,0332,0333,0333,0333,0333,0333,0322,0330,0335,0337,0337,0331,0336,0336,0331,0362,0203,0203,0203,0203,0203,0203,0203,0203,0203,0203,0203,0203,0203,0203,0203,0335,0203,0203,0335,0203,0203,0203,0203,0203,0203,0203,0203,0203,0203,0203,0203,0203,0203,0203,0335,0203,0203,0354,0331,0331,0333,0333,0333,0333,0333,0330,0336,0336,0336,0320,0347,0337,0337,0337,0333,0333,0333,0333,0333,0336,0336,0336,0337,0337,0337,0332,0332,0332,0336,0333,0337,",
    "0227:0304,0350,0335,0313,0304,0322,0336,0336,0336,0330,0332,0337,0337,0362,0203,0335,0336,0203,0335,0337,0203,0334,0203,0335,0336,0203,0335,0337,0203,0334,0203,0335,0336,0203,0335,0337,0203,0334,0203,0335,0336,0203,0335,0337,0203,0363,0320,0336,0334,0336,0333,0331,0337,0337,0337,0350,0334,0304,0220,0331,0336,0331,0332,0336,0332,0337,01015,0144,0145,0154,0145,0164,0145,0336,0333,0337,0330,0330,0330,0333,0337,",
    "0230:0313,0334,0336,0330,0335,0335,0305,0334,0337,0311,0337,0362,0203,0335,0335,0203,0335,0350,0335,0336,0203,0363,0313,0336,0331,0304,0335,0337,",
    "0231:0321,0342,0330,0320,0336,0230,0331,0331,0337,0350,0335,0304,",
    "0232:0231,0231,0231,0231,0231,0231,0231,0231,",
    "0233:0220,0336,0210,0232,",
    "0234:0220,0336,0335,0335,0331,0335,0331,0337,0321,0342,0332,0342,0336,0333,0337,0342,0330,0336,0336,0336,0330,0337,0366,0332,0332,0332,0367,0350,0335,0306,0350,0320,0335,0362,0203,0334,0334,0334,0334,0203,0334,0334,0334,0334,0203,0363,0335,0304,0350,0335,0304,0335,0335,0331,0331,0332,01015,0145,0154,0145,0155,0145,0156,0164,040,0144,0157,0167,0156,0365,0330,0330,0330,0330,0330,0333,0333,0333,0336,0332,0337,0333,0337,0337,",
    "0235:0220,0321,0336,0342,0335,0342,0335,0342,0335,0342,0335,0337,",
    "0236:0321,0220,0335,0336,0321,0342,0335,0335,0342,0335,0337,",
    "0237:0220,0336,0331,0332,0336,0321,0342,0335,0342,0335,0342,0335,0342,0335,0330,0330,0333,0333,0337,0337,",
    "01220:0333,0200,0336,0332,0330,0336,0332,0337,0220,0331,0336,0333,0337,0337,",
    "01221:0333,0200,0336,0330,0332,0336,0332,0337,0221,0336,0333,0337,0331,0337,",
    "01222:0333,0200,0336,0330,0332,0336,0332,0336,0332,0222,0332,0337,0337,0331,0337,0333,",
    "01223:0333,0200,0336,0332,0330,0336,0332,0336,0332,0223,0332,0337,0337,0331,0337,0333,0320,",
    "01224:0333,0200,0336,0332,0336,0330,0336,0332,0332,0331,0332,0224,",
    "01225:0333,0200,0336,0330,0332,0336,0331,0332,0336,0331,0332,0225,0331,0332,0320,0337,0337,0337,0333,",
    "01226:0333,0200,0336,0336,0330,0332,0337,0226,0336,0333,0331,0337,0337,",
    "01227:0333,0200,0336,0330,0332,0336,0332,0337,0227,0333,0336,0333,0337,0331,0337,",
    "01230:0333,0200,",
    "01231:0333,0200,",
    "01232:0333,0200,",
    "01233:0333,0200,",
    "01234:0333,0200,",
    "01235:0333,0200,",
    "01236:0333,0200,",
    "01237:0333,0200,",
    "0240:0220,0336,0331,0333,0336,0321,0335,0342,0335,0335,0342,0335,0330,0330,0332,0332,0337,0337,",
    "01240:0333,0200,0336,0330,0332,0210,0240,0211,0333,0331,0337,",
    "0241:0220,0336,0321,0343,0332,0350,0335,0336,0342,0334,0334,0342,0335,0304,0337,0333,0337,",
    "01241:0333,0200,0336,0332,0330,0210,0241,0211,0333,0331,0337,",
    "0242:0220,0321,0336,0343,0333,0336,0350,0335,0342,0334,0334,0342,0335,0337,0304,0332,0337,",
    "01242:0333,0200,0336,0330,0332,0210,0242,0211,0333,0331,0337,",
    "0243:0220,0336,0331,0332,0336,0321,0343,0332,0350,0334,0336,0342,0335,0335,0342,0337,0334,0334,0335,0304,0332,0330,0330,0337,0337,0333,",
    "01243:0333,0200,0336,0330,0332,0210,0243,0211,0333,0331,0337,",
    "0244:0220,0336,0331,0333,0336,0321,0343,0333,0350,0336,0335,0342,0334,0334,0342,0335,0337,0304,0333,0330,0330,0337,0337,0332,",
    "01244:0333,0200,0336,0330,0332,0210,0244,0211,0333,0331,0337,",
    "0245:0210,0332,0332,0362,0335,0203,0203,0203,0203,0334,0203,0363,0332,0332,0331,0211,",
    "01245:0333,0200,0336,0330,0332,0336,0245,0337,0333,0331,0337,",
    "0246:0210,0332,0332,0335,0306,0336,0330,0335,0335,0335,0321,0362,0203,0335,0335,0203,0364,0331,0350,0335,0337,0366,0333,0333,0333,0333,0334,0334,0334,0334,0367,0335,0336,0342,0334,0334,0342,0330,0330,0330,0330,0335,0335,0335,0304,0337,0211,",
    "01246:0333,0200,0336,0330,0332,0336,0246,",
    "0247:0330,0332,0336,0332,0336,0221,0333,0333,0333,0222,0333,0333,0333,0223,0333,0333,0333,0225,0333,0331,0331,0331,0332,0332,0332,0332,0332,0332,0332,0332,0332,0332,0332,0332,0333,0333,0226,0331,0331,0331,0333,0333,0333,0333,0333,0333,0333,0333,0333,0333,0333,0333,0333,0330,0333,0330,0330,0333,0330,0331,0332,0332,0332,0332,0332,0332,0332,0332,0332,0332,0332,0332,0227,0333,0333,0333,0230,0333,0331,0331,0331,0331,0332,0332,0332,0330,0332,0332,0332,0332,0332,0332,0333,0333,0231,0333,0333,0333,0232,0331,0333,0330,0333,0333,0233,0333,0333,0333,0234,0330,0330,0332,0330,0332,0332,0337,0337,",
    "01247:0333,0200,0336,0330,0332,0220,0336,0247,0337,0331,0333,0337,"
  ]
}</json>-->    <line x1="18" y1="113" x2="18" y2="75" style="stroke:#000000;stroke-width:1" />
    <line x1="37" y1="113" x2="37" y2="94" style="stroke:#000000;stroke-width:1" />
    <line x1="28" y1="113" x2="28" y2="103" style="stroke:#000000;stroke-width:1" />
    <line x1="46" y1="113" x2="46" y2="103" style="stroke:#000000;stroke-width:1" />
    <line x1="51" y1="113" x2="51" y2="108" style="stroke:#000000;stroke-width:1" />
    <line x1="42" y1="113" x2="42" y2="108" style="stroke:#000000;stroke-width:1" />
    <line x1="32" y1="113" x2="32" y2="108" style="stroke:#000000;stroke-width:1" />
    <line x1="23" y1="113" x2="23" y2="108" style="stroke:#000000;stroke-width:1" />
    <line x1="56" y1="113" x2="56" y2="75" style="stroke:#000000;stroke-width:1" />
    <line x1="75" y1="113" x2="75" y2="94" style="stroke:#000000;stroke-width:1" />
    <line x1="65" y1="113" x2="65" y2="103" style="stroke:#000000;stroke-width:1" />
    <line x1="84" y1="113" x2="84" y2="103" style="stroke:#000000;stroke-width:1" />
    <line x1="89" y1="113" x2="89" y2="108" style="stroke:#000000;stroke-width:1" />
    <line x1="79" y1="113" x2="79" y2="108" style="stroke:#000000;stroke-width:1" />
    <line x1="70" y1="113" x2="70" y2="108" style="stroke:#000000;stroke-width:1" />
    <line x1="61" y1="113" x2="61" y2="108" style="stroke:#000000;stroke-width:1" />
    <line x1="93" y1="113" x2="93" y2="75" style="stroke:#000000;stroke-width:1" />
    <line x1="112" y1="113" x2="112" y2="94" style="stroke:#000000;stroke-width:1" />
    <line x1="103" y1="113" x2="103" y2="103" style="stroke:#000000;stroke-width:1" />
    <line x1="122" y1="113" x2="122" y2="103" style="stroke:#000000;stroke-width:1" />
    <line x1="126" y1="113" x2="126" y2="108" style="stroke:#000000;stroke-width:1" />
    <line x1="117" y1="113" x2="117" y2="108" style="stroke:#000000;stroke-width:1" />
    <line x1="107" y1="113" x2="107" y2="108" style="stroke:#000000;stroke-width:1" />
    <line x1="98" y1="113" x2="98" y2="108" style="stroke:#000000;stroke-width:1" />
    <line x1="131" y1="113" x2="131" y2="75" style="stroke:#000000;stroke-width:1" />
    <line x1="150" y1="113" x2="150" y2="94" style="stroke:#000000;stroke-width:1" />
    <line x1="140" y1="113" x2="140" y2="103" style="stroke:#000000;stroke-width:1" />
    <line x1="159" y1="113" x2="159" y2="103" style="stroke:#000000;stroke-width:1" />
    <line x1="164" y1="113" x2="164" y2="108" style="stroke:#000000;stroke-width:1" />
    <line x1="154" y1="113" x2="154" y2="108" style="stroke:#000000;stroke-width:1" />
    <line x1="145" y1="113" x2="145" y2="108" style="stroke:#000000;stroke-width:1" />
    <line x1="136" y1="113" x2="136" y2="108" style="stroke:#000000;stroke-width:1" />
    <line x1="169" y1="113" x2="169" y2="75" style="stroke:#000000;stroke-width:1" />
    <line x1="187" y1="113" x2="187" y2="94" style="stroke:#000000;stroke-width:1" />
    <line x1="178" y1="113" x2="178" y2="103" style="stroke:#000000;stroke-width:1" />
    <line x1="197" y1="113" x2="197" y2="103" style="stroke:#000000;stroke-width:1" />
    <line x1="201" y1="113" x2="201" y2="108" style="stroke:#000000;stroke-width:1" />
    <line x1="192" y1="113" x2="192" y2="108" style="stroke:#000000;stroke-width:1" />
    <line x1="183" y1="113" x2="183" y2="108" style="stroke:#000000;stroke-width:1" />
    <line x1="173" y1="113" x2="173" y2="108" style="stroke:#000000;stroke-width:1" />
    <line x1="206" y1="113" x2="206" y2="75" style="stroke:#000000;stroke-width:1" />
    <line x1="225" y1="113" x2="225" y2="94" style="stroke:#000000;stroke-width:1" />
    <line x1="215" y1="113" x2="215" y2="103" style="stroke:#000000;stroke-width:1" />
    <line x1="234" y1="113" x2="234" y2="103" style="stroke:#000000;stroke-width:1" />
    <line x1="239" y1="113" x2="239" y2="108" style="stroke:#000000;stroke-width:1" />
    <line x1="230" y1="113" x2="230" y2="108" style="stroke:#000000;stroke-width:1" />
    <line x1="220" y1="113" x2="220" y2="108" style="stroke:#000000;stroke-width:1" />
    <line x1="211" y1="113" x2="211" y2="108" style="stroke:#000000;stroke-width:1" />
    <line x1="244" y1="113" x2="244" y2="75" style="stroke:#000000;stroke-width:1" />
    <line x1="262" y1="113" x2="262" y2="94" style="stroke:#000000;stroke-width:1" />
    <line x1="253" y1="113" x2="253" y2="103" style="stroke:#000000;stroke-width:1" />
    <line x1="272" y1="113" x2="272" y2="103" style="stroke:#000000;stroke-width:1" />
    <line x1="277" y1="113" x2="277" y2="108" style="stroke:#000000;stroke-width:1" />
    <line x1="267" y1="113" x2="267" y2="108" style="stroke:#000000;stroke-width:1" />
    <line x1="258" y1="113" x2="258" y2="108" style="stroke:#000000;stroke-width:1" />
    <line x1="248" y1="113" x2="248" y2="108" style="stroke:#000000;stroke-width:1" />
    <line x1="281" y1="113" x2="281" y2="75" style="stroke:#000000;stroke-width:1" />
    <line x1="300" y1="113" x2="300" y2="94" style="stroke:#000000;stroke-width:1" />
    <line x1="291" y1="113" x2="291" y2="103" style="stroke:#000000;stroke-width:1" />
    <line x1="309" y1="113" x2="309" y2="103" style="stroke:#000000;stroke-width:1" />
    <line x1="314" y1="113" x2="314" y2="108" style="stroke:#000000;stroke-width:1" />
    <line x1="305" y1="113" x2="305" y2="108" style="stroke:#000000;stroke-width:1" />
    <line x1="295" y1="113" x2="295" y2="108" style="stroke:#000000;stroke-width:1" />
    <line x1="286" y1="113" x2="286" y2="108" style="stroke:#000000;stroke-width:1" />
    <line x1="319" y1="113" x2="319" y2="75" style="stroke:#000000;stroke-width:1" />
    <line x1="338" y1="113" x2="338" y2="94" style="stroke:#000000;stroke-width:1" />
    <line x1="328" y1="113" x2="328" y2="103" style="stroke:#000000;stroke-width:1" />
    <line x1="347" y1="113" x2="347" y2="103" style="stroke:#000000;stroke-width:1" />
    <line x1="352" y1="113" x2="352" y2="108" style="stroke:#000000;stroke-width:1" />
    <line x1="342" y1="113" x2="342" y2="108" style="stroke:#000000;stroke-width:1" />
    <line x1="333" y1="113" x2="333" y2="108" style="stroke:#000000;stroke-width:1" />
    <line x1="323" y1="113" x2="323" y2="108" style="stroke:#000000;stroke-width:1" />
    <line x1="356" y1="113" x2="356" y2="75" style="stroke:#000000;stroke-width:1" />
    <line x1="375" y1="113" x2="375" y2="94" style="stroke:#000000;stroke-width:1" />
    <line x1="366" y1="113" x2="366" y2="103" style="stroke:#000000;stroke-width:1" />
    <line x1="385" y1="113" x2="385" y2="103" style="stroke:#000000;stroke-width:1" />
    <line x1="389" y1="113" x2="389" y2="108" style="stroke:#000000;stroke-width:1" />
    <line x1="380" y1="113" x2="380" y2="108" style="stroke:#000000;stroke-width:1" />
    <line x1="370" y1="113" x2="370" y2="108" style="stroke:#000000;stroke-width:1" />
    <line x1="361" y1="113" x2="361" y2="108" style="stroke:#000000;stroke-width:1" />
    <line x1="394" y1="113" x2="394" y2="75" style="stroke:#000000;stroke-width:1" />
    <line x1="413" y1="113" x2="413" y2="94" style="stroke:#000000;stroke-width:1" />
    <line x1="403" y1="113" x2="403" y2="103" style="stroke:#000000;stroke-width:1" />
    <line x1="422" y1="113" x2="422" y2="103" style="stroke:#000000;stroke-width:1" />
    <line x1="427" y1="113" x2="427" y2="108" style="stroke:#000000;stroke-width:1" />
    <line x1="417" y1="113" x2="417" y2="108" style="stroke:#000000;stroke-width:1" />
    <line x1="408" y1="113" x2="408" y2="108" style="stroke:#000000;stroke-width:1" />
    <line x1="399" y1="113" x2="399" y2="108" style="stroke:#000000;stroke-width:1" />
    <line x1="431" y1="113" x2="431" y2="75" style="stroke:#000000;stroke-width:1" />
    <line x1="450" y1="113" x2="450" y2="94" style="stroke:#000000;stroke-width:1" />
    <line x1="441" y1="113" x2="441" y2="103" style="stroke:#000000;stroke-width:1" />
    <line x1="460" y1="113" x2="460" y2="103" style="stroke:#000000;stroke-width:1" />
    <line x1="464" y1="113" x2="464" y2="108" style="stroke:#000000;stroke-width:1" />
    <line x1="455" y1="113" x2="455" y2="108" style="stroke:#000000;stroke-width:1" />
    <line x1="446" y1="113" x2="446" y2="108" style="stroke:#000000;stroke-width:1" />
    <line x1="436" y1="113" x2="436" y2="108" style="stroke:#000000;stroke-width:1" />
    <line x1="469" y1="113" x2="469" y2="75" style="stroke:#000000;stroke-width:1" />
    <line x1="488" y1="113" x2="488" y2="94" style="stroke:#000000;stroke-width:1" />
    <line x1="478" y1="113" x2="478" y2="103" style="stroke:#000000;stroke-width:1" />
    <line x1="497" y1="113" x2="497" y2="103" style="stroke:#000000;stroke-width:1" />
    <line x1="502" y1="113" x2="502" y2="108" style="stroke:#000000;stroke-width:1" />
    <line x1="493" y1="113" x2="493" y2="108" style="stroke:#000000;stroke-width:1" />
    <line x1="483" y1="113" x2="483" y2="108" style="stroke:#000000;stroke-width:1" />
    <line x1="474" y1="113" x2="474" y2="108" style="stroke:#000000;stroke-width:1" />
    <line x1="507" y1="113" x2="507" y2="75" style="stroke:#000000;stroke-width:1" />
    <line x1="525" y1="113" x2="525" y2="94" style="stroke:#000000;stroke-width:1" />
    <line x1="516" y1="113" x2="516" y2="103" style="stroke:#000000;stroke-width:1" />
    <line x1="535" y1="113" x2="535" y2="103" style="stroke:#000000;stroke-width:1" />
    <line x1="539" y1="113" x2="539" y2="108" style="stroke:#000000;stroke-width:1" />
    <line x1="530" y1="113" x2="530" y2="108" style="stroke:#000000;stroke-width:1" />
    <line x1="521" y1="113" x2="521" y2="108" style="stroke:#000000;stroke-width:1" />
    <line x1="511" y1="113" x2="511" y2="108" style="stroke:#000000;stroke-width:1" />
    <line x1="544" y1="113" x2="544" y2="75" style="stroke:#000000;stroke-width:1" />
    <line x1="563" y1="113" x2="563" y2="94" style="stroke:#000000;stroke-width:1" />
    <line x1="554" y1="113" x2="554" y2="103" style="stroke:#000000;stroke-width:1" />
    <line x1="572" y1="113" x2="572" y2="103" style="stroke:#000000;stroke-width:1" />
    <line x1="577" y1="113" x2="577" y2="108" style="stroke:#000000;stroke-width:1" />
    <line x1="568" y1="113" x2="568" y2="108" style="stroke:#000000;stroke-width:1" />
    <line x1="558" y1="113" x2="558" y2="108" style="stroke:#000000;stroke-width:1" />
    <line x1="549" y1="113" x2="549" y2="108" style="stroke:#000000;stroke-width:1" />
    <line x1="582" y1="113" x2="544" y2="113" style="stroke:#000000;stroke-width:1" />
    <line x1="582" y1="94" x2="563" y2="94" style="stroke:#000000;stroke-width:1" />
    <line x1="582" y1="103" x2="572" y2="103" style="stroke:#000000;stroke-width:1" />
    <line x1="582" y1="84" x2="572" y2="84" style="stroke:#000000;stroke-width:1" />
    <line x1="582" y1="80" x2="577" y2="80" style="stroke:#000000;stroke-width:1" />
    <line x1="582" y1="89" x2="577" y2="89" style="stroke:#000000;stroke-width:1" />
    <line x1="582" y1="98" x2="577" y2="98" style="stroke:#000000;stroke-width:1" />
    <line x1="582" y1="108" x2="577" y2="108" style="stroke:#000000;stroke-width:1" />
    <line x1="582" y1="75" x2="544" y2="75" style="stroke:#000000;stroke-width:1" />
    <line x1="582" y1="56" x2="563" y2="56" style="stroke:#000000;stroke-width:1" />
    <line x1="582" y1="66" x2="572" y2="66" style="stroke:#000000;stroke-width:1" />
    <line x1="582" y1="47" x2="572" y2="47" style="stroke:#000000;stroke-width:1" />
    <line x1="582" y1="42" x2="577" y2="42" style="stroke:#000000;stroke-width:1" />
    <line x1="582" y1="52" x2="577" y2="52" style="stroke:#000000;stroke-width:1" />
    <line x1="582" y1="61" x2="577" y2="61" style="stroke:#000000;stroke-width:1" />
    <line x1="582" y1="70" x2="577" y2="70" style="stroke:#000000;stroke-width:1" />
    <line x1="582" y1="37" x2="582" y2="45" style="stroke:#000000;stroke-width:1" />
    <line x1="578" y1="37" x2="578" y2="41" style="stroke:#000000;stroke-width:1" />
    <line x1="574" y1="37" x2="574" y2="41" style="stroke:#000000;stroke-width:1" />
    <line x1="570" y1="37" x2="570" y2="41" style="stroke:#000000;stroke-width:1" />
    <line x1="567" y1="37" x2="567" y2="41" style="stroke:#000000;stroke-width:1" />
    <line x1="563" y1="37" x2="563" y2="45" style="stroke:#000000;stroke-width:1" />
    <line x1="559" y1="37" x2="559" y2="41" style="stroke:#000000;stroke-width:1" />
    <line x1="555" y1="37" x2="555" y2="41" style="stroke:#000000;stroke-width:1" />
    <line x1="552" y1="37" x2="552" y2="41" style="stroke:#000000;stroke-width:1" />
    <line x1="548" y1="37" x2="548" y2="41" style="stroke:#000000;stroke-width:1" />
    <line x1="544" y1="37" x2="544" y2="41" style="stroke:#000000;stroke-width:1" />
    <line x1="544" y1="37" x2="544" y2="45" style="stroke:#000000;stroke-width:1" />
    <line x1="540" y1="37" x2="540" y2="41" style="stroke:#000000;stroke-width:1" />
    <line x1="537" y1="37" x2="537" y2="41" style="stroke:#000000;stroke-width:1" />
    <line x1="533" y1="37" x2="533" y2="41" style="stroke:#000000;stroke-width:1" />
    <line x1="529" y1="37" x2="529" y2="41" style="stroke:#000000;stroke-width:1" />
    <line x1="525" y1="37" x2="525" y2="45" style="stroke:#000000;stroke-width:1" />
    <line x1="522" y1="37" x2="522" y2="41" style="stroke:#000000;stroke-width:1" />
    <line x1="518" y1="37" x2="518" y2="41" style="stroke:#000000;stroke-width:1" />
    <line x1="514" y1="37" x2="514" y2="41" style="stroke:#000000;stroke-width:1" />
    <line x1="510" y1="37" x2="510" y2="41" style="stroke:#000000;stroke-width:1" />
    <line x1="507" y1="37" x2="507" y2="41" style="stroke:#000000;stroke-width:1" />
    <line x1="507" y1="37" x2="507" y2="45" style="stroke:#000000;stroke-width:1" />
    <line x1="503" y1="37" x2="503" y2="41" style="stroke:#000000;stroke-width:1" />
    <line x1="499" y1="37" x2="499" y2="41" style="stroke:#000000;stroke-width:1" />
    <line x1="495" y1="37" x2="495" y2="41" style="stroke:#000000;stroke-width:1" />
    <line x1="492" y1="37" x2="492" y2="41" style="stroke:#000000;stroke-width:1" />
    <line x1="488" y1="37" x2="488" y2="45" style="stroke:#000000;stroke-width:1" />
    <line x1="484" y1="37" x2="484" y2="41" style="stroke:#000000;stroke-width:1" />
    <line x1="480" y1="37" x2="480" y2="41" style="stroke:#000000;stroke-width:1" />
    <line x1="477" y1="37" x2="477" y2="41" style="stroke:#000000;stroke-width:1" />
    <line x1="473" y1="37" x2="473" y2="41" style="stroke:#000000;stroke-width:1" />
    <line x1="469" y1="37" x2="469" y2="41" style="stroke:#000000;stroke-width:1" />
    <line x1="469" y1="37" x2="469" y2="45" style="stroke:#000000;stroke-width:1" />
    <line x1="465" y1="37" x2="465" y2="41" style="stroke:#000000;stroke-width:1" />
    <line x1="462" y1="37" x2="462" y2="41" style="stroke:#000000;stroke-width:1" />
    <line x1="458" y1="37" x2="458" y2="41" style="stroke:#000000;stroke-width:1" />
    <line x1="454" y1="37" x2="454" y2="41" style="stroke:#000000;stroke-width:1" />
    <line x1="450" y1="37" x2="450" y2="45" style="stroke:#000000;stroke-width:1" />
    <line x1="447" y1="37" x2="447" y2="41" style="stroke:#000000;stroke-width:1" />
    <line x1="443" y1="37" x2="443" y2="41" style="stroke:#000000;stroke-width:1" />
    <line x1="439" y1="37" x2="439" y2="41" style="stroke:#000000;stroke-width:1" />
    <line x1="435" y1="37" x2="435" y2="41" style="stroke:#000000;stroke-width:1" />
    <line x1="431" y1="37" x2="431" y2="41" style="stroke:#000000;stroke-width:1" />
    <line x1="431" y1="37" x2="431" y2="45" style="stroke:#000000;stroke-width:1" />
    <line x1="428" y1="37" x2="428" y2="41" style="stroke:#000000;stroke-width:1" />
    <line x1="424" y1="37" x2="424" y2="41" style="stroke:#000000;stroke-width:1" />
    <line x1="420" y1="37" x2="420" y2="41" style="stroke:#000000;stroke-width:1" />
    <line x1="416" y1="37" x2="416" y2="41" style="stroke:#000000;stroke-width:1" />
    <line x1="413" y1="37" x2="413" y2="45" style="stroke:#000000;stroke-width:1" />
    <line x1="409" y1="37" x2="409" y2="41" style="stroke:#000000;stroke-width:1" />
    <line x1="405" y1="37" x2="405" y2="41" style="stroke:#000000;stroke-width:1" />
    <line x1="401" y1="37" x2="401" y2="41" style="stroke:#000000;stroke-width:1" />
    <line x1="398" y1="37" x2="398" y2="41" style="stroke:#000000;stroke-width:1" />
    <line x1="394" y1="37" x2="394" y2="41" style="stroke:#000000;stroke-width:1" />
    <line x1="394" y1="37" x2="394" y2="45" style="stroke:#000000;stroke-width:1" />
    <line x1="390" y1="37" x2="390" y2="41" style="stroke:#000000;stroke-width:1" />
    <line x1="386" y1="37" x2="386" y2="41" style="stroke:#000000;stroke-width:1" />
    <line x1="383" y1="37" x2="383" y2="41" style="stroke:#000000;stroke-width:1" />
    <line x1="379" y1="37" x2="379" y2="41" style="stroke:#000000;stroke-width:1" />
    <line x1="375" y1="37" x2="375" y2="45" style="stroke:#000000;stroke-width:1" />
    <line x1="371" y1="37" x2="371" y2="41" style="stroke:#000000;stroke-width:1" />
    <line x1="368" y1="37" x2="368" y2="41" style="stroke:#000000;stroke-width:1" />
    <line x1="364" y1="37" x2="364" y2="41" style="stroke:#000000;stroke-width:1" />
    <line x1="360" y1="37" x2="360" y2="41" style="stroke:#000000;stroke-width:1" />
    <line x1="356" y1="37" x2="356" y2="41" style="stroke:#000000;stroke-width:1" />
    <line x1="356" y1="37" x2="356" y2="45" style="stroke:#000000;stroke-width:1" />
    <line x1="353" y1="37" x2="353" y2="41" style="stroke:#000000;stroke-width:1" />
    <line x1="349" y1="37" x2="349" y2="41" style="stroke:#000000;stroke-width:1" />
    <line x1="345" y1="37" x2="345" y2="41" style="stroke:#000000;stroke-width:1" />
    <line x1="341" y1="37" x2="341" y2="41" style="stroke:#000000;stroke-width:1" />
    <line x1="338" y1="37" x2="338" y2="45" style="stroke:#000000;stroke-width:1" />
    <line x1="334" y1="37" x2="334" y2="41" style="stroke:#000000;stroke-width:1" />
    <line x1="330" y1="37" x2="330" y2="41" style="stroke:#000000;stroke-width:1" />
    <line x1="326" y1="37" x2="326" y2="41" style="stroke:#000000;stroke-width:1" />
    <line x1="323" y1="37" x2="323" y2="41" style="stroke:#000000;stroke-width:1" />
    <line x1="319" y1="37" x2="319" y2="41" style="stroke:#000000;stroke-width:1" />
    <line x1="319" y1="37" x2="319" y2="45" style="stroke:#000000;stroke-width:1" />
    <line x1="315" y1="37" x2="315" y2="41" style="stroke:#000000;stroke-width:1" />
    <line x1="311" y1="37" x2="311" y2="41" style="stroke:#000000;stroke-width:1" />
    <line x1="308" y1="37" x2="308" y2="41" style="stroke:#000000;stroke-width:1" />
    <line x1="304" y1="37" x2="304" y2="41" style="stroke:#000000;stroke-width:1" />
    <line x1="300" y1="37" x2="300" y2="45" style="stroke:#000000;stroke-width:1" />
    <line x1="296" y1="37" x2="296" y2="41" style="stroke:#000000;stroke-width:1" />
    <line x1="292" y1="37" x2="292" y2="41" style="stroke:#000000;stroke-width:1" />
    <line x1="289" y1="37" x2="289" y2="41" style="stroke:#000000;stroke-width:1" />
    <line x1="285" y1="37" x2="285" y2="41" style="stroke:#000000;stroke-width:1" />
    <line x1="281" y1="37" x2="281" y2="41" style="stroke:#000000;stroke-width:1" />
    <line x1="281" y1="37" x2="281" y2="45" style="stroke:#000000;stroke-width:1" />
    <line x1="277" y1="37" x2="277" y2="41" style="stroke:#000000;stroke-width:1" />
    <line x1="274" y1="37" x2="274" y2="41" style="stroke:#000000;stroke-width:1" />
    <line x1="270" y1="37" x2="270" y2="41" style="stroke:#000000;stroke-width:1" />
    <line x1="266" y1="37" x2="266" y2="41" style="stroke:#000000;stroke-width:1" />
    <line x1="262" y1="37" x2="262" y2="45" style="stroke:#000000;stroke-width:1" />
    <line x1="259" y1="37" x2="259" y2="41" style="stroke:#000000;stroke-width:1" />
    <line x1="255" y1="37" x2="255" y2="41" style="stroke:#000000;stroke-width:1" />
    <line x1="251" y1="37" x2="251" y2="41" style="stroke:#000000;stroke-width:1" />
    <line x1="247" y1="37" x2="247" y2="41" style="stroke:#000000;stroke-width:1" />
    <line x1="244" y1="37" x2="244" y2="41" style="stroke:#000000;stroke-width:1" />
    <line x1="244" y1="37" x2="244" y2="45" style="stroke:#000000;stroke-width:1" />
    <line x1="240" y1="37" x2="240" y2="41" style="stroke:#000000;stroke-width:1" />
    <line x1="236" y1="37" x2="236" y2="41" style="stroke:#000000;stroke-width:1" />
    <line x1="232" y1="37" x2="232" y2="41" style="stroke:#000000;stroke-width:1" />
    <line x1="229" y1="37" x2="229" y2="41" style="stroke:#000000;stroke-width:1" />
    <line x1="225" y1="37" x2="225" y2="45" style="stroke:#000000;stroke-width:1" />
    <line x1="221" y1="37" x2="221" y2="41" style="stroke:#000000;stroke-width:1" />
    <line x1="217" y1="37" x2="217" y2="41" style="stroke:#000000;stroke-width:1" />
    <line x1="214" y1="37" x2="214" y2="41" style="stroke:#000000;stroke-width:1" />
    <line x1="210" y1="37" x2="210" y2="41" style="stroke:#000000;stroke-width:1" />
    <line x1="206" y1="37" x2="206" y2="41" style="stroke:#000000;stroke-width:1" />
    <line x1="206" y1="37" x2="206" y2="45" style="stroke:#000000;stroke-width:1" />
    <line x1="202" y1="37" x2="202" y2="41" style="stroke:#000000;stroke-width:1" />
    <line x1="199" y1="37" x2="199" y2="41" style="stroke:#000000;stroke-width:1" />
    <line x1="195" y1="37" x2="195" y2="41" style="stroke:#000000;stroke-width:1" />
    <line x1="191" y1="37" x2="191" y2="41" style="stroke:#000000;stroke-width:1" />
    <line x1="187" y1="37" x2="187" y2="45" style="stroke:#000000;stroke-width:1" />
    <line x1="184" y1="37" x2="184" y2="41" style="stroke:#000000;stroke-width:1" />
    <line x1="180" y1="37" x2="180" y2="41" style="stroke:#000000;stroke-width:1" />
    <line x1="176" y1="37" x2="176" y2="41" style="stroke:#000000;stroke-width:1" />
    <line x1="172" y1="37" x2="172" y2="41" style="stroke:#000000;stroke-width:1" />
    <line x1="169" y1="37" x2="169" y2="41" style="stroke:#000000;stroke-width:1" />
    <line x1="169" y1="37" x2="169" y2="45" style="stroke:#000000;stroke-width:1" />
    <line x1="165" y1="37" x2="165" y2="41" style="stroke:#000000;stroke-width:1" />
    <line x1="161" y1="37" x2="161" y2="41" style="stroke:#000000;stroke-width:1" />
    <line x1="157" y1="37" x2="157" y2="41" style="stroke:#000000;stroke-width:1" />
    <line x1="153" y1="37" x2="153" y2="41" style="stroke:#000000;stroke-width:1" />
    <line x1="150" y1="37" x2="150" y2="45" style="stroke:#000000;stroke-width:1" />
    <line x1="146" y1="37" x2="146" y2="41" style="stroke:#000000;stroke-width:1" />
    <line x1="142" y1="37" x2="142" y2="41" style="stroke:#000000;stroke-width:1" />
    <line x1="138" y1="37" x2="138" y2="41" style="stroke:#000000;stroke-width:1" />
    <line x1="135" y1="37" x2="135" y2="41" style="stroke:#000000;stroke-width:1" />
    <line x1="131" y1="37" x2="131" y2="41" style="stroke:#000000;stroke-width:1" />
    <line x1="131" y1="37" x2="131" y2="45" style="stroke:#000000;stroke-width:1" />
    <line x1="127" y1="37" x2="127" y2="41" style="stroke:#000000;stroke-width:1" />
    <line x1="123" y1="37" x2="123" y2="41" style="stroke:#000000;stroke-width:1" />
    <line x1="120" y1="37" x2="120" y2="41" style="stroke:#000000;stroke-width:1" />
    <line x1="116" y1="37" x2="116" y2="41" style="stroke:#000000;stroke-width:1" />
    <line x1="112" y1="37" x2="112" y2="45" style="stroke:#000000;stroke-width:1" />
    <line x1="108" y1="37" x2="108" y2="41" style="stroke:#000000;stroke-width:1" />
    <line x1="105" y1="37" x2="105" y2="41" style="stroke:#000000;stroke-width:1" />
    <line x1="101" y1="37" x2="101" y2="41" style="stroke:#000000;stroke-width:1" />
    <line x1="97" y1="37" x2="97" y2="41" style="stroke:#000000;stroke-width:1" />
    <line x1="93" y1="37" x2="93" y2="41" style="stroke:#000000;stroke-width:1" />
    <line x1="93" y1="37" x2="93" y2="45" style="stroke:#000000;stroke-width:1" />
    <line x1="90" y1="37" x2="90" y2="41" style="stroke:#000000;stroke-width:1" />
    <line x1="86" y1="37" x2="86" y2="41" style="stroke:#000000;stroke-width:1" />
    <line x1="82" y1="37" x2="82" y2="41" style="stroke:#000000;stroke-width:1" />
    <line x1="78" y1="37" x2="78" y2="41" style="stroke:#000000;stroke-width:1" />
    <line x1="75" y1="37" x2="75" y2="45" style="stroke:#000000;stroke-width:1" />
    <line x1="71" y1="37" x2="71" y2="41" style="stroke:#000000;stroke-width:1" />
    <line x1="67" y1="37" x2="67" y2="41" style="stroke:#000000;stroke-width:1" />
    <line x1="63" y1="37" x2="63" y2="41" style="stroke:#000000;stroke-width:1" />
    <line x1="60" y1="37" x2="60" y2="41" style="stroke:#000000;stroke-width:1" />
    <line x1="56" y1="37" x2="56" y2="41" style="stroke:#000000;stroke-width:1" />
    <line x1="56" y1="37" x2="56" y2="45" style="stroke:#000000;stroke-width:1" />
    <line x1="52" y1="37" x2="52" y2="41" style="stroke:#000000;stroke-width:1" />
    <line x1="48" y1="37" x2="48" y2="41" style="stroke:#000000;stroke-width:1" />
    <line x1="45" y1="37" x2="45" y2="41" style="stroke:#000000;stroke-width:1" />
    <line x1="41" y1="37" x2="41" y2="41" style="stroke:#000000;stroke-width:1" />
    <line x1="37" y1="37" x2="37" y2="45" style="stroke:#000000;stroke-width:1" />
    <line x1="33" y1="37" x2="33" y2="41" style="stroke:#000000;stroke-width:1" />
    <line x1="30" y1="37" x2="30" y2="41" style="stroke:#000000;stroke-width:1" />
    <line x1="26" y1="37" x2="26" y2="41" style="stroke:#000000;stroke-width:1" />
    <line x1="22" y1="37" x2="22" y2="41" style="stroke:#000000;stroke-width:1" />
    <line x1="18" y1="37" x2="18" y2="41" style="stroke:#000000;stroke-width:1" />
    <line x1="18" y1="37" x2="26" y2="37" style="stroke:#000000;stroke-width:1" />
    <line x1="18" y1="41" x2="22" y2="41" style="stroke:#000000;stroke-width:1" />
    <line x1="18" y1="45" x2="22" y2="45" style="stroke:#000000;stroke-width:1" />
    <line x1="18" y1="49" x2="22" y2="49" style="stroke:#000000;stroke-width:1" />
    <line x1="18" y1="52" x2="22" y2="52" style="stroke:#000000;stroke-width:1" />
    <line x1="18" y1="56" x2="26" y2="56" style="stroke:#000000;stroke-width:1" />
    <line x1="18" y1="60" x2="22" y2="60" style="stroke:#000000;stroke-width:1" />
    <line x1="18" y1="64" x2="22" y2="64" style="stroke:#000000;stroke-width:1" />
    <line x1="18" y1="67" x2="22" y2="67" style="stroke:#000000;stroke-width:1" />
    <line x1="18" y1="71" x2="22" y2="71" style="stroke:#000000;stroke-width:1" />
    <line x1="18" y1="75" x2="22" y2="75" style="stroke:#000000;stroke-width:1" />
    <line x1="18" y1="75" x2="26" y2="75" style="stroke:#000000;stroke-width:1" />
    <line x1="18" y1="79" x2="22" y2="79" style="stroke:#000000;stroke-width:1" />
    <line x1="18" y1="83" x2="22" y2="83" style="stroke:#000000;stroke-width:1" />
    <line x1="18" y1="86" x2="22" y2="86" style="stroke:#000000;stroke-width:1" />
    <line x1="18" y1="90" x2="22" y2="90" style="stroke:#000000;stroke-width:1" />
    <line x1="18" y1="94" x2="26" y2="94" style="stroke:#000000;stroke-width:1" />
    <line x1="18" y1="98" x2="22" y2="98" style="stroke:#000000;stroke-width:1" />
    <line x1="18" y1="101" x2="22" y2="101" style="stroke:#000000;stroke-width:1" />
    <line x1="18" y1="105" x2="22" y2="105" style="stroke:#000000;stroke-width:1" />
    <line x1="18" y1="109" x2="22" y2="109" style="stroke:#000000;stroke-width:1" />
    <line x1="18" y1="113" x2="22" y2="113" style="stroke:#000000;stroke-width:1" />
    <line x1="18" y1="75" x2="56" y2="75" style="stroke:#000000;stroke-width:1" />
    <line x1="56" y1="75" x2="93" y2="75" style="stroke:#000000;stroke-width:1" />
    <line x1="93" y1="75" x2="131" y2="75" style="stroke:#000000;stroke-width:1" />
    <line x1="131" y1="75" x2="169" y2="75" style="stroke:#000000;stroke-width:1" />
    <line x1="169" y1="75" x2="206" y2="75" style="stroke:#000000;stroke-width:1" />
    <line x1="206" y1="75" x2="244" y2="75" style="stroke:#000000;stroke-width:1" />
    <line x1="244" y1="75" x2="281" y2="75" style="stroke:#000000;stroke-width:1" />
    <line x1="281" y1="75" x2="319" y2="75" style="stroke:#000000;stroke-width:1" />
    <line x1="319" y1="75" x2="356" y2="75" style="stroke:#000000;stroke-width:1" />
    <line x1="356" y1="75" x2="394" y2="75" style="stroke:#000000;stroke-width:1" />
    <line x1="394" y1="75" x2="431" y2="75" style="stroke:#000000;stroke-width:1" />
    <line x1="431" y1="75" x2="469" y2="75" style="stroke:#000000;stroke-width:1" />
    <line x1="469" y1="75" x2="507" y2="75" style="stroke:#000000;stroke-width:1" />
    <line x1="507" y1="75" x2="544" y2="75" style="stroke:#000000;stroke-width:1" />
    <line x1="544" y1="75" x2="582" y2="75" style="stroke:#000000;stroke-width:1" />
    <line x1="544" y1="75" x2="544" y2="37" style="stroke:#000000;stroke-width:1" />
    <line x1="507" y1="75" x2="507" y2="37" style="stroke:#000000;stroke-width:1" />
    <line x1="469" y1="75" x2="469" y2="37" style="stroke:#000000;stroke-width:1" />
    <line x1="431" y1="75" x2="431" y2="37" style="stroke:#000000;stroke-width:1" />
    <line x1="394" y1="75" x2="394" y2="37" style="stroke:#000000;stroke-width:1" />
    <line x1="356" y1="75" x2="356" y2="37" style="stroke:#000000;stroke-width:1" />
    <line x1="319" y1="75" x2="319" y2="37" style="stroke:#000000;stroke-width:1" />
    <line x1="281" y1="75" x2="281" y2="37" style="stroke:#000000;stroke-width:1" />
    <line x1="244" y1="75" x2="244" y2="37" style="stroke:#000000;stroke-width:1" />
    <line x1="206" y1="75" x2="206" y2="37" style="stroke:#000000;stroke-width:1" />
    <line x1="169" y1="75" x2="169" y2="37" style="stroke:#000000;stroke-width:1" />
    <line x1="131" y1="75" x2="131" y2="37" style="stroke:#000000;stroke-width:1" />
    <line x1="93" y1="75" x2="93" y2="37" style="stroke:#000000;stroke-width:1" />
    <line x1="56" y1="75" x2="56" y2="37" style="stroke:#000000;stroke-width:1" />
	<path d = "M18 37 L56 37 L93 37 L131 37 L169 37 L206 37 L244 37 L281 37 L319 37 L356 37 L394 37 L431 37 L469 37 L507 37 L544 37 L582 37 L582 75 L582 113 L544 113 L507 113 L469 113 L431 113 L394 113 L356 113 L319 113 L281 113 L244 113 L206 113 L169 113 L131 113 L93 113 L56 113 L18 113 L18 75 L18 37 Z" stroke = "#ff0000" stroke-width = "1" fill = "none" />    <circle cx="206" cy = "75" r = "4.695717505634861" stroke = "#000000" stroke-width = "1" fill = "#000000" />
    <circle cx="394" cy = "75" r = "4.695717505634861" stroke = "#000000" stroke-width = "1" fill = "#000000" />
</svg>