<svg width="600" height="600" viewbox = "0 0 600 600"  xmlns="http://www.w3.org/2000/svg">
<!--<json>{
  "glyph": "0336,0336,0330,0337,0332,0332,0332,0330,0332,0330,0321,01304,01313,01333,01200,01334,01306,01335,01362,0331,0332,0332,0332,0332,0332,0332,0332,0332,0336,0331,0332,0337,01203,01334,01334,01203,01364,01335,01335,01335,01350,0331,0332,0332,0332,0332,0332,0332,0332,0332,0332,0336,0331,0337,01335,01312,01336,01330,01334,01334,01342,01335,01335,0331,0332,0332,0332,0332,0332,0332,0332,0332,0332,0336,0331,0337,01335,01335,01342,01335,01335,01335,01335,01342,01335,0331,0332,0332,0332,0332,0332,0332,0332,0332,0332,0336,0331,0337,01335,01331,01335,01335,01337,01304,01313,0336,0330,0333,0336,0341,",
  "x0": 300,
  "y0": 300,
  "unit": 121.00000000000003,
  "width": 600,
  "height": 600,
  "style": {
    "color0": "black",
    "fill0": "black",
    "line0": 1,
    "color1": "black",
    "fill1": "black",
    "line1": 5,
    "color2": "black",
    "fill2": "red",
    "line2": 2,
    "color3": "black",
    "fill3": "#FF7900",
    "line3": 2,
    "color4": "black",
    "fill4": "yellow",
    "line4": 2,
    "color5": "black",
    "fill5": "green",
    "line5": 2,
    "color6": "black",
    "fill6": "blue",
    "line6": 2,
    "color7": "black",
    "fill7": "purple",
    "line7": 2
  },
  "shapes": [
    "0220:0336,0336,0336,0330,0332,0337,0337,0362,0203,0336,0203,0334,0203,0203,0203,0203,0203,0203,0203,0334,0203,0203,0203,0334,0203,0203,0203,0203,0203,0203,0203,0363,0334,0336,0331,0333,0337,0337,0337,",
    "0221:0333,0333,0336,0336,0336,0330,0332,0337,0337,0362,0203,0336,0203,0334,0203,0203,0203,0203,0203,0203,0203,0334,0203,0203,0203,0334,0203,0203,0203,0203,0203,0203,0203,0363,0334,0336,0331,0333,0337,0337,0337,0332,0332,",
    "0222:0333,0331,0336,0336,0336,0330,0332,0337,0337,0362,0203,0336,0203,0334,0203,0203,0203,0203,0203,0203,0203,0334,0203,0203,0203,0334,0203,0203,0203,0203,0203,0203,0203,0363,0334,0336,0331,0333,0337,0337,0337,0330,0332,",
    "0223:0333,0336,0336,0336,0330,0332,0337,0337,0362,0203,0336,0203,0334,0203,0203,0203,0203,0203,0203,0203,0334,0203,0203,0203,0334,0203,0203,0203,0203,0203,0203,0203,0363,0334,0336,0331,0333,0337,0337,0337,0332,",
    "0224:0336,0336,0350,0334,0310,0337,0362,0203,0335,0335,0335,0336,0313,0337,0305,0311,0334,0337,0203,0363,0335,0335,0362,0203,0335,0335,0350,0334,0336,0313,0336,0304,0350,0310,0337,0334,0203,0364,0335,0335,0335,0335,0336,0334,0313,0304,0337,0337,0335,",
    "0225:0220,0210,0224,0224,0224,0224,0211,0331,0336,0331,0332,01015,0155,0141,0160,0365,0330,0330,0330,0333,0337,",
    "0226:0220,0336,0331,0334,0336,0330,0337,0321,0336,0362,0203,0335,0203,0203,0203,0203,0203,0335,0203,0203,0203,0203,0335,0203,0203,0203,0203,0203,0335,0203,0364,0330,0334,0331,0337,0201,0335,0336,0350,0334,0331,0362,0203,0335,0335,0203,0364,0331,0335,0313,0304,0337,0330,0336,0330,0337,0337,0320,0331,0336,0331,0332,01015,0163,0141,0166,0145,0365,0330,0330,0330,0333,0337,",
    "0227:0304,0350,0335,0313,0304,0322,0336,0336,0336,0330,0332,0337,0337,0362,0203,0335,0336,0203,0335,0337,0203,0334,0203,0335,0336,0203,0335,0337,0203,0334,0203,0335,0336,0203,0335,0337,0203,0334,0203,0335,0336,0203,0335,0337,0203,0363,0320,0336,0334,0336,0333,0331,0337,0337,0337,0350,0334,0304,0220,0331,0336,0331,0332,0336,0332,0337,01015,0144,0145,0154,0145,0164,0145,0365,0336,0333,0337,0330,0330,0330,0333,0337,",
    "0230:0313,0334,0336,0330,0335,0335,0305,0334,0337,0311,0337,0362,0203,0335,0335,0203,0335,0350,0335,0336,0203,0363,0313,0336,0331,0304,0335,0337,",
    "0231:0321,0342,0330,0320,0336,0230,0331,0331,0337,0350,0335,0304,",
    "0232:0231,0231,0231,0231,0231,0231,0231,0231,",
    "0233:0220,0336,0210,0232,",
    "0234:0220,0336,0335,0335,0331,0335,0331,0337,0321,0342,0332,0342,0336,0333,0337,0342,0330,0336,0336,0336,0330,0337,0366,0332,0332,0332,0367,0350,0335,0306,0350,0320,0335,0362,0203,0334,0334,0334,0334,0203,0334,0334,0334,0334,0203,0363,0335,0304,0350,0335,0304,0335,0335,0331,0331,0332,01015,0145,0154,0145,0155,0145,0156,0164,040,0144,0157,0167,0156,0365,0330,0330,0330,0330,0330,0333,0333,0333,0336,0332,0337,0333,0337,0337,",
    "0235:0220,0321,0336,0342,0335,0342,0335,0342,0335,0342,0335,0337,",
    "0236:0321,0220,0335,0336,0321,0342,0335,0335,0342,0335,0337,",
    "0237:0220,0336,0331,0332,0336,0321,0342,0335,0342,0335,0342,0335,0342,0335,0330,0330,0333,0333,0337,0337,",
    "01220:0333,0200,0336,0330,0332,0342,0334,0342,0334,0342,0334,0342,0334,0334,0335,0336,0220,0331,0331,0333,0333,0337,0337,",
    "01221:0333,0200,0336,0330,0332,0342,0335,0342,0335,0342,0335,0342,0335,0336,0221,0337,0331,0333,0337,",
    "01222:0333,0200,0336,0330,0332,0336,0222,0337,0342,0335,0342,0335,0342,0335,0342,0335,0331,0333,0337,",
    "01223:0333,0200,0336,0330,0332,0342,0335,0342,0335,0342,0335,0342,0335,0336,0223,0337,0331,0333,0337,",
    "01224:0333,0200,0336,0330,0332,0336,0332,060,062,062,064,0365,0333,0333,0331,0331,0333,0337,0337,",
    "01225:0333,0200,0336,0330,0332,0336,0332,060,062,062,065,0365,0333,0333,0331,0331,0333,0337,0337,",
    "01226:0333,0200,0336,0330,0332,0336,0332,060,062,062,066,0365,0333,0333,0331,0331,0333,0337,0337,",
    "01227:0333,0200,0336,0330,0332,0336,0332,060,062,062,067,0365,0333,0333,0331,0331,0333,0337,0337,",
    "01230:0333,0200,0336,0330,0332,0336,0332,060,062,063,060,0365,0333,0333,0331,0331,0333,0337,0337,",
    "01231:0333,0200,0336,0330,0332,0336,0332,060,062,063,061,0365,0333,0333,0331,0331,0333,0337,0337,",
    "01232:0333,0200,0336,0330,0332,0336,0332,060,062,063,062,0365,0333,0333,0331,0331,0333,0337,0337,",
    "01233:0333,0200,0336,0330,0332,0336,0332,060,062,063,063,0365,0333,0333,0331,0331,0333,0337,0337,",
    "01234:0333,0200,0336,0330,0332,0336,0332,060,062,063,064,0365,0333,0333,0331,0331,0333,0337,0337,",
    "01235:0333,0200,0336,0330,0332,0336,0332,060,062,063,065,0365,0333,0333,0331,0331,0333,0337,0337,",
    "01236:0333,0200,0336,0330,0332,0336,0332,060,062,063,066,0365,0333,0333,0331,0331,0333,0337,0337,",
    "01237:0333,0200,0336,0330,0332,0336,0332,060,062,063,067,0365,0333,0333,0331,0331,0333,0337,0337,",
    "0240:0220,0336,0331,0333,0336,0321,0335,0342,0335,0335,0342,0335,0330,0330,0332,0332,0337,0337,",
    "01240:0333,0200,0336,0330,0332,0210,0240,0211,0333,0331,0337,",
    "0241:0220,0336,0321,0343,0332,0350,0335,0336,0342,0334,0334,0342,0335,0304,0337,0333,0337,",
    "01241:0333,0200,0336,0332,0330,0210,0241,0211,0333,0331,0337,",
    "0242:0220,0321,0336,0343,0333,0336,0350,0335,0342,0334,0334,0342,0335,0337,0304,0332,0337,",
    "01242:0333,0200,0336,0330,0332,0210,0242,0211,0333,0331,0337,",
    "0243:0220,0336,0331,0332,0336,0321,0343,0332,0350,0334,0336,0342,0335,0335,0342,0337,0334,0334,0335,0304,0332,0330,0330,0337,0337,0333,",
    "01243:0333,0200,0336,0330,0332,0210,0243,0211,0333,0331,0337,",
    "0244:0220,0336,0331,0333,0336,0321,0343,0333,0350,0336,0335,0342,0334,0334,0342,0335,0337,0304,0333,0330,0330,0337,0337,0332,",
    "01244:0333,0200,0336,0330,0332,0210,0244,0211,0333,0331,0337,",
    "0245:0210,0332,0332,0362,0335,0203,0203,0203,0203,0334,0203,0363,0332,0332,0331,0211,",
    "01245:0333,0200,0336,0330,0332,0336,0245,0337,0333,0331,0337,",
    "0246:0210,0332,0332,0335,0306,0336,0330,0335,0335,0335,0321,0362,0203,0335,0335,0203,0364,0331,0350,0335,0337,0366,0333,0333,0333,0333,0334,0334,0334,0334,0367,0335,0336,0342,0334,0334,0342,0330,0330,0330,0330,0335,0335,0335,0304,0337,0211,",
    "01246:0333,0200,0336,0330,0332,0336,0246,",
    "0247:0330,0332,0336,0332,0336,0221,0333,0333,0333,0222,0333,0333,0333,0223,0333,0333,0333,0225,0333,0331,0331,0331,0332,0332,0332,0332,0332,0332,0332,0332,0332,0332,0332,0332,0333,0333,0226,0331,0331,0331,0333,0333,0333,0333,0333,0333,0333,0333,0333,0333,0333,0333,0333,0330,0333,0330,0330,0333,0330,0331,0332,0332,0332,0332,0332,0332,0332,0332,0332,0332,0332,0332,0227,0333,0333,0333,0230,0333,0331,0331,0331,0331,0332,0332,0332,0330,0332,0332,0332,0332,0332,0332,0333,0333,0231,0333,0333,0333,0232,0331,0333,0330,0333,0333,0233,0333,0333,0333,0234,0330,0330,0332,0330,0332,0332,0337,0337,",
    "01247:0333,0200,0336,0330,0332,0220,0336,0247,0337,0331,0333,0337,"
  ]
}</json>-->	<path d = "M119 149 L119 88 L58 88 L58 149 L118 149 Z" stroke = "#000000" stroke-width = "5" fill = "none" /><circle cx="88" cy = "119" r = "30.250000000000007" stroke = "#000000" stroke-width = "5" fill = "none" />
    <line x1="88" y1="119" x2="88" y2="88" style="stroke:#000000;stroke-width:5" />
    <line x1="88" y1="119" x2="119" y2="119" style="stroke:#000000;stroke-width:5" />
    <line x1="88" y1="119" x2="88" y2="149" style="stroke:#000000;stroke-width:5" />
    <line x1="88" y1="119" x2="58" y2="119" style="stroke:#000000;stroke-width:5" />
<circle cx="78" cy = "108" r = "7.562500000000002" stroke = "#000000" stroke-width = "5" fill = "none" />
<circle cx="99" cy = "108" r = "7.562500000000002" stroke = "#000000" stroke-width = "5" fill = "none" />
<circle cx="99" cy = "129" r = "7.562500000000002" stroke = "#000000" stroke-width = "5" fill = "none" />
<circle cx="78" cy = "129" r = "7.562500000000002" stroke = "#000000" stroke-width = "5" fill = "none" />
	<path d = "M179 149 L179 88 L118 88 L118 149 L179 149 Z" stroke = "#000000" stroke-width = "5" fill = "none" />	<path d = "M164 134 L164 119 L149 119 L134 119 L134 134 L149 134 L164 134 Z" stroke = "#000000" stroke-width = "5" fill = "none" />    <line x1="149" y1="134" x2="149" y2="119" style="stroke:#000000;stroke-width:5" />
	<path d = "M240 149 L240 88 L179 88 L179 149 L240 149 Z" stroke = "#000000" stroke-width = "5" fill = "none" />	<path d = "M194 126 L194 111 L209 111 L209 103 L217 111 L224 119 L217 126 L209 134 L209 126 L194 126 Z" stroke = "#000000" stroke-width = "5" fill = "none" />	<path d = "M300 149 L300 88 L240 88 L239 149 L300 149 Z" stroke = "#000000" stroke-width = "5" fill = "none" />	<path d = "M285 134 L285 103 L255 103 L255 134 L285 134 Z" stroke = "#000000" stroke-width = "5" fill = "none" />	<path d = "M360 149 L361 88 L300 88 L300 149 L361 149 Z" stroke = "#000000" stroke-width = "5" fill = "none" />  <path d="M319.55500993455337 107.80500993455395           A15.125000000000005 15.125000000000005 0 0 1 340.94499006544646 107.80500993455394" fill = "none" stroke = "#000000" stroke-width = "5" />
  <path d="M319.5550099345534 129.19499006544703           A15.125000000000005 15.125000000000005 0 0 1 319.55500993455337 107.80500993455395" fill = "none" stroke = "#000000" stroke-width = "5" />
  <path d="M340.9449900654465 129.19499006544694           A15.125000000000005 15.125000000000005 0 0 1 319.5550099345534 129.19499006544703" fill = "none" stroke = "#000000" stroke-width = "5" />
	<path d = "M335 143 L341 129 L327 123 " stroke = "#000000" stroke-width = "5" fill = "none" />	<path d = "M421 149 L421 88 L360 88 L361 149 L421 149 Z" stroke = "#000000" stroke-width = "5" fill = "none" />    <line x1="391" y1="119" x2="391" y2="88" style="stroke:#000000;stroke-width:5" />
    <line x1="391" y1="119" x2="417" y2="103" style="stroke:#000000;stroke-width:5" />
    <line x1="391" y1="119" x2="417" y2="134" style="stroke:#000000;stroke-width:5" />
    <line x1="391" y1="119" x2="391" y2="149" style="stroke:#000000;stroke-width:5" />
    <line x1="391" y1="119" x2="365" y2="134" style="stroke:#000000;stroke-width:5" />
<circle cx="391" cy = "119" r = "30.25000000000001" stroke = "#000000" stroke-width = "5" fill = "none" />
<circle cx="383" cy = "105" r = "3.7812500000000013" stroke = "#000000" stroke-width = "5" fill = "none" />
<circle cx="398" cy = "105" r = "3.7812500000000013" stroke = "#000000" stroke-width = "5" fill = "none" />
<circle cx="406" cy = "118" r = "3.7812500000000013" stroke = "#000000" stroke-width = "5" fill = "none" />
<circle cx="398" cy = "132" r = "3.7812500000000013" stroke = "#000000" stroke-width = "5" fill = "none" />
<circle cx="383" cy = "132" r = "3.7812500000000013" stroke = "#000000" stroke-width = "5" fill = "none" />
    <line x1="391" y1="119" x2="365" y2="103" style="stroke:#000000;stroke-width:5" />
<circle cx="376" cy = "119" r = "3.7812500000000013" stroke = "#000000" stroke-width = "5" fill = "none" />
	<path d = "M482 149 L481 88 L421 88 L421 149 L482 149 Z" stroke = "#000000" stroke-width = "5" fill = "none" />  <path d="M461.9449900654466 129.19499006544484           A15.125000000000005 15.125000000000005 0 0 1 440.5550099345535 129.19499006544538" fill = "none" stroke = "#000000" stroke-width = "5" />
  <path d="M440.5550099345535 129.19499006544538           A15.125000000000005 15.125000000000005 0 0 1 440.55500993455297 107.8050099345523" fill = "none" stroke = "#000000" stroke-width = "5" />
  <path d="M440.55500993455297 107.8050099345523           A15.125000000000005 15.125000000000005 0 0 1 461.94499006544606 107.80500993455183" fill = "none" stroke = "#000000" stroke-width = "5" />
	<path d = "M448 114 L462 108 L456 94 " stroke = "#000000" stroke-width = "5" fill = "none" />	<path d = "M542 149 L542 88 L481 88 L482 149 L542 149 Z" stroke = "#000000" stroke-width = "5" fill = "none" /><circle cx="497" cy = "134" r = "5" stroke = "#000000" stroke-width = "5" fill = "#000000" />
	<path d = "M497 134 L497 103 L527 103 " stroke = "#000000" stroke-width = "5" fill = "none" />	<path d = "M516 93 L527 103 L516 114 " stroke = "#000000" stroke-width = "5" fill = "none" />    <line x1="28" y1="240" x2="38" y2="229" style="stroke:#000000;stroke-width:5" />
    <line x1="43" y1="240" x2="54" y2="229" style="stroke:#000000;stroke-width:5" />
    <line x1="58" y1="240" x2="69" y2="229" style="stroke:#000000;stroke-width:5" />
    <line x1="73" y1="240" x2="84" y2="229" style="stroke:#000000;stroke-width:5" />
	<path d = "M88 240 L88 179 L28 179 L28 240 L88 240 Z" stroke = "#000000" stroke-width = "5" fill = "none" />    <line x1="43" y1="209" x2="73" y2="209" style="stroke:#000000;stroke-width:5" />
    <line x1="73" y1="209" x2="68" y2="215" style="stroke:#000000;stroke-width:5" />
    <line x1="73" y1="209" x2="68" y2="204" style="stroke:#000000;stroke-width:5" />
	<path d = "M149 240 L149 179 L88 179 L88 240 L149 240 Z" stroke = "#000000" stroke-width = "5" fill = "none" />  <path d="M107.80500993455448 198.55500993455993           A15.125000000000005 15.125000000000005 0 0 1 129.19499006544757 198.55500993455962" fill = "none" stroke = "#000000" stroke-width = "5" />
  <path d="M107.80500993455483 219.94499006545303           A15.125000000000005 15.125000000000005 0 0 1 107.80500993455448 198.55500993455993" fill = "none" stroke = "#000000" stroke-width = "5" />
  <path d="M129.1949900654479 219.94499006545263           A15.125000000000005 15.125000000000005 0 0 1 107.80500993455483 219.94499006545303" fill = "none" stroke = "#000000" stroke-width = "5" />
	<path d = "M123 234 L129 220 L115 214 " stroke = "#000000" stroke-width = "5" fill = "none" />	<path d = "M209 240 L209 179 L149 179 L149 240 L209 240 Z" stroke = "#000000" stroke-width = "5" fill = "none" />  <path d="M168.30500993455442 198.555009934559           A15.125000000000005 15.125000000000005 0 0 1 189.6949900654475 198.55500993455837" fill = "none" stroke = "#000000" stroke-width = "5" />
  <path d="M168.30500993455507 219.9449900654521           A15.125000000000005 15.125000000000005 0 0 1 168.30500993455442 198.555009934559" fill = "none" stroke = "#000000" stroke-width = "5" />
  <path d="M189.69499006544817 219.94499006545138           A15.125000000000005 15.125000000000005 0 0 1 168.30500993455507 219.9449900654521" fill = "none" stroke = "#000000" stroke-width = "5" />
	<path d = "M184 234 L190 220 L176 214 " stroke = "#000000" stroke-width = "5" fill = "none" />    <line x1="209" y1="240" x2="220" y2="229" style="stroke:#000000;stroke-width:5" />
    <line x1="224" y1="240" x2="235" y2="229" style="stroke:#000000;stroke-width:5" />
    <line x1="240" y1="240" x2="250" y2="229" style="stroke:#000000;stroke-width:5" />
    <line x1="255" y1="240" x2="265" y2="229" style="stroke:#000000;stroke-width:5" />
	<path d = "M270 240 L270 179 L209 179 L209 240 L270 240 Z" stroke = "#000000" stroke-width = "5" fill = "none" />    <line x1="224" y1="209" x2="255" y2="209" style="stroke:#000000;stroke-width:5" />
    <line x1="255" y1="209" x2="249" y2="215" style="stroke:#000000;stroke-width:5" />
    <line x1="255" y1="209" x2="249" y2="204" style="stroke:#000000;stroke-width:5" />
	<path d = "M330 240 L330 179 L270 179 L270 240 L330 240 Z" stroke = "#000000" stroke-width = "5" fill = "none" />	<path d = "M285 194 L315 194 L315 224 " stroke = "#000000" stroke-width = "5" fill = "none" />	<path d = "M304 214 L315 224 L326 214 " stroke = "#000000" stroke-width = "5" fill = "none" /><circle cx="315" cy = "224" r = "5" stroke = "#000000" stroke-width = "5" fill = "#000000" />
	<path d = "M391 239 L391 179 L330 179 L330 240 L391 239 Z" stroke = "#000000" stroke-width = "5" fill = "none" />  <path d="M371.1949900654482 219.94499006544558           A15.125000000000005 15.125000000000005 0 0 1 349.80500993455513 219.94499006544643" fill = "none" stroke = "#000000" stroke-width = "5" />
  <path d="M349.80500993455513 219.94499006544643           A15.125000000000005 15.125000000000005 0 0 1 349.80500993455433 198.55500993455334" fill = "none" stroke = "#000000" stroke-width = "5" />
  <path d="M349.80500993455433 198.55500993455334           A15.125000000000005 15.125000000000005 0 0 1 371.1949900654474 198.55500993455257" fill = "none" stroke = "#000000" stroke-width = "5" />
	<path d = "M357 204 L371 199 L365 185 " stroke = "#000000" stroke-width = "5" fill = "none" />	<path d = "M451 239 L451 179 L391 179 L391 239 L451 239 Z" stroke = "#000000" stroke-width = "5" fill = "none" />  <path d="M431.69499006544805 219.94499006544345           A15.125000000000005 15.125000000000005 0 0 1 410.30500993455496 219.94499006544413" fill = "none" stroke = "#000000" stroke-width = "5" />
  <path d="M410.30500993455496 219.94499006544413           A15.125000000000005 15.125000000000005 0 0 1 410.3050099345543 198.55500993455107" fill = "none" stroke = "#000000" stroke-width = "5" />
  <path d="M410.3050099345543 198.55500993455107           A15.125000000000005 15.125000000000005 0 0 1 431.69499006544737 198.55500993455044" fill = "none" stroke = "#000000" stroke-width = "5" />
	<path d = "M418 204 L432 199 L426 185 " stroke = "#000000" stroke-width = "5" fill = "none" />	<path d = "M512 239 L512 179 L451 179 L451 239 L512 239 Z" stroke = "#000000" stroke-width = "5" fill = "none" />  <path d="M492.1949900654479 219.9449900654418           A15.125000000000005 15.125000000000005 0 0 1 470.8050099345548 219.94499006544234" fill = "none" stroke = "#000000" stroke-width = "5" />
  <path d="M470.8050099345548 219.94499006544234           A15.125000000000005 15.125000000000005 0 0 1 470.8050099345543 198.55500993454925" fill = "none" stroke = "#000000" stroke-width = "5" />
  <path d="M470.8050099345543 198.55500993454925           A15.125000000000005 15.125000000000005 0 0 1 492.19499006544737 198.55500993454876" fill = "none" stroke = "#000000" stroke-width = "5" />
	<path d = "M478 204 L492 199 L486 185 " stroke = "#000000" stroke-width = "5" fill = "none" />	<path d = "M572 239 L572 179 L512 179 L512 239 L572 239 Z" stroke = "#000000" stroke-width = "5" fill = "none" />	<path d = "M563 188 L542 209 L563 231 " stroke = "#000000" stroke-width = "5" fill = "none" />    <line x1="542" y1="209" x2="550" y2="209" style="stroke:#000000;stroke-width:5" />
    <line x1="557" y1="209" x2="565" y2="209" style="stroke:#000000;stroke-width:5" />
	<path d = "M88 330 L88 270 L28 270 L28 330 L88 330 Z" stroke = "#000000" stroke-width = "5" fill = "none" />  <path d="M68.6949900654497 310.69499006545203           A15.125000000000005 15.125000000000005 0 0 1 47.30500993455668 310.6949900654527" fill = "none" stroke = "#000000" stroke-width = "5" />
  <path d="M47.30500993455668 310.6949900654527           A15.125000000000005 15.125000000000005 0 0 1 47.305009934555876 289.3050099345597" fill = "none" stroke = "#000000" stroke-width = "5" />
  <path d="M47.305009934555876 289.3050099345597           A15.125000000000005 15.125000000000005 0 0 1 68.69499006544889 289.30500993455877" fill = "none" stroke = "#000000" stroke-width = "5" />
	<path d = "M55 295 L69 289 L63 275 " stroke = "#000000" stroke-width = "5" fill = "none" />	<path d = "M149 330 L149 270 L88 270 L88 330 L149 330 Z" stroke = "#000000" stroke-width = "5" fill = "none" />	<path d = "M149 330 L119 278 L88 330 " stroke = "#000000" stroke-width = "5" fill = "none" />    <line x1="119" y1="313" x2="119" y2="278" style="stroke:#000000;stroke-width:5" />
    <line x1="119" y1="313" x2="149" y2="330" style="stroke:#000000;stroke-width:5" />
    <line x1="119" y1="313" x2="88" y2="330" style="stroke:#000000;stroke-width:5" />
	<path d = "M209 330 L209 270 L149 270 L149 330 L209 330 Z" stroke = "#000000" stroke-width = "5" fill = "none" />    <line x1="194" y1="300" x2="164" y2="300" style="stroke:#000000;stroke-width:5" />
	<path d = "M270 330 L270 270 L209 270 L209 330 L270 330 Z" stroke = "#000000" stroke-width = "5" fill = "none" />	<path d = "M247 315 L232 315 L232 300 L224 300 L232 292 L240 285 L247 292 L255 300 L247 300 L247 315 Z" stroke = "#000000" stroke-width = "5" fill = "none" />	<path d = "M330 330 L330 270 L270 270 L270 330 L330 330 Z" stroke = "#000000" stroke-width = "5" fill = "none" />  <path d="M289.3050099345565 289.3050099345522           A15.125000000000007 15.125000000000007 0 0 1 310.6949900654495 289.3050099345511" fill = "none" stroke = "#000000" stroke-width = "5" />
  <path d="M289.30500993455746 310.69499006544515           A15.125000000000007 15.125000000000007 0 0 1 289.3050099345565 289.3050099345522" fill = "none" stroke = "#000000" stroke-width = "5" />
  <path d="M310.69499006545044 310.69499006544436           A15.125000000000007 15.125000000000007 0 0 1 289.30500993455746 310.69499006544515" fill = "none" stroke = "#000000" stroke-width = "5" />
	<path d = "M305 325 L311 311 L297 305 " stroke = "#000000" stroke-width = "5" fill = "none" />	<path d = "M391 330 L391 270 L330 270 L330 330 L391 330 Z" stroke = "#000000" stroke-width = "5" fill = "none" />  <path d="M349.8050099345562 289.30500993454956           A15.125000000000007 15.125000000000007 0 0 1 371.1949900654492 289.30500993454837" fill = "none" stroke = "#000000" stroke-width = "5" />
  <path d="M349.8050099345573 310.69499006544254           A15.125000000000007 15.125000000000007 0 0 1 349.8050099345562 289.30500993454956" fill = "none" stroke = "#000000" stroke-width = "5" />
  <path d="M371.19499006545027 310.6949900654416           A15.125000000000007 15.125000000000007 0 0 1 349.8050099345573 310.69499006544254" fill = "none" stroke = "#000000" stroke-width = "5" />
	<path d = "M365 325 L371 311 L357 305 " stroke = "#000000" stroke-width = "5" fill = "none" />	<path d = "M451 330 L451 270 L391 270 L391 330 L451 330 Z" stroke = "#000000" stroke-width = "5" fill = "none" />    <line x1="421" y1="300" x2="406" y2="300" style="stroke:#000000;stroke-width:5" />
<circle cx="406" cy = "300" r = "5" stroke = "#000000" stroke-width = "5" fill = "#000000" />
    <line x1="421" y1="300" x2="436" y2="300" style="stroke:#000000;stroke-width:5" />
<circle cx="436" cy = "300" r = "5" stroke = "#000000" stroke-width = "5" fill = "#000000" />
	<path d = "M512 330 L512 270 L451 270 L451 330 L512 330 Z" stroke = "#000000" stroke-width = "5" fill = "none" />  <path d="M492.1949900654504 310.6949900654341           A15.125000000000007 15.125000000000007 0 0 1 470.8050099345574 310.69499006543555" fill = "none" stroke = "#000000" stroke-width = "5" />
  <path d="M470.8050099345574 310.69499006543555           A15.125000000000007 15.125000000000007 0 0 1 470.80500993455587 289.30500993454257" fill = "none" stroke = "#000000" stroke-width = "5" />
  <path d="M470.80500993455587 289.30500993454257           A15.125000000000007 15.125000000000007 0 0 1 492.19499006544885 289.3050099345409" fill = "none" stroke = "#000000" stroke-width = "5" />
	<path d = "M478 295 L492 289 L486 275 " stroke = "#000000" stroke-width = "5" fill = "none" />	<path d = "M572 330 L572 270 L512 270 L512 330 L572 330 Z" stroke = "#000000" stroke-width = "5" fill = "none" />  <path d="M552.6949900654508 310.694990065429           A15.125000000000007 15.125000000000007 0 0 1 531.3050099345578 310.6949900654307" fill = "none" stroke = "#000000" stroke-width = "5" />
  <path d="M531.3050099345578 310.6949900654307           A15.125000000000007 15.125000000000007 0 0 1 531.3050099345559 289.3050099345377" fill = "none" stroke = "#000000" stroke-width = "5" />
  <path d="M531.3050099345559 289.3050099345377           A15.125000000000007 15.125000000000007 0 0 1 552.6949900654489 289.30500993453575" fill = "none" stroke = "#000000" stroke-width = "5" />
	<path d = "M539 295 L553 289 L547 275 " stroke = "#000000" stroke-width = "5" fill = "none" />	<path d = "M88 421 L88 361 L28 361 L28 421 L88 421 Z" stroke = "#000000" stroke-width = "5" fill = "none" />  <path d="M68.69499006545936 401.44499006547426           A15.125000000000007 15.125000000000007 0 0 1 47.30500993456635 401.4449900654763" fill = "none" stroke = "#000000" stroke-width = "5" />
  <path d="M47.30500993456635 401.4449900654763           A15.125000000000007 15.125000000000007 0 0 1 47.3050099345642 380.05500993458327" fill = "none" stroke = "#000000" stroke-width = "5" />
  <path d="M47.3050099345642 380.05500993458327           A15.125000000000007 15.125000000000007 0 0 1 68.6949900654572 380.055009934581" fill = "none" stroke = "#000000" stroke-width = "5" />
	<path d = "M55 386 L69 380 L63 366 " stroke = "#000000" stroke-width = "5" fill = "none" />	<path d = "M149 421 L149 361 L88 361 L88 421 L149 421 Z" stroke = "#000000" stroke-width = "5" fill = "none" />  <path d="M129.19499006545973 401.4449900654675           A15.125000000000007 15.125000000000007 0 0 1 107.80500993456673 401.4449900654698" fill = "none" stroke = "#000000" stroke-width = "5" />
  <path d="M107.80500993456673 401.4449900654698           A15.125000000000007 15.125000000000007 0 0 1 107.80500993456427 380.05500993457684" fill = "none" stroke = "#000000" stroke-width = "5" />
  <path d="M107.80500993456427 380.05500993457684           A15.125000000000007 15.125000000000007 0 0 1 129.1949900654573 380.0550099345743" fill = "none" stroke = "#000000" stroke-width = "5" />
	<path d = "M115 386 L129 380 L123 366 " stroke = "#000000" stroke-width = "5" fill = "none" />	<path d = "M209 421 L209 361 L149 361 L149 421 L209 421 Z" stroke = "#000000" stroke-width = "5" fill = "none" />    <line x1="179" y1="391" x2="164" y2="391" style="stroke:#000000;stroke-width:5" />
<circle cx="164" cy = "391" r = "5" stroke = "#000000" stroke-width = "5" fill = "#000000" />
    <line x1="179" y1="391" x2="194" y2="391" style="stroke:#000000;stroke-width:5" />
<circle cx="194" cy = "391" r = "5" stroke = "#000000" stroke-width = "5" fill = "#000000" />
	<path d = "M270 421 L270 361 L209 361 L209 421 L270 421 Z" stroke = "#000000" stroke-width = "5" fill = "none" />  <path d="M250.19499006545985 401.4449900654527           A15.125000000000007 15.125000000000007 0 0 1 228.80500993456684 401.44499006545504" fill = "none" stroke = "#000000" stroke-width = "5" />
  <path d="M228.80500993456684 401.44499006545504           A15.125000000000007 15.125000000000007 0 0 1 228.80500993456437 380.05500993456207" fill = "none" stroke = "#000000" stroke-width = "5" />
  <path d="M228.80500993456437 380.05500993456207           A15.125000000000007 15.125000000000007 0 0 1 250.19499006545738 380.0550099345595" fill = "none" stroke = "#000000" stroke-width = "5" />
	<path d = "M236 386 L250 380 L244 366 " stroke = "#000000" stroke-width = "5" fill = "none" />	<path d = "M330 421 L330 360 L270 361 L270 421 L330 421 Z" stroke = "#000000" stroke-width = "5" fill = "none" />  <path d="M310.6949900654598 401.44499006544544           A15.125000000000007 15.125000000000007 0 0 1 289.30500993456684 401.44499006544777" fill = "none" stroke = "#000000" stroke-width = "5" />
  <path d="M289.30500993456684 401.44499006544777           A15.125000000000007 15.125000000000007 0 0 1 289.3050099345644 380.0550099345548" fill = "none" stroke = "#000000" stroke-width = "5" />
  <path d="M289.3050099345644 380.0550099345548           A15.125000000000007 15.125000000000007 0 0 1 310.6949900654574 380.05500993455223" fill = "none" stroke = "#000000" stroke-width = "5" />
	<path d = "M297 386 L311 380 L305 366 " stroke = "#000000" stroke-width = "5" fill = "none" />	<path d = "M391 421 L391 360 L330 360 L330 421 L391 421 Z" stroke = "#000000" stroke-width = "5" fill = "none" />  <path d="M371.1949900654598 401.44499006543816           A15.125000000000007 15.125000000000007 0 0 1 349.80500993456684 401.4449900654405" fill = "none" stroke = "#000000" stroke-width = "5" />
  <path d="M349.80500993456684 401.4449900654405           A15.125000000000007 15.125000000000007 0 0 1 349.8050099345644 380.0550099345475" fill = "none" stroke = "#000000" stroke-width = "5" />
  <path d="M349.8050099345644 380.0550099345475           A15.125000000000007 15.125000000000007 0 0 1 371.1949900654574 380.05500993454496" fill = "none" stroke = "#000000" stroke-width = "5" />
	<path d = "M357 386 L371 380 L365 366 " stroke = "#000000" stroke-width = "5" fill = "none" />	<path d = "M451 421 L451 360 L391 360 L391 421 L451 421 Z" stroke = "#000000" stroke-width = "5" fill = "none" />  <path d="M431.6949900654598 401.4449900654309           A15.125000000000007 15.125000000000007 0 0 1 410.30500993456684 401.4449900654332" fill = "none" stroke = "#000000" stroke-width = "5" />
  <path d="M410.30500993456684 401.4449900654332           A15.125000000000007 15.125000000000007 0 0 1 410.3050099345644 380.05500993454024" fill = "none" stroke = "#000000" stroke-width = "5" />
  <path d="M410.3050099345644 380.05500993454024           A15.125000000000007 15.125000000000007 0 0 1 431.6949900654574 380.0550099345377" fill = "none" stroke = "#000000" stroke-width = "5" />
	<path d = "M418 386 L432 380 L426 366 " stroke = "#000000" stroke-width = "5" fill = "none" />	<path d = "M512 421 L512 360 L451 360 L451 421 L512 421 Z" stroke = "#000000" stroke-width = "5" fill = "none" />    <line x1="482" y1="391" x2="466" y2="391" style="stroke:#000000;stroke-width:5" />
<circle cx="466" cy = "391" r = "5" stroke = "#000000" stroke-width = "5" fill = "#000000" />
    <line x1="482" y1="391" x2="497" y2="391" style="stroke:#000000;stroke-width:5" />
<circle cx="497" cy = "391" r = "5" stroke = "#000000" stroke-width = "5" fill = "#000000" />
	<path d = "M572 421 L572 360 L512 360 L512 421 L572 421 Z" stroke = "#000000" stroke-width = "5" fill = "none" />  <path d="M552.69499006546 401.4449900654172           A15.125000000000007 15.125000000000007 0 0 1 531.305009934567 401.44499006541906" fill = "none" stroke = "#000000" stroke-width = "5" />
  <path d="M531.305009934567 401.44499006541906           A15.125000000000007 15.125000000000007 0 0 1 531.3050099345651 380.0550099345261" fill = "none" stroke = "#000000" stroke-width = "5" />
  <path d="M531.3050099345651 380.0550099345261           A15.125000000000007 15.125000000000007 0 0 1 552.6949900654581 380.055009934524" fill = "none" stroke = "#000000" stroke-width = "5" />
	<path d = "M539 386 L553 380 L547 366 " stroke = "#000000" stroke-width = "5" fill = "none" />	<path d = "M88 512 L88 451 L28 451 L28 512 L88 512 Z" stroke = "#000000" stroke-width = "5" fill = "none" />  <path d="M68.69499006546883 492.1949900654613           A15.125000000000007 15.125000000000007 0 0 1 47.30500993457582 492.1949900654632" fill = "none" stroke = "#000000" stroke-width = "5" />
  <path d="M47.30500993457582 492.1949900654632           A15.125000000000007 15.125000000000007 0 0 1 47.305009934573825 470.8050099345702" fill = "none" stroke = "#000000" stroke-width = "5" />
  <path d="M47.305009934573825 470.8050099345702           A15.125000000000007 15.125000000000007 0 0 1 68.69499006546684 470.8050099345681" fill = "none" stroke = "#000000" stroke-width = "5" />
	<path d = "M55 477 L69 471 L63 457 " stroke = "#000000" stroke-width = "5" fill = "none" />	<path d = "M149 512 L149 451 L88 451 L88 512 L149 512 Z" stroke = "#000000" stroke-width = "5" fill = "none" />	<path d = "M111 466 L126 466 L126 482 L134 482 L126 489 L119 497 L111 489 L103 482 L111 482 L111 466 Z" stroke = "#000000" stroke-width = "5" fill = "none" />	<path d = "M209 512 L209 451 L149 451 L149 512 L209 512 Z" stroke = "#000000" stroke-width = "5" fill = "none" />  <path d="M189.69499006546917 492.19499006544754           A15.12500000000001 15.12500000000001 0 0 1 168.30500993457613 492.1949900654499" fill = "none" stroke = "#000000" stroke-width = "5" />
  <path d="M168.30500993457613 492.1949900654499           A15.12500000000001 15.12500000000001 0 0 1 168.3050099345737 470.8050099345569" fill = "none" stroke = "#000000" stroke-width = "5" />
  <path d="M168.3050099345737 470.8050099345569           A15.12500000000001 15.12500000000001 0 0 1 189.69499006546673 470.80500993455433" fill = "none" stroke = "#000000" stroke-width = "5" />
	<path d = "M176 477 L190 471 L184 457 " stroke = "#000000" stroke-width = "5" fill = "none" />	<path d = "M270 512 L270 451 L209 451 L209 512 L270 512 Z" stroke = "#000000" stroke-width = "5" fill = "none" />  <path d="M250.19499006546926 492.19499006544027           A15.12500000000001 15.12500000000001 0 0 1 228.80500993457622 492.1949900654426" fill = "none" stroke = "#000000" stroke-width = "5" />
  <path d="M228.80500993457622 492.1949900654426           A15.12500000000001 15.12500000000001 0 0 1 228.80500993457377 470.8050099345496" fill = "none" stroke = "#000000" stroke-width = "5" />
  <path d="M228.80500993457377 470.8050099345496           A15.12500000000001 15.12500000000001 0 0 1 250.1949900654668 470.80500993454706" fill = "none" stroke = "#000000" stroke-width = "5" />
	<path d = "M236 477 L250 471 L244 457 " stroke = "#000000" stroke-width = "5" fill = "none" />	<path d = "M330 512 L330 451 L270 451 L270 512 L330 512 Z" stroke = "#000000" stroke-width = "5" fill = "none" />    <line x1="300" y1="481" x2="300" y2="466" style="stroke:#000000;stroke-width:5" />
    <line x1="300" y1="481" x2="285" y2="481" style="stroke:#000000;stroke-width:5" />
    <line x1="300" y1="481" x2="300" y2="497" style="stroke:#000000;stroke-width:5" />
    <line x1="300" y1="481" x2="315" y2="481" style="stroke:#000000;stroke-width:5" />
	<path d = "M391 512 L391 451 L330 451 L330 512 L391 512 Z" stroke = "#000000" stroke-width = "5" fill = "none" /><circle cx="361" cy = "481" r = "30.25000000000002" stroke = "#000000" stroke-width = "5" fill = "none" />
    <line x1="361" y1="481" x2="361" y2="451" style="stroke:#000000;stroke-width:5" />
    <line x1="361" y1="481" x2="391" y2="481" style="stroke:#000000;stroke-width:5" />
    <line x1="361" y1="481" x2="361" y2="512" style="stroke:#000000;stroke-width:5" />
    <line x1="361" y1="481" x2="330" y2="481" style="stroke:#000000;stroke-width:5" />
<circle cx="350" cy = "471" r = "7.562500000000005" stroke = "#000000" stroke-width = "5" fill = "none" />
<circle cx="371" cy = "471" r = "7.562500000000005" stroke = "#000000" stroke-width = "5" fill = "none" />
<circle cx="371" cy = "492" r = "7.562500000000005" stroke = "#000000" stroke-width = "5" fill = "none" />
<circle cx="350" cy = "492" r = "7.562500000000005" stroke = "#000000" stroke-width = "5" fill = "none" />
	<path d = "M451 512 L451 451 L391 451 L391 512 L451 512 Z" stroke = "#000000" stroke-width = "5" fill = "none" />	<path d = "M436 497 L436 481 L421 481 L406 481 L406 497 L421 497 L436 497 Z" stroke = "#000000" stroke-width = "5" fill = "none" />    <line x1="421" y1="497" x2="421" y2="481" style="stroke:#000000;stroke-width:5" />
<circle cx="482" cy = "481" r = "15.12500000000001" stroke = "#000000" stroke-width = "5" fill = "none" />
</svg>