<svg width="600" height="600" viewbox = "0 0 600 600"  xmlns="http://www.w3.org/2000/svg">
<!--<json>{
  "glyph": "0321,0336,0330,0330,0332,0332,0332,0332,01333,01200,01336,01332,01350,01335,01310,01337,0331,0332,0332,0332,0332,0332,0332,0332,0332,0332,0336,0331,0333,0337,01342,01330,01334,01334,01342,01330,01334,01334,01342,0331,0332,0332,0332,0332,0332,0332,0332,0332,0332,0336,0331,0337,01330,01334,01334,01342,01330,01334,01334,01334,01351,0331,0332,0332,0332,0332,0332,0332,0332,0332,0332,0336,0331,0337,01336,01313,01333,01337,0336,0330,0333,0336,0341,0337,0331,0332,0337,0333,",
  "x0": 300,
  "y0": 300,
  "unit": 121.00000000000003,
  "width": 600,
  "height": 600,
  "style": {
    "color0": "black",
    "fill0": "black",
    "line0": 1,
    "color1": "black",
    "fill1": "black",
    "line1": 5,
    "color2": "black",
    "fill2": "red",
    "line2": 2,
    "color3": "black",
    "fill3": "#FF7900",
    "line3": 2,
    "color4": "black",
    "fill4": "yellow",
    "line4": 2,
    "color5": "black",
    "fill5": "green",
    "line5": 2,
    "color6": "black",
    "fill6": "blue",
    "line6": 2,
    "color7": "black",
    "fill7": "purple",
    "line7": 2
  },
  "shapes": [
    "0220:0336,0336,0336,0330,0332,0337,0337,0362,0203,0336,0203,0334,0203,0203,0203,0203,0203,0203,0203,0334,0203,0203,0203,0334,0203,0203,0203,0203,0203,0203,0203,0363,0334,0336,0331,0333,0337,0337,0337,",
    "0221:0333,0333,0336,0336,0336,0330,0332,0337,0337,0362,0203,0336,0203,0334,0203,0203,0203,0203,0203,0203,0203,0334,0203,0203,0203,0334,0203,0203,0203,0203,0203,0203,0203,0363,0334,0336,0331,0333,0337,0337,0337,0332,0332,",
    "0222:0333,0331,0336,0336,0336,0330,0332,0337,0337,0362,0203,0336,0203,0334,0203,0203,0203,0203,0203,0203,0203,0334,0203,0203,0203,0334,0203,0203,0203,0203,0203,0203,0203,0363,0334,0336,0331,0333,0337,0337,0337,0330,0332,",
    "0223:0333,0336,0336,0336,0330,0332,0337,0337,0362,0203,0336,0203,0334,0203,0203,0203,0203,0203,0203,0203,0334,0203,0203,0203,0334,0203,0203,0203,0203,0203,0203,0203,0363,0334,0336,0331,0333,0337,0337,0337,0332,",
    "0224:0336,0336,0350,0334,0310,0337,0362,0203,0335,0335,0335,0336,0313,0337,0305,0311,0334,0337,0203,0363,0335,0335,0362,0203,0335,0335,0350,0334,0336,0313,0336,0304,0350,0310,0337,0334,0203,0364,0335,0335,0335,0335,0336,0334,0313,0304,0337,0337,0335,",
    "0225:0220,0210,0224,0224,0224,0224,0211,0331,0336,0331,0332,01015,0155,0141,0160,0365,0330,0330,0330,0333,0337,",
    "0226:0220,0336,0331,0334,0336,0330,0337,0321,0336,0362,0203,0335,0203,0203,0203,0203,0203,0335,0203,0203,0203,0203,0335,0203,0203,0203,0203,0203,0335,0203,0364,0330,0334,0331,0337,0201,0335,0336,0350,0334,0331,0362,0203,0335,0335,0203,0364,0331,0335,0313,0304,0337,0330,0336,0330,0337,0337,0320,0331,0336,0331,0332,01015,0163,0141,0166,0145,0365,0330,0330,0330,0333,0337,",
    "0227:0304,0350,0335,0313,0304,0322,0336,0336,0336,0330,0332,0337,0337,0362,0203,0335,0336,0203,0335,0337,0203,0334,0203,0335,0336,0203,0335,0337,0203,0334,0203,0335,0336,0203,0335,0337,0203,0334,0203,0335,0336,0203,0335,0337,0203,0363,0320,0336,0334,0336,0333,0331,0337,0337,0337,0350,0334,0304,0220,0331,0336,0331,0332,0336,0332,0337,01015,0144,0145,0154,0145,0164,0145,0365,0336,0333,0337,0330,0330,0330,0333,0337,",
    "0230:0313,0334,0336,0330,0335,0335,0305,0334,0337,0311,0337,0362,0203,0335,0335,0203,0335,0350,0335,0336,0203,0363,0313,0336,0331,0304,0335,0337,",
    "0231:0321,0342,0330,0320,0336,0230,0331,0331,0337,0350,0335,0304,",
    "0232:0231,0231,0231,0231,0231,0231,0231,0231,",
    "0233:0220,0336,0210,0232,",
    "0234:0220,0336,0335,0335,0331,0335,0331,0337,0321,0342,0332,0342,0336,0333,0337,0342,0330,0336,0336,0336,0330,0337,0366,0332,0332,0332,0367,0350,0335,0306,0350,0320,0335,0362,0203,0334,0334,0334,0334,0203,0334,0334,0334,0334,0203,0363,0335,0304,0350,0335,0304,0335,0335,0331,0331,0332,01015,0145,0154,0145,0155,0145,0156,0164,040,0144,0157,0167,0156,0365,0330,0330,0330,0330,0330,0333,0333,0333,0336,0332,0337,0333,0337,0337,",
    "0235:0220,0321,0336,0342,0335,0342,0335,0342,0335,0342,0335,0337,",
    "0236:0321,0220,0335,0336,0321,0342,0335,0335,0342,0335,0337,",
    "0237:0220,0336,0331,0332,0336,0321,0342,0335,0342,0335,0342,0335,0342,0335,0330,0330,0333,0333,0337,0337,",
    "01220:0333,0200,0336,0330,0332,0342,0334,0342,0334,0342,0334,0342,0334,0334,0335,0336,0220,0331,0331,0333,0333,0337,0337,",
    "01221:0333,0200,0336,0330,0332,0342,0335,0342,0335,0342,0335,0342,0335,0336,0221,0337,0331,0333,0337,",
    "01222:0333,0200,0336,0330,0332,0336,0222,0337,0342,0335,0342,0335,0342,0335,0342,0335,0331,0333,0337,",
    "01223:0333,0200,0336,0330,0332,0342,0335,0342,0335,0342,0335,0342,0335,0336,0223,0337,0331,0333,0337,",
    "01224:0333,0200,0336,0330,0332,0336,0332,060,062,062,064,0365,0333,0333,0331,0331,0333,0337,0337,",
    "01225:0333,0200,0336,0330,0332,0336,0332,060,062,062,065,0365,0333,0333,0331,0331,0333,0337,0337,",
    "01226:0333,0200,0336,0330,0332,0336,0332,060,062,062,066,0365,0333,0333,0331,0331,0333,0337,0337,",
    "01227:0333,0200,0336,0330,0332,0336,0332,060,062,062,067,0365,0333,0333,0331,0331,0333,0337,0337,",
    "01230:0333,0200,0336,0330,0332,0336,0332,060,062,063,060,0365,0333,0333,0331,0331,0333,0337,0337,",
    "01231:0333,0200,0336,0330,0332,0336,0332,060,062,063,061,0365,0333,0333,0331,0331,0333,0337,0337,",
    "01232:0333,0200,0336,0330,0332,0336,0332,060,062,063,062,0365,0333,0333,0331,0331,0333,0337,0337,",
    "01233:0333,0200,0336,0330,0332,0336,0332,060,062,063,063,0365,0333,0333,0331,0331,0333,0337,0337,",
    "01234:0333,0200,0336,0330,0332,0336,0332,060,062,063,064,0365,0333,0333,0331,0331,0333,0337,0337,",
    "01235:0333,0200,0336,0330,0332,0336,0332,060,062,063,065,0365,0333,0333,0331,0331,0333,0337,0337,",
    "01236:0333,0200,0336,0330,0332,0336,0332,060,062,063,066,0365,0333,0333,0331,0331,0333,0337,0337,",
    "01237:0333,0200,0336,0330,0332,0336,0332,060,062,063,067,0365,0333,0333,0331,0331,0333,0337,0337,",
    "0240:0220,0336,0331,0333,0336,0321,0335,0342,0335,0335,0342,0335,0330,0330,0332,0332,0337,0337,",
    "01240:0333,0200,0336,0330,0332,0210,0240,0211,0333,0331,0337,",
    "0241:0220,0336,0321,0343,0332,0350,0335,0336,0342,0334,0334,0342,0335,0304,0337,0333,0337,",
    "01241:0333,0200,0336,0332,0330,0210,0241,0211,0333,0331,0337,",
    "0242:0220,0321,0336,0343,0333,0336,0350,0335,0342,0334,0334,0342,0335,0337,0304,0332,0337,",
    "01242:0333,0200,0336,0330,0332,0210,0242,0211,0333,0331,0337,",
    "0243:0220,0336,0331,0332,0336,0321,0343,0332,0350,0334,0336,0342,0335,0335,0342,0337,0334,0334,0335,0304,0332,0330,0330,0337,0337,0333,",
    "01243:0333,0200,0336,0330,0332,0210,0243,0211,0333,0331,0337,",
    "0244:0220,0336,0331,0333,0336,0321,0343,0333,0350,0336,0335,0342,0334,0334,0342,0335,0337,0304,0333,0330,0330,0337,0337,0332,",
    "01244:0333,0200,0336,0330,0332,0210,0244,0211,0333,0331,0337,",
    "0245:0210,0332,0332,0362,0335,0203,0203,0203,0203,0334,0203,0363,0332,0332,0331,0211,",
    "01245:0333,0200,0336,0330,0332,0336,0245,0337,0333,0331,0337,",
    "0246:0210,0332,0332,0335,0306,0336,0330,0335,0335,0335,0321,0362,0203,0335,0335,0203,0364,0331,0350,0335,0337,0366,0333,0333,0333,0333,0334,0334,0334,0334,0367,0335,0336,0342,0334,0334,0342,0330,0330,0330,0330,0335,0335,0335,0304,0337,0211,",
    "01246:0333,0200,0336,0330,0332,0336,0246,",
    "0247:0330,0332,0336,0332,0336,0221,0333,0333,0333,0222,0333,0333,0333,0223,0333,0333,0333,0225,0333,0331,0331,0331,0332,0332,0332,0332,0332,0332,0332,0332,0332,0332,0332,0332,0333,0333,0226,0331,0331,0331,0333,0333,0333,0333,0333,0333,0333,0333,0333,0333,0333,0333,0333,0330,0333,0330,0330,0333,0330,0331,0332,0332,0332,0332,0332,0332,0332,0332,0332,0332,0332,0332,0227,0333,0333,0333,0230,0333,0331,0331,0331,0331,0332,0332,0332,0330,0332,0332,0332,0332,0332,0332,0333,0333,0231,0333,0333,0333,0232,0331,0333,0330,0333,0333,0233,0333,0333,0333,0234,0330,0330,0332,0330,0332,0332,0337,0337,",
    "01247:0333,0200,0336,0330,0332,0220,0336,0247,0337,0331,0333,0337,"
  ]
}</json>-->	<path d = "M118 179 L118 118 L58 118 L58 179 L118 179 Z" stroke = "#000000" stroke-width = "5" fill = "none" />	<path d = "M73 156 L73 141 L88 141 L88 134 L96 141 L103 149 L96 156 L88 164 L88 156 L73 156 Z" stroke = "#000000" stroke-width = "5" fill = "none" />	<path d = "M179 179 L179 118 L119 118 L119 179 L179 179 Z" stroke = "#000000" stroke-width = "5" fill = "none" />	<path d = "M164 164 L164 134 L134 134 L134 164 L164 164 Z" stroke = "#000000" stroke-width = "5" fill = "none" />	<path d = "M240 179 L240 119 L179 118 L179 179 L240 179 Z" stroke = "#000000" stroke-width = "5" fill = "none" />    <line x1="224" y1="149" x2="194" y2="149" style="stroke:#000000;stroke-width:5" />
	<path d = "M300 179 L300 119 L240 118 L239 179 L300 179 Z" stroke = "#000000" stroke-width = "5" fill = "none" />	<path d = "M285 141 L285 156 L270 156 L270 164 L262 156 L255 149 L262 141 L270 134 L270 141 L285 141 Z" stroke = "#000000" stroke-width = "5" fill = "none" />	<path d = "M360 179 L360 119 L300 119 L300 179 L360 179 Z" stroke = "#000000" stroke-width = "5" fill = "none" />	<path d = "M352 127 L330 149 L352 170 " stroke = "#000000" stroke-width = "5" fill = "none" />    <line x1="330" y1="149" x2="338" y2="149" style="stroke:#000000;stroke-width:5" />
    <line x1="345" y1="149" x2="353" y2="149" style="stroke:#000000;stroke-width:5" />
	<path d = "M421 179 L421 119 L360 119 L360 179 L421 179 Z" stroke = "#000000" stroke-width = "5" fill = "none" />  <path d="M401.4449900654461 159.44499006544714           A15.125000000000007 15.125000000000007 0 0 1 380.055009934553 159.4449900654471" fill = "none" stroke = "#000000" stroke-width = "5" />
  <path d="M380.055009934553 159.4449900654471           A15.125000000000007 15.125000000000007 0 0 1 380.05500993455314 138.055009934554" fill = "none" stroke = "#000000" stroke-width = "5" />
  <path d="M380.05500993455314 138.055009934554           A15.125000000000007 15.125000000000007 0 0 1 401.44499006544623 138.05500993455414" fill = "none" stroke = "#000000" stroke-width = "5" />
	<path d = "M387 144 L401 138 L396 124 " stroke = "#000000" stroke-width = "5" fill = "none" />	<path d = "M481 179 L481 119 L421 119 L421 179 L481 179 Z" stroke = "#000000" stroke-width = "5" fill = "none" />    <line x1="451" y1="179" x2="481" y2="149" style="stroke:#000000;stroke-width:5" />
    <line x1="481" y1="149" x2="451" y2="119" style="stroke:#000000;stroke-width:5" />
    <line x1="451" y1="119" x2="421" y2="149" style="stroke:#000000;stroke-width:5" />
    <line x1="421" y1="149" x2="451" y2="179" style="stroke:#000000;stroke-width:5" />
	<path d = "M542 179 L542 119 L481 119 L481 179 L542 179 Z" stroke = "#000000" stroke-width = "5" fill = "none" />    <line x1="512" y1="149" x2="512" y2="134" style="stroke:#000000;stroke-width:5" />
    <line x1="512" y1="149" x2="497" y2="149" style="stroke:#000000;stroke-width:5" />
    <line x1="512" y1="149" x2="512" y2="164" style="stroke:#000000;stroke-width:5" />
    <line x1="512" y1="149" x2="527" y2="149" style="stroke:#000000;stroke-width:5" />
	<path d = "M88 270 L88 209 L28 209 L28 270 L88 270 Z" stroke = "#000000" stroke-width = "5" fill = "none" />    <line x1="58" y1="240" x2="43" y2="240" style="stroke:#000000;stroke-width:5" />
<circle cx="43" cy = "240" r = "5" stroke = "#000000" stroke-width = "5" fill = "#000000" />
    <line x1="58" y1="240" x2="73" y2="240" style="stroke:#000000;stroke-width:5" />
<circle cx="73" cy = "240" r = "5" stroke = "#000000" stroke-width = "5" fill = "#000000" />
	<path d = "M149 270 L149 209 L88 209 L88 270 L149 270 Z" stroke = "#000000" stroke-width = "5" fill = "none" />	<path d = "M126 255 L111 255 L111 240 L103 240 L111 232 L119 224 L126 232 L134 240 L126 240 L126 255 Z" stroke = "#000000" stroke-width = "5" fill = "none" />	<path d = "M209 270 L209 209 L149 209 L149 270 L209 270 Z" stroke = "#000000" stroke-width = "5" fill = "none" />  <path d="M168.3050099345537 228.80500993455996           A15.12500000000001 15.12500000000001 0 0 1 189.69499006544675 228.80500993455905" fill = "none" stroke = "#000000" stroke-width = "5" />
  <path d="M168.3050099345545 250.194990065453           A15.12500000000001 15.12500000000001 0 0 1 168.3050099345537 228.80500993455996" fill = "none" stroke = "#000000" stroke-width = "5" />
  <path d="M189.69499006544754 250.19499006545232           A15.12500000000001 15.12500000000001 0 0 1 168.3050099345545 250.194990065453" fill = "none" stroke = "#000000" stroke-width = "5" />
	<path d = "M184 264 L190 250 L176 244 " stroke = "#000000" stroke-width = "5" fill = "none" />	<path d = "M270 270 L270 209 L209 209 L209 270 L270 270 Z" stroke = "#000000" stroke-width = "5" fill = "none" />  <path d="M228.80500993455345 228.80500993455775           A15.12500000000001 15.12500000000001 0 0 1 250.19499006544646 228.8050099345567" fill = "none" stroke = "#000000" stroke-width = "5" />
  <path d="M228.8050099345544 250.19499006545075           A15.12500000000001 15.12500000000001 0 0 1 228.80500993455345 228.80500993455775" fill = "none" stroke = "#000000" stroke-width = "5" />
  <path d="M250.1949900654474 250.19499006544993           A15.12500000000001 15.12500000000001 0 0 1 228.8050099345544 250.19499006545075" fill = "none" stroke = "#000000" stroke-width = "5" />
	<path d = "M244 264 L250 250 L236 244 " stroke = "#000000" stroke-width = "5" fill = "none" />	<path d = "M330 270 L330 209 L270 209 L270 270 L330 270 Z" stroke = "#000000" stroke-width = "5" fill = "none" />    <line x1="300" y1="240" x2="285" y2="240" style="stroke:#000000;stroke-width:5" />
<circle cx="285" cy = "240" r = "5" stroke = "#000000" stroke-width = "5" fill = "#000000" />
    <line x1="300" y1="240" x2="315" y2="239" style="stroke:#000000;stroke-width:5" />
<circle cx="315" cy = "239" r = "5" stroke = "#000000" stroke-width = "5" fill = "#000000" />
	<path d = "M391 270 L391 209 L330 209 L330 270 L391 270 Z" stroke = "#000000" stroke-width = "5" fill = "none" />	<path d = "M368 255 L353 255 L353 239 L345 239 L353 232 L361 224 L368 232 L376 239 L368 239 L368 255 Z" stroke = "#000000" stroke-width = "5" fill = "none" />	<path d = "M451 270 L451 209 L391 209 L391 270 L451 270 Z" stroke = "#000000" stroke-width = "5" fill = "none" />  <path d="M410.30500993455365 228.8050099345481           A15.125000000000012 15.125000000000012 0 0 1 431.6949900654467 228.8050099345475" fill = "none" stroke = "#000000" stroke-width = "5" />
  <path d="M410.3050099345541 250.19499006544112           A15.125000000000012 15.125000000000012 0 0 1 410.30500993455365 228.8050099345481" fill = "none" stroke = "#000000" stroke-width = "5" />
  <path d="M431.69499006544714 250.19499006544078           A15.125000000000012 15.125000000000012 0 0 1 410.3050099345541 250.19499006544112" fill = "none" stroke = "#000000" stroke-width = "5" />
	<path d = "M426 264 L432 250 L418 244 " stroke = "#000000" stroke-width = "5" fill = "none" />	<path d = "M512 270 L512 209 L451 209 L451 270 L512 270 Z" stroke = "#000000" stroke-width = "5" fill = "none" />  <path d="M470.8050099345537 228.80500993454558           A15.125000000000012 15.125000000000012 0 0 1 492.19499006544675 228.80500993454547" fill = "none" stroke = "#000000" stroke-width = "5" />
  <path d="M470.8050099345537 250.19499006543862           A15.125000000000012 15.125000000000012 0 0 1 470.8050099345537 228.80500993454558" fill = "none" stroke = "#000000" stroke-width = "5" />
  <path d="M492.19499006544675 250.19499006543873           A15.125000000000012 15.125000000000012 0 0 1 470.8050099345537 250.19499006543862" fill = "none" stroke = "#000000" stroke-width = "5" />
	<path d = "M486 264 L492 250 L478 244 " stroke = "#000000" stroke-width = "5" fill = "none" />	<path d = "M572 270 L572 209 L512 209 L512 270 L572 270 Z" stroke = "#000000" stroke-width = "5" fill = "none" />    <line x1="542" y1="239" x2="527" y2="239" style="stroke:#000000;stroke-width:5" />
<circle cx="527" cy = "239" r = "5" stroke = "#000000" stroke-width = "5" fill = "#000000" />
    <line x1="542" y1="239" x2="557" y2="239" style="stroke:#000000;stroke-width:5" />
<circle cx="557" cy = "239" r = "5" stroke = "#000000" stroke-width = "5" fill = "#000000" />
	<path d = "M88 360 L88 300 L28 300 L28 360 L88 360 Z" stroke = "#000000" stroke-width = "5" fill = "none" />	<path d = "M66 345 L50 345 L50 330 L43 330 L50 323 L58 315 L66 323 L73 330 L66 330 L66 345 Z" stroke = "#000000" stroke-width = "5" fill = "none" />	<path d = "M149 360 L149 300 L88 300 L88 360 L149 360 Z" stroke = "#000000" stroke-width = "5" fill = "none" />  <path d="M107.80500993455226 319.5550099345331           A15.125000000000016 15.125000000000016 0 0 1 129.1949900654453 319.55500993453387" fill = "none" stroke = "#000000" stroke-width = "5" />
  <path d="M107.80500993455135 340.9449900654261           A15.125000000000016 15.125000000000016 0 0 1 107.80500993455226 319.5550099345331" fill = "none" stroke = "#000000" stroke-width = "5" />
  <path d="M129.1949900654444 340.94499006542713           A15.125000000000016 15.125000000000016 0 0 1 107.80500993455135 340.9449900654261" fill = "none" stroke = "#000000" stroke-width = "5" />
	<path d = "M123 355 L129 341 L115 335 " stroke = "#000000" stroke-width = "5" fill = "none" />	<path d = "M209 360 L209 300 L149 300 L149 360 L209 360 Z" stroke = "#000000" stroke-width = "5" fill = "none" />  <path d="M168.3050099345523 319.55500993453455           A15.125000000000016 15.125000000000016 0 0 1 189.69499006544532 319.5550099345358" fill = "none" stroke = "#000000" stroke-width = "5" />
  <path d="M168.30500993455092 340.9449900654276           A15.125000000000016 15.125000000000016 0 0 1 168.3050099345523 319.55500993453455" fill = "none" stroke = "#000000" stroke-width = "5" />
  <path d="M189.69499006544396 340.94499006542907           A15.125000000000016 15.125000000000016 0 0 1 168.30500993455092 340.9449900654276" fill = "none" stroke = "#000000" stroke-width = "5" />
	<path d = "M184 355 L190 341 L176 335 " stroke = "#000000" stroke-width = "5" fill = "none" />	<path d = "M270 360 L270 300 L209 300 L209 360 L270 360 Z" stroke = "#000000" stroke-width = "5" fill = "none" />    <line x1="239" y1="330" x2="224" y2="330" style="stroke:#000000;stroke-width:5" />
<circle cx="224" cy = "330" r = "5" stroke = "#000000" stroke-width = "5" fill = "#000000" />
    <line x1="239" y1="330" x2="255" y2="330" style="stroke:#000000;stroke-width:5" />
<circle cx="255" cy = "330" r = "5" stroke = "#000000" stroke-width = "5" fill = "#000000" />
	<path d = "M330 360 L330 300 L270 300 L270 360 L330 360 Z" stroke = "#000000" stroke-width = "5" fill = "none" />	<path d = "M308 345 L292 345 L292 330 L285 330 L292 323 L300 315 L308 323 L315 330 L308 330 L308 345 Z" stroke = "#000000" stroke-width = "5" fill = "none" />	<path d = "M391 360 L391 300 L330 300 L330 360 L391 360 Z" stroke = "#000000" stroke-width = "5" fill = "none" />  <path d="M349.8050099345529 319.5550099345453           A15.125000000000018 15.125000000000018 0 0 1 371.19499006544595 319.55500993454746" fill = "none" stroke = "#000000" stroke-width = "5" />
  <path d="M349.80500993455064 340.94499006543833           A15.125000000000018 15.125000000000018 0 0 1 349.8050099345529 319.5550099345453" fill = "none" stroke = "#000000" stroke-width = "5" />
  <path d="M371.1949900654437 340.9449900654407           A15.125000000000018 15.125000000000018 0 0 1 349.80500993455064 340.94499006543833" fill = "none" stroke = "#000000" stroke-width = "5" />
	<path d = "M365 355 L371 341 L357 335 " stroke = "#000000" stroke-width = "5" fill = "none" />	<path d = "M451 361 L451 300 L391 300 L391 360 L451 361 Z" stroke = "#000000" stroke-width = "5" fill = "none" />  <path d="M410.3050099345529 319.55500993455064           A15.125000000000018 15.125000000000018 0 0 1 431.69499006544595 319.55500993455325" fill = "none" stroke = "#000000" stroke-width = "5" />
  <path d="M410.3050099345502 340.9449900654437           A15.125000000000018 15.125000000000018 0 0 1 410.3050099345529 319.55500993455064" fill = "none" stroke = "#000000" stroke-width = "5" />
  <path d="M431.6949900654432 340.9449900654465           A15.125000000000018 15.125000000000018 0 0 1 410.3050099345502 340.9449900654437" fill = "none" stroke = "#000000" stroke-width = "5" />
	<path d = "M426 355 L432 341 L418 335 " stroke = "#000000" stroke-width = "5" fill = "none" />	<path d = "M512 361 L512 300 L451 300 L451 361 L512 361 Z" stroke = "#000000" stroke-width = "5" fill = "none" />  <path d="M470.8050099345529 319.55500993455735           A15.125000000000018 15.125000000000018 0 0 1 492.19499006544595 319.5550099345604" fill = "none" stroke = "#000000" stroke-width = "5" />
  <path d="M470.80500993454973 340.9449900654504           A15.125000000000018 15.125000000000018 0 0 1 470.8050099345529 319.55500993455735" fill = "none" stroke = "#000000" stroke-width = "5" />
  <path d="M492.19499006544277 340.9449900654537           A15.125000000000018 15.125000000000018 0 0 1 470.80500993454973 340.9449900654504" fill = "none" stroke = "#000000" stroke-width = "5" />
	<path d = "M486 355 L492 341 L478 335 " stroke = "#000000" stroke-width = "5" fill = "none" />	<path d = "M572 361 L572 300 L512 300 L512 361 L572 361 Z" stroke = "#000000" stroke-width = "5" fill = "none" />	<path d = "M563 352 L542 330 L547 325 " stroke = "#000000" stroke-width = "5" fill = "none" />    <line x1="553" y1="320" x2="558" y2="314" style="stroke:#000000;stroke-width:5" />
    <line x1="563" y1="309" x2="569" y2="304" style="stroke:#000000;stroke-width:5" />
    <line x1="542" y1="330" x2="572" y2="330" style="stroke:#000000;stroke-width:5" />
	<path d = "M88 451 L88 391 L28 391 L28 451 L88 451 Z" stroke = "#000000" stroke-width = "5" fill = "none" />    <line x1="73" y1="421" x2="43" y2="421" style="stroke:#000000;stroke-width:5" />
	<path d = "M149 451 L149 391 L88 391 L88 451 L149 451 Z" stroke = "#000000" stroke-width = "5" fill = "none" />	<path d = "M134 436 L134 421 L118 421 L103 421 L103 436 L118 436 L134 436 Z" stroke = "#000000" stroke-width = "5" fill = "none" />    <line x1="118" y1="436" x2="118" y2="421" style="stroke:#000000;stroke-width:5" />
	<path d = "M209 451 L209 391 L149 391 L149 451 L209 451 Z" stroke = "#000000" stroke-width = "5" fill = "none" />	<path d = "M164 429 L164 413 L179 413 L179 406 L187 413 L194 421 L187 429 L179 436 L179 429 L164 429 Z" stroke = "#000000" stroke-width = "5" fill = "none" />	<path d = "M270 451 L270 391 L209 391 L209 451 L270 451 Z" stroke = "#000000" stroke-width = "5" fill = "none" />    <line x1="239" y1="421" x2="239" y2="406" style="stroke:#000000;stroke-width:5" />
    <line x1="239" y1="421" x2="224" y2="421" style="stroke:#000000;stroke-width:5" />
    <line x1="239" y1="421" x2="239" y2="436" style="stroke:#000000;stroke-width:5" />
    <line x1="239" y1="421" x2="255" y2="421" style="stroke:#000000;stroke-width:5" />
<circle cx="300" cy = "421" r = "15.12500000000002" stroke = "#000000" stroke-width = "5" fill = "none" />
</svg>