<svg width="600" height="600" viewbox = "0 0 600 600"  xmlns="http://www.w3.org/2000/svg">
<!--<json>{
  "glyph": "0321,0330,0330,0332,0332,0332,0336,0330,0330,01333,01200,01334,01305,01335,01311,01337,01362,01203,01334,01334,01203,0331,0332,0332,0332,0332,0332,0332,0332,0332,0332,0332,0332,0332,0336,0331,0337,01334,01350,01336,01334,01203,01354,01334,01334,01334,01334,01201,01335,0331,0332,0332,0332,0332,0332,0332,0332,0332,0332,0332,0332,0332,0336,0331,0337,01335,01335,01336,01201,01334,01334,01334,01336,01201,01331,01335,01335,0331,0332,0332,0332,0332,0332,0332,0332,0332,0332,0332,0332,0332,0336,0331,0337,01335,01337,01331,01334,01334,0331,0331,0332,0332,01334,01337,01331,01334,01304,01335,01313,0336,0330,0333,0336,0341,",
  "x0": 300,
  "y0": 450,
  "unit": 90.9090909090909,
  "width": 600,
  "height": 600,
  "style": {
    "color0": "black",
    "fill0": "black",
    "line0": 1,
    "color1": "black",
    "fill1": "black",
    "line1": 3,
    "color2": "black",
    "fill2": "red",
    "line2": 2,
    "color3": "black",
    "fill3": "#FF7900",
    "line3": 2,
    "color4": "black",
    "fill4": "yellow",
    "line4": 2,
    "color5": "black",
    "fill5": "green",
    "line5": 2,
    "color6": "black",
    "fill6": "blue",
    "line6": 2,
    "color7": "black",
    "fill7": "purple",
    "line7": 2
  },
  "shapes": [
    "0220:0336,0336,0336,0330,0332,0337,0337,0362,0203,0336,0203,0334,0203,0203,0203,0203,0203,0203,0203,0334,0203,0203,0203,0334,0203,0203,0203,0203,0203,0203,0203,0363,0334,0336,0331,0333,0337,0337,0337,",
    "0221:0333,0333,0336,0336,0336,0330,0332,0337,0337,0362,0203,0336,0203,0334,0203,0203,0203,0203,0203,0203,0203,0334,0203,0203,0203,0334,0203,0203,0203,0203,0203,0203,0203,0363,0334,0336,0331,0333,0337,0337,0337,0332,0332,",
    "0222:0333,0331,0336,0336,0336,0330,0332,0337,0337,0362,0203,0336,0203,0334,0203,0203,0203,0203,0203,0203,0203,0334,0203,0203,0203,0334,0203,0203,0203,0203,0203,0203,0203,0363,0334,0336,0331,0333,0337,0337,0337,0330,0332,",
    "0223:0333,0336,0336,0336,0330,0332,0337,0337,0362,0203,0336,0203,0334,0203,0203,0203,0203,0203,0203,0203,0334,0203,0203,0203,0334,0203,0203,0203,0203,0203,0203,0203,0363,0334,0336,0331,0333,0337,0337,0337,0332,",
    "0224:0336,0336,0350,0334,0310,0337,0362,0203,0335,0335,0335,0336,0313,0337,0305,0311,0334,0337,0203,0363,0335,0335,0362,0203,0335,0335,0350,0334,0336,0313,0336,0304,0350,0310,0337,0334,0203,0364,0335,0335,0335,0335,0336,0334,0313,0304,0337,0337,0335,",
    "0225:0220,0210,0224,0224,0224,0224,0211,0331,0336,0331,0332,01015,0155,0141,0160,0365,0330,0330,0330,0333,0337,",
    "0226:0220,0336,0331,0334,0336,0330,0337,0321,0336,0362,0203,0335,0203,0203,0203,0203,0203,0335,0203,0203,0203,0203,0335,0203,0203,0203,0203,0203,0335,0203,0364,0330,0334,0331,0337,0201,0335,0336,0350,0334,0331,0362,0203,0335,0335,0203,0364,0331,0335,0313,0304,0337,0330,0336,0330,0337,0337,0320,0331,0336,0331,0332,01015,0163,0141,0166,0145,0365,0330,0330,0330,0333,0337,",
    "0227:0304,0350,0335,0313,0304,0322,0336,0336,0336,0330,0332,0337,0337,0362,0203,0335,0336,0203,0335,0337,0203,0334,0203,0335,0336,0203,0335,0337,0203,0334,0203,0335,0336,0203,0335,0337,0203,0334,0203,0335,0336,0203,0335,0337,0203,0363,0320,0336,0334,0336,0333,0331,0337,0337,0337,0350,0334,0304,0220,0331,0336,0331,0332,0336,0332,0337,01015,0144,0145,0154,0145,0164,0145,0365,0336,0333,0337,0330,0330,0330,0333,0337,",
    "0230:0313,0334,0336,0330,0335,0335,0305,0334,0337,0311,0337,0362,0203,0335,0335,0203,0335,0350,0335,0336,0203,0363,0313,0336,0331,0304,0335,0337,",
    "0231:0321,0342,0330,0320,0336,0230,0331,0331,0337,0350,0335,0304,",
    "0232:0231,0231,0231,0231,0231,0231,0231,0231,",
    "0233:0220,0336,0210,0232,",
    "0234:0220,0336,0335,0335,0331,0335,0331,0337,0321,0342,0332,0342,0336,0333,0337,0342,0330,0336,0336,0336,0330,0337,0366,0332,0332,0332,0367,0350,0335,0306,0350,0320,0335,0362,0203,0334,0334,0334,0334,0203,0334,0334,0334,0334,0203,0363,0335,0304,0350,0335,0304,0335,0335,0331,0331,0332,01015,0145,0154,0145,0155,0145,0156,0164,040,0144,0157,0167,0156,0365,0330,0330,0330,0330,0330,0333,0333,0333,0336,0332,0337,0333,0337,0337,",
    "0235:0220,0321,0336,0342,0335,0342,0335,0342,0335,0342,0335,0337,",
    "0236:0321,0220,0335,0336,0321,0342,0335,0335,0342,0335,0337,",
    "0237:0220,0336,0331,0332,0336,0321,0342,0335,0342,0335,0342,0335,0342,0335,0330,0330,0333,0333,0337,0337,",
    "01220:0333,0200,0336,0330,0332,0342,0334,0342,0334,0342,0334,0342,0334,0334,0335,0336,0220,0331,0331,0333,0333,0337,0337,",
    "01221:0333,0200,0336,0330,0332,0342,0335,0342,0335,0342,0335,0342,0335,0336,0221,0337,0331,0333,0337,",
    "01222:0333,0200,0336,0330,0332,0336,0222,0337,0342,0335,0342,0335,0342,0335,0342,0335,0331,0333,0337,",
    "01223:0333,0200,0336,0330,0332,0342,0335,0342,0335,0342,0335,0342,0335,0336,0223,0337,0331,0333,0337,",
    "01224:0333,0200,0336,0330,0332,0336,0332,060,062,062,064,0365,0333,0333,0331,0331,0333,0337,0337,",
    "01225:0333,0200,0336,0330,0332,0336,0332,060,062,062,065,0365,0333,0333,0331,0331,0333,0337,0337,",
    "01226:0333,0200,0336,0330,0332,0336,0332,060,062,062,066,0365,0333,0333,0331,0331,0333,0337,0337,",
    "01227:0333,0200,0336,0330,0332,0336,0332,060,062,062,067,0365,0333,0333,0331,0331,0333,0337,0337,",
    "01230:0333,0200,0336,0330,0332,0336,0332,060,062,063,060,0365,0333,0333,0331,0331,0333,0337,0337,",
    "01231:0333,0200,0336,0330,0332,0336,0332,060,062,063,061,0365,0333,0333,0331,0331,0333,0337,0337,",
    "01232:0333,0200,0336,0330,0332,0336,0332,060,062,063,062,0365,0333,0333,0331,0331,0333,0337,0337,",
    "01233:0333,0200,0336,0330,0332,0336,0332,060,062,063,063,0365,0333,0333,0331,0331,0333,0337,0337,",
    "01234:0333,0200,0336,0330,0332,0336,0332,060,062,063,064,0365,0333,0333,0331,0331,0333,0337,0337,",
    "01235:0333,0200,0336,0330,0332,0336,0332,060,062,063,065,0365,0333,0333,0331,0331,0333,0337,0337,",
    "01236:0333,0200,0336,0330,0332,0336,0332,060,062,063,066,0365,0333,0333,0331,0331,0333,0337,0337,",
    "01237:0333,0200,0336,0330,0332,0336,0332,060,062,063,067,0365,0333,0333,0331,0331,0333,0337,0337,",
    "0240:0220,0336,0331,0333,0336,0321,0335,0342,0335,0335,0342,0335,0330,0330,0332,0332,0337,0337,",
    "01240:0333,0200,0336,0330,0332,0210,0240,0211,0333,0331,0337,",
    "0241:0220,0336,0321,0343,0332,0350,0335,0336,0342,0334,0334,0342,0335,0304,0337,0333,0337,",
    "01241:0333,0200,0336,0332,0330,0210,0241,0211,0333,0331,0337,",
    "0242:0220,0321,0336,0343,0333,0336,0350,0335,0342,0334,0334,0342,0335,0337,0304,0332,0337,",
    "01242:0333,0200,0336,0330,0332,0210,0242,0211,0333,0331,0337,",
    "0243:0220,0336,0331,0332,0336,0321,0343,0332,0350,0334,0336,0342,0335,0335,0342,0337,0334,0334,0335,0304,0332,0330,0330,0337,0337,0333,",
    "01243:0333,0200,0336,0330,0332,0210,0243,0211,0333,0331,0337,",
    "0244:0220,0336,0331,0333,0336,0321,0343,0333,0350,0336,0335,0342,0334,0334,0342,0335,0337,0304,0333,0330,0330,0337,0337,0332,",
    "01244:0333,0200,0336,0330,0332,0210,0244,0211,0333,0331,0337,",
    "0245:0210,0332,0332,0362,0335,0203,0203,0203,0203,0334,0203,0363,0332,0332,0331,0211,",
    "01245:0333,0200,0336,0330,0332,0336,0245,0337,0333,0331,0337,",
    "0246:0210,0332,0332,0335,0306,0336,0330,0335,0335,0335,0321,0362,0203,0335,0335,0203,0364,0331,0350,0335,0337,0366,0333,0333,0333,0333,0334,0334,0334,0334,0367,0335,0336,0342,0334,0334,0342,0330,0330,0330,0330,0335,0335,0335,0304,0337,0211,",
    "01246:0333,0200,0336,0330,0332,0336,0246,",
    "0247:0330,0332,0336,0332,0336,0221,0333,0333,0333,0222,0333,0333,0333,0223,0333,0333,0333,0225,0333,0331,0331,0331,0332,0332,0332,0332,0332,0332,0332,0332,0332,0332,0332,0332,0333,0333,0226,0331,0331,0331,0333,0333,0333,0333,0333,0333,0333,0333,0333,0333,0333,0333,0333,0330,0333,0330,0330,0333,0330,0331,0332,0332,0332,0332,0332,0332,0332,0332,0332,0332,0332,0332,0227,0333,0333,0333,0230,0333,0331,0331,0331,0331,0332,0332,0332,0330,0332,0332,0332,0332,0332,0332,0333,0333,0231,0333,0333,0333,0232,0331,0333,0330,0333,0333,0233,0333,0333,0333,0234,0330,0330,0332,0330,0332,0332,0337,0337,",
    "01247:0333,0200,0336,0330,0332,0220,0336,0247,0337,0331,0333,0337,"
  ]
}</json>-->	<path d = "M73 177 L73 132 L27 132 L27 177 L73 177 Z" stroke = "#000000" stroke-width = "3" fill = "none" />	<path d = "M39 160 L39 149 L50 149 L50 143 L56 149 L61 155 L56 160 L50 166 L50 160 L39 160 Z" stroke = "#000000" stroke-width = "3" fill = "none" />	<path d = "M118 177 L118 132 L73 132 L73 177 L118 177 Z" stroke = "#000000" stroke-width = "3" fill = "none" />	<path d = "M107 166 L107 143 L84 143 L84 166 L107 166 Z" stroke = "#000000" stroke-width = "3" fill = "none" />	<path d = "M164 177 L164 132 L118 132 L118 177 L164 177 Z" stroke = "#000000" stroke-width = "3" fill = "none" />  <path d="M132.87378657742562 146.51015021378933           A11.363636363636365 11.363636363636365 0 0 1 148.94439524075625 146.51015021378933" fill = "none" stroke = "#000000" stroke-width = "3" />
  <path d="M132.87378657742562 162.58075887711996           A11.363636363636365 11.363636363636365 0 0 1 132.87378657742562 146.51015021378933" fill = "none" stroke = "#000000" stroke-width = "3" />
  <path d="M148.94439524075625 162.58075887711993           A11.363636363636365 11.363636363636365 0 0 1 132.87378657742562 162.58075887711996" fill = "none" stroke = "#000000" stroke-width = "3" />
	<path d = "M145 173 L149 163 L138 158 " stroke = "#000000" stroke-width = "3" fill = "none" />	<path d = "M209 177 L209 132 L164 132 L164 177 L209 177 Z" stroke = "#000000" stroke-width = "3" fill = "none" />    <line x1="186" y1="155" x2="186" y2="132" style="stroke:#000000;stroke-width:3" />
    <line x1="186" y1="155" x2="208" y2="148" style="stroke:#000000;stroke-width:3" />
    <line x1="186" y1="155" x2="200" y2="173" style="stroke:#000000;stroke-width:3" />
    <line x1="186" y1="155" x2="173" y2="173" style="stroke:#000000;stroke-width:3" />
    <line x1="186" y1="155" x2="165" y2="148" style="stroke:#000000;stroke-width:3" />
<circle cx="186" cy = "155" r = "22.72727272727273" stroke = "#000000" stroke-width = "3" fill = "none" />
<circle cx="193" cy = "145" r = "2.8409090909090913" stroke = "#000000" stroke-width = "3" fill = "none" />
<circle cx="197" cy = "158" r = "2.8409090909090913" stroke = "#000000" stroke-width = "3" fill = "none" />
<circle cx="186" cy = "166" r = "2.8409090909090913" stroke = "#000000" stroke-width = "3" fill = "none" />
<circle cx="176" cy = "158" r = "2.8409090909090913" stroke = "#000000" stroke-width = "3" fill = "none" />
<circle cx="180" cy = "145" r = "2.8409090909090913" stroke = "#000000" stroke-width = "3" fill = "none" />
	<path d = "M255 177 L255 132 L209 132 L209 177 L255 177 Z" stroke = "#000000" stroke-width = "3" fill = "none" />  <path d="M239.85348614984713 162.58075887711996           A11.363636363636365 11.363636363636365 0 0 1 223.78287748651647 162.58075887712" fill = "none" stroke = "#000000" stroke-width = "3" />
  <path d="M223.78287748651647 162.58075887712           A11.363636363636365 11.363636363636365 0 0 1 223.78287748651647 146.51015021378936" fill = "none" stroke = "#000000" stroke-width = "3" />
  <path d="M223.78287748651647 146.51015021378936           A11.363636363636365 11.363636363636365 0 0 1 239.8534861498471 146.51015021378936" fill = "none" stroke = "#000000" stroke-width = "3" />
	<path d = "M229 151 L240 147 L236 136 " stroke = "#000000" stroke-width = "3" fill = "none" />	<path d = "M300 177 L300 132 L255 132 L255 177 L300 177 Z" stroke = "#000000" stroke-width = "3" fill = "none" />	<path d = "M300 177 L277 107 L255 177 L300 177 Z" stroke = "#000000" stroke-width = "3" fill = "none" />    <line x1="300" y1="177" x2="263" y2="151" style="stroke:#000000;stroke-width:3" />
    <line x1="263" y1="151" x2="286" y2="134" style="stroke:#000000;stroke-width:3" />
    <line x1="286" y1="134" x2="272" y2="124" style="stroke:#000000;stroke-width:3" />
	<path d = "M345 177 L345 132 L300 132 L300 177 L345 177 Z" stroke = "#000000" stroke-width = "3" fill = "none" />    <line x1="323" y1="155" x2="323" y2="143" style="stroke:#000000;stroke-width:3" />
    <line x1="323" y1="155" x2="311" y2="155" style="stroke:#000000;stroke-width:3" />
    <line x1="323" y1="155" x2="323" y2="166" style="stroke:#000000;stroke-width:3" />
    <line x1="323" y1="155" x2="334" y2="155" style="stroke:#000000;stroke-width:3" />
	<path d = "M391 177 L391 132 L345 132 L345 177 L391 177 Z" stroke = "#000000" stroke-width = "3" fill = "none" /><circle cx="357" cy = "166" r = "3" stroke = "#000000" stroke-width = "3" fill = "#000000" />
	<path d = "M357 166 L357 143 L380 143 " stroke = "#000000" stroke-width = "3" fill = "none" />	<path d = "M372 135 L380 143 L372 151 " stroke = "#000000" stroke-width = "3" fill = "none" />    <line x1="391" y1="177" x2="399" y2="169" style="stroke:#000000;stroke-width:3" />
    <line x1="402" y1="177" x2="410" y2="169" style="stroke:#000000;stroke-width:3" />
    <line x1="414" y1="177" x2="422" y2="169" style="stroke:#000000;stroke-width:3" />
    <line x1="425" y1="177" x2="433" y2="169" style="stroke:#000000;stroke-width:3" />
	<path d = "M436 177 L436 132 L391 132 L391 177 L436 177 Z" stroke = "#000000" stroke-width = "3" fill = "none" />    <line x1="402" y1="155" x2="425" y2="155" style="stroke:#000000;stroke-width:3" />
    <line x1="425" y1="155" x2="421" y2="159" style="stroke:#000000;stroke-width:3" />
    <line x1="425" y1="155" x2="421" y2="151" style="stroke:#000000;stroke-width:3" />
	<path d = "M482 177 L482 132 L436 132 L436 177 L482 177 Z" stroke = "#000000" stroke-width = "3" fill = "none" />  <path d="M451.0556047592431 146.51015021378717           A11.363636363636365 11.363636363636365 0 0 1 467.12621342257376 146.5101502137865" fill = "none" stroke = "#000000" stroke-width = "3" />
  <path d="M451.05560475924375 162.58075887711777           A11.363636363636365 11.363636363636365 0 0 1 451.0556047592431 146.51015021378717" fill = "none" stroke = "#000000" stroke-width = "3" />
  <path d="M467.1262134225743 162.58075887711726           A11.363636363636365 11.363636363636365 0 0 1 451.05560475924375 162.58075887711777" fill = "none" stroke = "#000000" stroke-width = "3" />
	<path d = "M463 173 L467 163 L457 158 " stroke = "#000000" stroke-width = "3" fill = "none" />	<path d = "M527 177 L527 132 L482 132 L482 177 L527 177 Z" stroke = "#000000" stroke-width = "3" fill = "none" />  <path d="M496.51015021378834 146.51015021378544           A11.363636363636365 11.363636363636365 0 0 1 512.5807588771189 146.51015021378464" fill = "none" stroke = "#000000" stroke-width = "3" />
  <path d="M496.5101502137891 162.58075887711604           A11.363636363636365 11.363636363636365 0 0 1 496.51015021378834 146.51015021378544" fill = "none" stroke = "#000000" stroke-width = "3" />
  <path d="M512.5807588771197 162.58075887711541           A11.363636363636365 11.363636363636365 0 0 1 496.5101502137891 162.58075887711604" fill = "none" stroke = "#000000" stroke-width = "3" />
	<path d = "M508 173 L513 163 L502 158 " stroke = "#000000" stroke-width = "3" fill = "none" />    <line x1="527" y1="177" x2="535" y2="169" style="stroke:#000000;stroke-width:3" />
    <line x1="539" y1="177" x2="547" y2="169" style="stroke:#000000;stroke-width:3" />
    <line x1="550" y1="177" x2="558" y2="169" style="stroke:#000000;stroke-width:3" />
    <line x1="561" y1="177" x2="569" y2="169" style="stroke:#000000;stroke-width:3" />
	<path d = "M573 177 L573 132 L527 132 L527 177 L573 177 Z" stroke = "#000000" stroke-width = "3" fill = "none" />    <line x1="539" y1="155" x2="561" y2="155" style="stroke:#000000;stroke-width:3" />
    <line x1="561" y1="155" x2="557" y2="159" style="stroke:#000000;stroke-width:3" />
    <line x1="561" y1="155" x2="557" y2="151" style="stroke:#000000;stroke-width:3" />
	<path d = "M73 245 L73 200 L27 200 L27 245 L73 245 Z" stroke = "#000000" stroke-width = "3" fill = "none" />  <path d="M41.96469566833763 214.69196839563466           A11.363636363636365 11.363636363636365 0 0 1 58.035304331668215 214.69196839563352" fill = "none" stroke = "#000000" stroke-width = "3" />
  <path d="M41.964695668338685 230.76257705896526           A11.363636363636365 11.363636363636365 0 0 1 41.96469566833763 214.69196839563466" fill = "none" stroke = "#000000" stroke-width = "3" />
  <path d="M58.035304331669266 230.7625770589643           A11.363636363636365 11.363636363636365 0 0 1 41.964695668338685 230.76257705896526" fill = "none" stroke = "#000000" stroke-width = "3" />
	<path d = "M54 241 L58 231 L48 226 " stroke = "#000000" stroke-width = "3" fill = "none" />	<path d = "M118 245 L118 200 L73 200 L73 245 L118 245 Z" stroke = "#000000" stroke-width = "3" fill = "none" />	<path d = "M112 207 L95 223 L112 239 " stroke = "#000000" stroke-width = "3" fill = "none" />    <line x1="95" y1="223" x2="101" y2="223" style="stroke:#000000;stroke-width:3" />
    <line x1="107" y1="223" x2="113" y2="223" style="stroke:#000000;stroke-width:3" />
	<path d = "M164 245 L164 200 L118 200 L118 245 L164 245 Z" stroke = "#000000" stroke-width = "3" fill = "none" />    <line x1="152" y1="223" x2="130" y2="223" style="stroke:#000000;stroke-width:3" />
	<path d = "M209 245 L209 200 L164 200 L164 245 L209 245 Z" stroke = "#000000" stroke-width = "3" fill = "none" />  <path d="M178.32833203197424 214.69196839562454           A11.363636363636365 11.363636363636365 0 0 1 194.39894069530482 214.69196839562363" fill = "none" stroke = "#000000" stroke-width = "3" />
  <path d="M178.32833203197507 230.76257705895512           A11.363636363636365 11.363636363636365 0 0 1 178.32833203197424 214.69196839562454" fill = "none" stroke = "#000000" stroke-width = "3" />
  <path d="M194.39894069530564 230.7625770589544           A11.363636363636365 11.363636363636365 0 0 1 178.32833203197507 230.76257705895512" fill = "none" stroke = "#000000" stroke-width = "3" />
	<path d = "M190 241 L194 231 L184 226 " stroke = "#000000" stroke-width = "3" fill = "none" />    <line x1="209" y1="245" x2="217" y2="237" style="stroke:#000000;stroke-width:3" />
    <line x1="220" y1="245" x2="228" y2="237" style="stroke:#000000;stroke-width:3" />
    <line x1="232" y1="245" x2="240" y2="237" style="stroke:#000000;stroke-width:3" />
    <line x1="243" y1="245" x2="251" y2="237" style="stroke:#000000;stroke-width:3" />
	<path d = "M255 245 L255 200 L209 200 L209 245 L255 245 Z" stroke = "#000000" stroke-width = "3" fill = "none" />    <line x1="220" y1="223" x2="243" y2="223" style="stroke:#000000;stroke-width:3" />
    <line x1="243" y1="223" x2="239" y2="227" style="stroke:#000000;stroke-width:3" />
    <line x1="243" y1="223" x2="239" y2="219" style="stroke:#000000;stroke-width:3" />
	<path d = "M300 245 L300 200 L255 200 L255 245 L300 245 Z" stroke = "#000000" stroke-width = "3" fill = "none" />	<path d = "M266 211 L289 211 L289 234 " stroke = "#000000" stroke-width = "3" fill = "none" /><circle cx="289" cy = "234" r = "3" stroke = "#000000" stroke-width = "3" fill = "#000000" />
    <line x1="289" y1="234" x2="293" y2="230" style="stroke:#000000;stroke-width:3" />
    <line x1="289" y1="234" x2="285" y2="230" style="stroke:#000000;stroke-width:3" />
    <line x1="289" y1="234" x2="266" y2="211" style="stroke:#000000;stroke-width:3" />
	<path d = "M345 245 L345 200 L300 200 L300 245 L345 245 Z" stroke = "#000000" stroke-width = "3" fill = "none" />  <path d="M314.6919683956105 214.6919683956151           A11.363636363636365 11.363636363636365 0 0 1 330.7625770589411 214.69196839561457" fill = "none" stroke = "#000000" stroke-width = "3" />
  <path d="M314.69196839561096 230.76257705894568           A11.363636363636365 11.363636363636365 0 0 1 314.6919683956105 214.6919683956151" fill = "none" stroke = "#000000" stroke-width = "3" />
  <path d="M330.76257705894153 230.7625770589453           A11.363636363636365 11.363636363636365 0 0 1 314.69196839561096 230.76257705894568" fill = "none" stroke = "#000000" stroke-width = "3" />
	<path d = "M326 241 L331 231 L320 226 " stroke = "#000000" stroke-width = "3" fill = "none" />	<path d = "M391 245 L391 200 L345 200 L345 245 L391 245 Z" stroke = "#000000" stroke-width = "3" fill = "none" />  <path d="M360.146513850156 214.69196839561295           A11.363636363636365 11.363636363636365 0 0 1 376.2171225134866 214.69196839561275" fill = "none" stroke = "#000000" stroke-width = "3" />
  <path d="M360.1465138501561 230.76257705894352           A11.363636363636365 11.363636363636365 0 0 1 360.146513850156 214.69196839561295" fill = "none" stroke = "#000000" stroke-width = "3" />
  <path d="M376.2171225134867 230.7625770589435           A11.363636363636365 11.363636363636365 0 0 1 360.1465138501561 230.76257705894352" fill = "none" stroke = "#000000" stroke-width = "3" />
	<path d = "M372 241 L376 231 L366 226 " stroke = "#000000" stroke-width = "3" fill = "none" />	<path d = "M436 245 L436 200 L391 200 L391 245 L436 245 Z" stroke = "#000000" stroke-width = "3" fill = "none" />  <path d="M405.6010593047015 214.69196839561178           A11.363636363636365 11.363636363636365 0 0 1 421.67166796803207 214.69196839561192" fill = "none" stroke = "#000000" stroke-width = "3" />
  <path d="M405.60105930470127 230.76257705894236           A11.363636363636365 11.363636363636365 0 0 1 405.6010593047015 214.69196839561178" fill = "none" stroke = "#000000" stroke-width = "3" />
  <path d="M421.67166796803184 230.76257705894267           A11.363636363636365 11.363636363636365 0 0 1 405.60105930470127 230.76257705894236" fill = "none" stroke = "#000000" stroke-width = "3" />
	<path d = "M417 241 L422 231 L411 226 " stroke = "#000000" stroke-width = "3" fill = "none" />	<path d = "M482 245 L482 200 L436 200 L436 245 L482 245 Z" stroke = "#000000" stroke-width = "3" fill = "none" />  <path d="M451.0556047592469 214.69196839561153           A11.363636363636365 11.363636363636365 0 0 1 467.12621342257745 214.691968395612" fill = "none" stroke = "#000000" stroke-width = "3" />
  <path d="M451.0556047592463 230.7625770589421           A11.363636363636365 11.363636363636365 0 0 1 451.0556047592469 214.69196839561153" fill = "none" stroke = "#000000" stroke-width = "3" />
  <path d="M467.1262134225769 230.76257705894275           A11.363636363636365 11.363636363636365 0 0 1 451.0556047592463 230.7625770589421" fill = "none" stroke = "#000000" stroke-width = "3" />
	<path d = "M463 241 L467 231 L457 226 " stroke = "#000000" stroke-width = "3" fill = "none" />	<path d = "M527 245 L527 200 L482 200 L482 245 L527 245 Z" stroke = "#000000" stroke-width = "3" fill = "none" />    <line x1="493" y1="223" x2="516" y2="223" style="stroke:#000000;stroke-width:3" />
    <line x1="516" y1="223" x2="512" y2="227" style="stroke:#000000;stroke-width:3" />
    <line x1="516" y1="223" x2="512" y2="219" style="stroke:#000000;stroke-width:3" />
	<path d = "M573 245 L573 200 L527 200 L527 245 L573 245 Z" stroke = "#000000" stroke-width = "3" fill = "none" />  <path d="M558.0353043316677 230.76257705894466           A11.363636363636365 11.363636363636365 0 0 1 541.9646956683371 230.762577058944" fill = "none" stroke = "#000000" stroke-width = "3" />
  <path d="M541.9646956683371 230.762577058944           A11.363636363636365 11.363636363636365 0 0 1 541.9646956683376 214.69196839561343" fill = "none" stroke = "#000000" stroke-width = "3" />
  <path d="M541.9646956683376 214.69196839561343           A11.363636363636365 11.363636363636365 0 0 1 558.0353043316683 214.6919683956139" fill = "none" stroke = "#000000" stroke-width = "3" />
	<path d = "M548 219 L558 215 L554 204 " stroke = "#000000" stroke-width = "3" fill = "none" />	<path d = "M73 314 L73 268 L27 268 L27 314 L73 314 Z" stroke = "#000000" stroke-width = "3" fill = "none" />  <path d="M58.03530433166574 298.9443952407439           A11.363636363636365 11.363636363636365 0 0 1 41.96469566833516 298.9443952407433" fill = "none" stroke = "#000000" stroke-width = "3" />
  <path d="M41.96469566833516 298.9443952407433           A11.363636363636365 11.363636363636365 0 0 1 41.964695668335736 282.87378657741266" fill = "none" stroke = "#000000" stroke-width = "3" />
  <path d="M41.964695668335736 282.87378657741266           A11.363636363636365 11.363636363636365 0 0 1 58.03530433166632 282.87378657741317" fill = "none" stroke = "#000000" stroke-width = "3" />
	<path d = "M48 287 L58 283 L54 272 " stroke = "#000000" stroke-width = "3" fill = "none" />	<path d = "M118 314 L118 268 L73 268 L73 314 L118 314 Z" stroke = "#000000" stroke-width = "3" fill = "none" />  <path d="M103.4898497862112 298.94439524074477           A11.363636363636365 11.363636363636365 0 0 1 87.4192411228806 298.94439524074414" fill = "none" stroke = "#000000" stroke-width = "3" />
  <path d="M87.4192411228806 298.94439524074414           A11.363636363636365 11.363636363636365 0 0 1 87.41924112288119 282.8737865774135" fill = "none" stroke = "#000000" stroke-width = "3" />
  <path d="M87.41924112288119 282.8737865774135           A11.363636363636365 11.363636363636365 0 0 1 103.48984978621178 282.873786577414" fill = "none" stroke = "#000000" stroke-width = "3" />
	<path d = "M93 287 L103 283 L99 272 " stroke = "#000000" stroke-width = "3" fill = "none" />	<path d = "M164 314 L164 268 L118 268 L118 314 L164 314 Z" stroke = "#000000" stroke-width = "3" fill = "none" />    <line x1="152" y1="291" x2="130" y2="291" style="stroke:#000000;stroke-width:3" />
	<path d = "M209 314 L209 268 L164 268 L164 314 L209 314 Z" stroke = "#000000" stroke-width = "3" fill = "none" />    <line x1="175" y1="291" x2="198" y2="291" style="stroke:#000000;stroke-width:3" />
    <line x1="198" y1="291" x2="194" y2="295" style="stroke:#000000;stroke-width:3" />
    <line x1="198" y1="291" x2="194" y2="287" style="stroke:#000000;stroke-width:3" />
	<path d = "M255 314 L255 268 L209 268 L209 314 L255 314 Z" stroke = "#000000" stroke-width = "3" fill = "none" />  <path d="M223.78287748651792 282.87378657741795           A11.363636363636365 11.363636363636365 0 0 1 239.8534861498485 282.87378657741914" fill = "none" stroke = "#000000" stroke-width = "3" />
  <path d="M223.78287748651664 298.9443952407485           A11.363636363636365 11.363636363636365 0 0 1 223.78287748651792 282.87378657741795" fill = "none" stroke = "#000000" stroke-width = "3" />
  <path d="M239.8534861498472 298.9443952407499           A11.363636363636365 11.363636363636365 0 0 1 223.78287748651664 298.9443952407485" fill = "none" stroke = "#000000" stroke-width = "3" />
	<path d = "M236 309 L240 299 L229 295 " stroke = "#000000" stroke-width = "3" fill = "none" />	<path d = "M300 314 L300 268 L255 268 L255 314 L300 314 Z" stroke = "#000000" stroke-width = "3" fill = "none" />  <path d="M269.2374229410633 282.8737865774207           A11.363636363636365 11.363636363636365 0 0 1 285.3080316043939 282.8737865774222" fill = "none" stroke = "#000000" stroke-width = "3" />
  <path d="M269.23742294106165 298.94439524075125           A11.363636363636365 11.363636363636365 0 0 1 269.2374229410633 282.8737865774207" fill = "none" stroke = "#000000" stroke-width = "3" />
  <path d="M285.3080316043923 298.94439524075295           A11.363636363636365 11.363636363636365 0 0 1 269.23742294106165 298.94439524075125" fill = "none" stroke = "#000000" stroke-width = "3" />
	<path d = "M281 309 L285 299 L275 295 " stroke = "#000000" stroke-width = "3" fill = "none" />	<path d = "M345 314 L345 268 L300 268 L300 314 L345 314 Z" stroke = "#000000" stroke-width = "3" fill = "none" />  <path d="M314.69196839560874 282.87378657742437           A11.363636363636365 11.363636363636365 0 0 1 330.7625770589393 282.87378657742624" fill = "none" stroke = "#000000" stroke-width = "3" />
  <path d="M314.69196839560675 298.94439524075494           A11.363636363636365 11.363636363636365 0 0 1 314.69196839560874 282.87378657742437" fill = "none" stroke = "#000000" stroke-width = "3" />
  <path d="M330.7625770589374 298.944395240757           A11.363636363636365 11.363636363636365 0 0 1 314.69196839560675 298.94439524075494" fill = "none" stroke = "#000000" stroke-width = "3" />
	<path d = "M326 309 L331 299 L320 295 " stroke = "#000000" stroke-width = "3" fill = "none" />	<path d = "M391 314 L391 268 L345 268 L345 314 L391 314 Z" stroke = "#000000" stroke-width = "3" fill = "none" />    <line x1="380" y1="291" x2="357" y2="291" style="stroke:#000000;stroke-width:3" />
	<path d = "M436 314 L436 268 L391 268 L391 314 L436 314 Z" stroke = "#000000" stroke-width = "3" fill = "none" />    <line x1="402" y1="291" x2="425" y2="291" style="stroke:#000000;stroke-width:3" />
    <line x1="425" y1="291" x2="421" y2="295" style="stroke:#000000;stroke-width:3" />
    <line x1="425" y1="291" x2="421" y2="287" style="stroke:#000000;stroke-width:3" />
	<path d = "M482 314 L482 268 L436 268 L436 314 L482 314 Z" stroke = "#000000" stroke-width = "3" fill = "none" />	<path d = "M453 280 L465 280 L465 291 L470 291 L465 297 L459 302 L453 297 L448 291 L453 291 L453 280 Z" stroke = "#000000" stroke-width = "3" fill = "none" />	<path d = "M527 314 L527 268 L482 268 L482 314 L527 314 Z" stroke = "#000000" stroke-width = "3" fill = "none" />  <path d="M512.5807588771191 298.94439524077717           A11.363636363636365 11.363636363636365 0 0 1 496.5101502137885 298.94439524077535" fill = "none" stroke = "#000000" stroke-width = "3" />
  <path d="M496.5101502137885 298.94439524077535           A11.363636363636365 11.363636363636365 0 0 1 496.51015021379027 282.8737865774448" fill = "none" stroke = "#000000" stroke-width = "3" />
  <path d="M496.51015021379027 282.8737865774448           A11.363636363636365 11.363636363636365 0 0 1 512.5807588771208 282.8737865774464" fill = "none" stroke = "#000000" stroke-width = "3" />
	<path d = "M502 287 L513 283 L508 272 " stroke = "#000000" stroke-width = "3" fill = "none" />	<path d = "M573 314 L573 268 L527 268 L527 314 L573 314 Z" stroke = "#000000" stroke-width = "3" fill = "none" />  <path d="M558.0353043316647 298.9443952407814           A11.363636363636365 11.363636363636365 0 0 1 541.9646956683341 298.94439524077956" fill = "none" stroke = "#000000" stroke-width = "3" />
  <path d="M541.9646956683341 298.94439524077956           A11.363636363636365 11.363636363636365 0 0 1 541.9646956683358 282.873786577449" fill = "none" stroke = "#000000" stroke-width = "3" />
  <path d="M541.9646956683358 282.873786577449           A11.363636363636365 11.363636363636365 0 0 1 558.0353043316665 282.87378657745063" fill = "none" stroke = "#000000" stroke-width = "3" />
	<path d = "M548 287 L558 283 L554 272 " stroke = "#000000" stroke-width = "3" fill = "none" />	<path d = "M73 382 L73 336 L27 336 L27 382 L73 382 Z" stroke = "#000000" stroke-width = "3" fill = "none" />  <path d="M58.03530433165777 367.1262134225451           A11.363636363636365 11.363636363636365 0 0 1 41.96469566832719 367.1262134225433" fill = "none" stroke = "#000000" stroke-width = "3" />
  <path d="M41.96469566832719 367.1262134225433           A11.363636363636365 11.363636363636365 0 0 1 41.96469566832892 351.0556047592127" fill = "none" stroke = "#000000" stroke-width = "3" />
  <path d="M41.96469566832892 351.0556047592127           A11.363636363636365 11.363636363636365 0 0 1 58.0353043316595 351.05560475921436" fill = "none" stroke = "#000000" stroke-width = "3" />
	<path d = "M48 355 L58 351 L54 341 " stroke = "#000000" stroke-width = "3" fill = "none" />	<path d = "M118 382 L118 336 L73 336 L73 382 L118 382 Z" stroke = "#000000" stroke-width = "3" fill = "none" />    <line x1="95" y1="359" x2="95" y2="348" style="stroke:#000000;stroke-width:3" />
    <line x1="95" y1="359" x2="84" y2="359" style="stroke:#000000;stroke-width:3" />
    <line x1="95" y1="359" x2="95" y2="370" style="stroke:#000000;stroke-width:3" />
    <line x1="95" y1="359" x2="107" y2="359" style="stroke:#000000;stroke-width:3" />
	<path d = "M164 382 L164 336 L118 336 L118 382 L164 382 Z" stroke = "#000000" stroke-width = "3" fill = "none" />	<path d = "M135 348 L147 348 L147 359 L152 359 L147 365 L141 370 L135 365 L130 359 L135 359 L135 348 Z" stroke = "#000000" stroke-width = "3" fill = "none" />	<path d = "M209 382 L209 336 L164 336 L164 382 L209 382 Z" stroke = "#000000" stroke-width = "3" fill = "none" />  <path d="M178.32833203196574 351.05560475922806           A11.363636363636365 11.363636363636365 0 0 1 194.39894069529632 351.0556047592304" fill = "none" stroke = "#000000" stroke-width = "3" />
  <path d="M178.32833203196333 367.12621342255864           A11.363636363636365 11.363636363636365 0 0 1 178.32833203196574 351.05560475922806" fill = "none" stroke = "#000000" stroke-width = "3" />
  <path d="M194.3989406952939 367.12621342256114           A11.363636363636365 11.363636363636365 0 0 1 178.32833203196333 367.12621342255864" fill = "none" stroke = "#000000" stroke-width = "3" />
	<path d = "M190 378 L194 367 L184 363 " stroke = "#000000" stroke-width = "3" fill = "none" />	<path d = "M255 382 L255 336 L209 336 L209 382 L255 382 Z" stroke = "#000000" stroke-width = "3" fill = "none" />  <path d="M223.78287748651186 351.05560475923596           A11.363636363636365 11.363636363636365 0 0 1 239.85348614984247 351.05560475923954" fill = "none" stroke = "#000000" stroke-width = "3" />
  <path d="M223.7828774865082 367.12621342256654           A11.363636363636365 11.363636363636365 0 0 1 223.78287748651186 351.05560475923596" fill = "none" stroke = "#000000" stroke-width = "3" />
  <path d="M239.85348614983877 367.12621342257034           A11.363636363636365 11.363636363636365 0 0 1 223.7828774865082 367.12621342256654" fill = "none" stroke = "#000000" stroke-width = "3" />
	<path d = "M236 378 L240 367 L229 363 " stroke = "#000000" stroke-width = "3" fill = "none" />	<path d = "M209 473 L209 427 L164 427 L164 473 L209 473 Z" stroke = "#000000" stroke-width = "3" fill = "none" />  <path d="M178.32833203194153 441.96469566831223           A11.363636363636365 11.363636363636365 0 0 1 194.39894069527213 441.96469566831706" fill = "none" stroke = "#000000" stroke-width = "3" />
  <path d="M178.32833203193658 458.0353043316428           A11.363636363636365 11.363636363636365 0 0 1 178.32833203194153 441.96469566831223" fill = "none" stroke = "#000000" stroke-width = "3" />
  <path d="M194.39894069526719 458.03530433164786           A11.363636363636365 11.363636363636365 0 0 1 178.32833203193658 458.0353043316428" fill = "none" stroke = "#000000" stroke-width = "3" />
	<path d = "M190 469 L194 458 L184 454 " stroke = "#000000" stroke-width = "3" fill = "none" />	<path d = "M255 473 L255 427 L209 427 L209 473 L255 473 Z" stroke = "#000000" stroke-width = "3" fill = "none" />    <line x1="232" y1="450" x2="232" y2="439" style="stroke:#000000;stroke-width:3" />
    <line x1="232" y1="450" x2="220" y2="450" style="stroke:#000000;stroke-width:3" />
    <line x1="232" y1="450" x2="232" y2="461" style="stroke:#000000;stroke-width:3" />
    <line x1="232" y1="450" x2="243" y2="450" style="stroke:#000000;stroke-width:3" />
	<path d = "M300 473 L300 427 L255 427 L255 473 L300 473 Z" stroke = "#000000" stroke-width = "3" fill = "none" />	<path d = "M272 439 L283 439 L283 450 L289 450 L283 456 L277 461 L272 456 L266 450 L272 450 L272 439 Z" stroke = "#000000" stroke-width = "3" fill = "none" />	<path d = "M345 473 L345 427 L300 427 L300 473 L345 473 Z" stroke = "#000000" stroke-width = "3" fill = "none" />  <path d="M314.69196839557867 441.9646956683619           A11.363636363636365 11.363636363636365 0 0 1 330.76257705890924 441.9646956683684" fill = "none" stroke = "#000000" stroke-width = "3" />
  <path d="M314.69196839557213 458.0353043316925           A11.363636363636365 11.363636363636365 0 0 1 314.69196839557867 441.9646956683619" fill = "none" stroke = "#000000" stroke-width = "3" />
  <path d="M330.7625770589027 458.03530433169914           A11.363636363636365 11.363636363636365 0 0 1 314.69196839557213 458.0353043316925" fill = "none" stroke = "#000000" stroke-width = "3" />
	<path d = "M326 469 L331 458 L320 454 " stroke = "#000000" stroke-width = "3" fill = "none" />	<path d = "M391 473 L391 427 L345 427 L345 473 L391 473 Z" stroke = "#000000" stroke-width = "3" fill = "none" /><circle cx="368" cy = "450" r = "22.72727272727273" stroke = "#000000" stroke-width = "3" fill = "none" />
    <line x1="368" y1="450" x2="368" y2="427" style="stroke:#000000;stroke-width:3" />
    <line x1="368" y1="450" x2="391" y2="450" style="stroke:#000000;stroke-width:3" />
    <line x1="368" y1="450" x2="368" y2="473" style="stroke:#000000;stroke-width:3" />
    <line x1="368" y1="450" x2="345" y2="450" style="stroke:#000000;stroke-width:3" />
<circle cx="360" cy = "442" r = "5.6818181818181825" stroke = "#000000" stroke-width = "3" fill = "none" />
<circle cx="376" cy = "442" r = "5.6818181818181825" stroke = "#000000" stroke-width = "3" fill = "none" />
<circle cx="376" cy = "458" r = "5.6818181818181825" stroke = "#000000" stroke-width = "3" fill = "none" />
<circle cx="360" cy = "458" r = "5.6818181818181825" stroke = "#000000" stroke-width = "3" fill = "none" />
	<path d = "M436 473 L436 427 L391 427 L391 473 L436 473 Z" stroke = "#000000" stroke-width = "3" fill = "none" />  <path d="M421.671667967993 458.0353043317391           A11.363636363636365 11.363636363636365 0 0 1 405.60105930466244 458.0353043317319" fill = "none" stroke = "#000000" stroke-width = "3" />
  <path d="M405.60105930466244 458.0353043317319           A11.363636363636365 11.363636363636365 0 0 1 405.60105930466955 441.9646956684013" fill = "none" stroke = "#000000" stroke-width = "3" />
  <path d="M405.60105930466955 441.9646956684013           A11.363636363636365 11.363636363636365 0 0 1 421.6716679680001 441.96469566840835" fill = "none" stroke = "#000000" stroke-width = "3" />
	<path d = "M411 446 L422 442 L417 431 " stroke = "#000000" stroke-width = "3" fill = "none" />	<path d = "M482 473 L482 427 L436 427 L436 473 L482 473 Z" stroke = "#000000" stroke-width = "3" fill = "none" />	<path d = "M470 461 L470 450 L459 450 L448 450 L448 461 L459 461 L470 461 Z" stroke = "#000000" stroke-width = "3" fill = "none" />    <line x1="459" y1="461" x2="459" y2="450" style="stroke:#000000;stroke-width:3" />
<circle cx="505" cy = "450" r = "11.363636363636365" stroke = "#000000" stroke-width = "3" fill = "none" />
</svg>