<svg width="600" height="600" viewbox = "0 0 600 600"  xmlns="http://www.w3.org/2000/svg">
<!--<json>{
  "glyph": "0223,",
  "x0": 300,
  "y0": 572.7272727272727,
  "unit": 129.68712300500013,
  "width": 600,
  "height": 600,
  "style": {
    "color0": "black",
    "fill0": "black",
    "line0": 1,
    "color1": "black",
    "fill1": "black",
    "line1": 5,
    "color2": "red",
    "fill2": "red",
    "line2": 1,
    "color3": "#FF7900",
    "fill3": "#FF7900",
    "line3": 1,
    "color4": "yellow",
    "fill4": "yellow",
    "line4": 1,
    "color5": "green",
    "fill5": "green",
    "line5": 1,
    "color6": "blue",
    "fill6": "blue",
    "line6": 1,
    "color7": "purple",
    "fill7": "purple",
    "line7": 1
  },
  "shapes": [
    "0220:0305,0362,0203,0334,0350,0334,0311,0337,0203,0334,0334,0334,0334,0203,0354,0334,0334,0334,0336,",
    "0221:0311,0305,0350,0334,0201,0334,0334,0334,0334,0336,0201,0335,0335,0335,0335,0201,0334,0334,0334,0334,0336,0201,0335,0335,0335,0335,0201,0334,0334,0334,0334,0336,0201,0335,0335,0335,0335,0201,0334,0334,0334,0334,0336,0201,0335,0335,0335,0335,0201,0334,0334,0334,0334,0336,0201,0335,0335,0335,0337,0330,0337,0331,0337,0331,0337,0331,0337,0331,0336,0330,0337,0335,0335,",
    "0222:0220,0322,0221,0320,",
    "0223:0222,0330,0222,0330,0222,0330,0222,0330,0335,0335,0335,0335,0335,0222,0330,0222,0330,0222,0330,0222,0335,0335,0335,0335,0335,0335,0335,0335,0337,0330,0334,0334,0334,0336,0222,0330,0222,0330,0222,0335,0335,0337,0331,0331,0336,0335,0335,0335,0222,0331,0331,0222,0330,0222,0335,0335,0335,0335,0335,0331,0331,0334,0334,0337,0331,0335,0335,0336,",
    "0224:0222,0330,0222,0330,0222,0330,0222,0330,0222,0330,0222,0331,0331,0331,0331,0331,",
    "0225:0223,0330,0223,0330,0223,0330,0223,0330,0223,0330,0223,0331,0331,0331,0331,0331,",
    "0226:0336,0336,0333,0330,0333,0333,0333,0336,0330,0337,0167,0167,0167,056,0164,0162,0141,0163,0150,0162,0157,0142,0157,0164,056,0157,0162,0147,0365,0337,0332,0331,0332,0336,0336,0330,0337,0337,0337,",
    "0227:0200,0336,0330,0336,0331,0332,0332,0332,0337,0120,0151,0365,0331,0333,0336,0330,0333,0337,0337,",
    "0230:0336,0336,0347,0337,0337,0350,0336,0310,0343,0337,0343,0337,0343,0336,0336,0304,0313,0336,0337,0337,0335,0305,0335,0311,0337,0362,0203,0335,0350,0335,0336,0203,0335,0335,0335,0337,0203,0363,0335,0335,0336,0304,0334,0313,",
    "0231:0321,0342,0330,0320,0336,0230,0331,0331,0337,0350,0335,0304,",
    "0232:0231,0231,0231,0231,0231,0231,0231,0231,",
    "0233:0220,0336,0210,0232,",
    "0234:0220,0336,0335,0335,0331,0335,0331,0337,0321,0342,0332,0342,0336,0333,0337,0342,0330,0336,0336,0336,0330,0337,0366,0332,0332,0332,0367,0350,0335,0306,0350,0320,0335,0362,0203,0334,0334,0334,0334,0203,0334,0334,0334,0334,0203,0363,0335,0304,0350,0335,0304,0335,0335,0331,0331,0332,01015,0145,0154,0145,0155,0145,0156,0164,040,0144,0157,0167,0156,0365,0330,0330,0330,0330,0330,0333,0333,0333,0336,0332,0337,0333,0337,0337,",
    "0235:0220,0321,0336,0342,0335,0342,0335,0342,0335,0342,0335,0337,",
    "0236:0321,0220,0335,0336,0321,0342,0335,0335,0342,0335,0337,",
    "0237:0220,0336,0331,0332,0336,0321,0342,0335,0342,0335,0342,0335,0342,0335,0330,0330,0333,0333,0337,0337,",
    "01220:0333,0200,0336,0330,0332,0336,0333,0331,0337,0220,0313,0304,0336,0331,0333,0337,0337,",
    "01221:0333,0200,0336,0330,0332,0336,0331,0333,0337,0221,0313,0304,0336,0313,0331,0333,0337,0337,",
    "01222:0333,0200,0336,0330,0332,0336,0332,0336,0332,0222,0332,0337,0337,0331,0337,0333,",
    "01223:0333,0200,0336,0332,0330,0336,0332,0336,0332,0223,0332,0337,0337,0331,0337,0333,0320,",
    "01224:0333,0200,0336,0332,0336,0330,0336,0332,0332,0331,0332,0224,",
    "01225:0333,0200,0336,0330,0332,0336,0331,0332,0336,0331,0332,0225,0331,0332,0320,0337,0337,0337,0333,",
    "01226:0333,0200,0336,0330,0332,0336,0332,0336,0332,0337,0226,0331,0331,0333,0333,0333,0336,0333,0337,0337,0337,",
    "01227:0333,0200,0336,0330,0332,0336,0332,0337,0227,0333,0336,0333,0337,0331,0337,",
    "01230:0333,0200,",
    "01231:0333,0200,",
    "01232:0333,0200,",
    "01233:0333,0200,",
    "01234:0333,0200,",
    "01235:0333,0200,",
    "01236:0333,0200,",
    "01237:0333,0200,",
    "0240:0220,0336,0331,0333,0336,0321,0335,0342,0335,0335,0342,0335,0330,0330,0332,0332,0337,0337,",
    "01240:0333,0200,0336,0330,0332,0210,0240,0211,0333,0331,0337,",
    "0241:0220,0336,0321,0343,0332,0350,0335,0336,0342,0334,0334,0342,0335,0304,0337,0333,0337,",
    "01241:0333,0200,0336,0332,0330,0210,0241,0211,0333,0331,0337,",
    "0242:0220,0321,0336,0343,0333,0336,0350,0335,0342,0334,0334,0342,0335,0337,0304,0332,0337,",
    "01242:0333,0200,0336,0330,0332,0210,0242,0211,0333,0331,0337,",
    "0243:0220,0336,0331,0332,0336,0321,0343,0332,0350,0334,0336,0342,0335,0335,0342,0337,0334,0334,0335,0304,0332,0330,0330,0337,0337,0333,",
    "01243:0333,0200,0336,0330,0332,0210,0243,0211,0333,0331,0337,",
    "0244:0220,0336,0331,0333,0336,0321,0343,0333,0350,0336,0335,0342,0334,0334,0342,0335,0337,0304,0333,0330,0330,0337,0337,0332,",
    "01244:0333,0200,0336,0330,0332,0210,0244,0211,0333,0331,0337,",
    "0245:0210,0332,0332,0362,0335,0203,0203,0203,0203,0334,0203,0363,0332,0332,0331,0211,",
    "01245:0333,0200,0336,0330,0332,0336,0245,0337,0333,0331,0337,",
    "0246:0210,0332,0332,0335,0306,0336,0330,0335,0335,0335,0321,0362,0203,0335,0335,0203,0364,0331,0350,0335,0337,0366,0333,0333,0333,0333,0334,0334,0334,0334,0367,0335,0336,0342,0334,0334,0342,0330,0330,0330,0330,0335,0335,0335,0304,0337,0211,",
    "01246:0333,0200,0336,0330,0332,0336,0246,",
    "0247:0330,0332,0336,0332,0336,0221,0333,0333,0333,0222,0333,0333,0333,0223,0333,0333,0333,0225,0333,0331,0331,0331,0332,0332,0332,0332,0332,0332,0332,0332,0332,0332,0332,0332,0333,0333,0226,0331,0331,0331,0333,0333,0333,0333,0333,0333,0333,0333,0333,0333,0333,0333,0333,0330,0333,0330,0330,0333,0330,0331,0332,0332,0332,0332,0332,0332,0332,0332,0332,0332,0332,0332,0227,0333,0333,0333,0230,0333,0331,0331,0331,0331,0332,0332,0332,0330,0332,0332,0332,0332,0332,0332,0333,0333,0231,0333,0333,0333,0232,0331,0333,0330,0333,0333,0233,0333,0333,0333,0234,0330,0330,0332,0330,0332,0332,0337,0337,",
    "01247:0333,0200,0336,0330,0332,0220,0336,0247,0337,0331,0333,0337,"
  ]
}</json>-->	<path d = "M300 573 L300 443 L100 508 L300 573 Z" stroke = "#000000" stroke-width = "1" fill = "none" />    <line x1="300" y1="573" x2="224" y2="468" style="stroke:#ff0000;stroke-width:1" />
    <line x1="224" y1="468" x2="224" y2="548" style="stroke:#ff0000;stroke-width:1" />
    <line x1="224" y1="548" x2="177" y2="483" style="stroke:#ff0000;stroke-width:1" />
    <line x1="177" y1="483" x2="177" y2="533" style="stroke:#ff0000;stroke-width:1" />
    <line x1="177" y1="533" x2="148" y2="493" style="stroke:#ff0000;stroke-width:1" />
    <line x1="148" y1="493" x2="148" y2="523" style="stroke:#ff0000;stroke-width:1" />
    <line x1="148" y1="523" x2="130" y2="498" style="stroke:#ff0000;stroke-width:1" />
    <line x1="130" y1="498" x2="130" y2="517" style="stroke:#ff0000;stroke-width:1" />
    <line x1="130" y1="517" x2="118" y2="502" style="stroke:#ff0000;stroke-width:1" />
    <line x1="118" y1="502" x2="118" y2="514" style="stroke:#ff0000;stroke-width:1" />
	<path d = "M300 443 L300 313 L100 378 L300 443 Z" stroke = "#000000" stroke-width = "1" fill = "none" />    <line x1="300" y1="443" x2="224" y2="338" style="stroke:#ff0000;stroke-width:1" />
    <line x1="224" y1="338" x2="224" y2="418" style="stroke:#ff0000;stroke-width:1" />
    <line x1="224" y1="418" x2="177" y2="353" style="stroke:#ff0000;stroke-width:1" />
    <line x1="177" y1="353" x2="177" y2="403" style="stroke:#ff0000;stroke-width:1" />
    <line x1="177" y1="403" x2="148" y2="363" style="stroke:#ff0000;stroke-width:1" />
    <line x1="148" y1="363" x2="148" y2="394" style="stroke:#ff0000;stroke-width:1" />
    <line x1="148" y1="394" x2="130" y2="369" style="stroke:#ff0000;stroke-width:1" />
    <line x1="130" y1="369" x2="130" y2="388" style="stroke:#ff0000;stroke-width:1" />
    <line x1="130" y1="388" x2="118" y2="372" style="stroke:#ff0000;stroke-width:1" />
    <line x1="118" y1="372" x2="118" y2="384" style="stroke:#ff0000;stroke-width:1" />
	<path d = "M300 313 L300 184 L100 249 L300 313 Z" stroke = "#000000" stroke-width = "1" fill = "none" />    <line x1="300" y1="313" x2="224" y2="208" style="stroke:#ff0000;stroke-width:1" />
    <line x1="224" y1="208" x2="224" y2="289" style="stroke:#ff0000;stroke-width:1" />
    <line x1="224" y1="289" x2="177" y2="224" style="stroke:#ff0000;stroke-width:1" />
    <line x1="177" y1="224" x2="177" y2="273" style="stroke:#ff0000;stroke-width:1" />
    <line x1="177" y1="273" x2="148" y2="233" style="stroke:#ff0000;stroke-width:1" />
    <line x1="148" y1="233" x2="148" y2="264" style="stroke:#ff0000;stroke-width:1" />
    <line x1="148" y1="264" x2="130" y2="239" style="stroke:#ff0000;stroke-width:1" />
    <line x1="130" y1="239" x2="130" y2="258" style="stroke:#ff0000;stroke-width:1" />
    <line x1="130" y1="258" x2="118" y2="243" style="stroke:#ff0000;stroke-width:1" />
    <line x1="118" y1="243" x2="118" y2="254" style="stroke:#ff0000;stroke-width:1" />
	<path d = "M300 184 L300 54 L100 119 L300 184 Z" stroke = "#000000" stroke-width = "1" fill = "none" />    <line x1="300" y1="184" x2="224" y2="79" style="stroke:#ff0000;stroke-width:1" />
    <line x1="224" y1="79" x2="224" y2="159" style="stroke:#ff0000;stroke-width:1" />
    <line x1="224" y1="159" x2="177" y2="94" style="stroke:#ff0000;stroke-width:1" />
    <line x1="177" y1="94" x2="177" y2="144" style="stroke:#ff0000;stroke-width:1" />
    <line x1="177" y1="144" x2="148" y2="104" style="stroke:#ff0000;stroke-width:1" />
    <line x1="148" y1="104" x2="148" y2="134" style="stroke:#ff0000;stroke-width:1" />
    <line x1="148" y1="134" x2="130" y2="109" style="stroke:#ff0000;stroke-width:1" />
    <line x1="130" y1="109" x2="130" y2="128" style="stroke:#ff0000;stroke-width:1" />
    <line x1="130" y1="128" x2="118" y2="113" style="stroke:#ff0000;stroke-width:1" />
    <line x1="118" y1="113" x2="118" y2="125" style="stroke:#ff0000;stroke-width:1" />
	<path d = "M300 54 L300 184 L500 119 L300 54 Z" stroke = "#000000" stroke-width = "1" fill = "none" />    <line x1="300" y1="54" x2="376" y2="159" style="stroke:#ff0000;stroke-width:1" />
    <line x1="376" y1="159" x2="376" y2="79" style="stroke:#ff0000;stroke-width:1" />
    <line x1="376" y1="79" x2="423" y2="144" style="stroke:#ff0000;stroke-width:1" />
    <line x1="423" y1="144" x2="423" y2="94" style="stroke:#ff0000;stroke-width:1" />
    <line x1="423" y1="94" x2="452" y2="134" style="stroke:#ff0000;stroke-width:1" />
    <line x1="452" y1="134" x2="452" y2="104" style="stroke:#ff0000;stroke-width:1" />
    <line x1="452" y1="104" x2="470" y2="128" style="stroke:#ff0000;stroke-width:1" />
    <line x1="470" y1="128" x2="470" y2="109" style="stroke:#ff0000;stroke-width:1" />
    <line x1="470" y1="109" x2="482" y2="125" style="stroke:#ff0000;stroke-width:1" />
    <line x1="482" y1="125" x2="482" y2="113" style="stroke:#ff0000;stroke-width:1" />
	<path d = "M300 184 L300 313 L500 249 L300 184 Z" stroke = "#000000" stroke-width = "1" fill = "none" />    <line x1="300" y1="184" x2="376" y2="289" style="stroke:#ff0000;stroke-width:1" />
    <line x1="376" y1="289" x2="376" y2="208" style="stroke:#ff0000;stroke-width:1" />
    <line x1="376" y1="208" x2="423" y2="273" style="stroke:#ff0000;stroke-width:1" />
    <line x1="423" y1="273" x2="423" y2="224" style="stroke:#ff0000;stroke-width:1" />
    <line x1="423" y1="224" x2="452" y2="264" style="stroke:#ff0000;stroke-width:1" />
    <line x1="452" y1="264" x2="452" y2="233" style="stroke:#ff0000;stroke-width:1" />
    <line x1="452" y1="233" x2="470" y2="258" style="stroke:#ff0000;stroke-width:1" />
    <line x1="470" y1="258" x2="470" y2="239" style="stroke:#ff0000;stroke-width:1" />
    <line x1="470" y1="239" x2="482" y2="254" style="stroke:#ff0000;stroke-width:1" />
    <line x1="482" y1="254" x2="482" y2="243" style="stroke:#ff0000;stroke-width:1" />
	<path d = "M300 313 L300 443 L500 378 L300 313 Z" stroke = "#000000" stroke-width = "1" fill = "none" />    <line x1="300" y1="313" x2="376" y2="418" style="stroke:#ff0000;stroke-width:1" />
    <line x1="376" y1="418" x2="376" y2="338" style="stroke:#ff0000;stroke-width:1" />
    <line x1="376" y1="338" x2="423" y2="403" style="stroke:#ff0000;stroke-width:1" />
    <line x1="423" y1="403" x2="423" y2="353" style="stroke:#ff0000;stroke-width:1" />
    <line x1="423" y1="353" x2="452" y2="394" style="stroke:#ff0000;stroke-width:1" />
    <line x1="452" y1="394" x2="452" y2="363" style="stroke:#ff0000;stroke-width:1" />
    <line x1="452" y1="363" x2="470" y2="388" style="stroke:#ff0000;stroke-width:1" />
    <line x1="470" y1="388" x2="470" y2="369" style="stroke:#ff0000;stroke-width:1" />
    <line x1="470" y1="369" x2="482" y2="384" style="stroke:#ff0000;stroke-width:1" />
    <line x1="482" y1="384" x2="482" y2="372" style="stroke:#ff0000;stroke-width:1" />
	<path d = "M300 443 L300 573 L500 508 L300 443 Z" stroke = "#000000" stroke-width = "1" fill = "none" />    <line x1="300" y1="443" x2="376" y2="548" style="stroke:#ff0000;stroke-width:1" />
    <line x1="376" y1="548" x2="376" y2="468" style="stroke:#ff0000;stroke-width:1" />
    <line x1="376" y1="468" x2="423" y2="533" style="stroke:#ff0000;stroke-width:1" />
    <line x1="423" y1="533" x2="423" y2="483" style="stroke:#ff0000;stroke-width:1" />
    <line x1="423" y1="483" x2="452" y2="523" style="stroke:#ff0000;stroke-width:1" />
    <line x1="452" y1="523" x2="452" y2="493" style="stroke:#ff0000;stroke-width:1" />
    <line x1="452" y1="493" x2="470" y2="517" style="stroke:#ff0000;stroke-width:1" />
    <line x1="470" y1="517" x2="470" y2="498" style="stroke:#ff0000;stroke-width:1" />
    <line x1="470" y1="498" x2="482" y2="514" style="stroke:#ff0000;stroke-width:1" />
    <line x1="482" y1="514" x2="482" y2="502" style="stroke:#ff0000;stroke-width:1" />
	<path d = "M500 508 L500 378 L300 443 L500 508 Z" stroke = "#000000" stroke-width = "1" fill = "none" />    <line x1="500" y1="508" x2="423" y2="403" style="stroke:#ff0000;stroke-width:1" />
    <line x1="423" y1="403" x2="423" y2="483" style="stroke:#ff0000;stroke-width:1" />
    <line x1="423" y1="483" x2="376" y2="418" style="stroke:#ff0000;stroke-width:1" />
    <line x1="376" y1="418" x2="376" y2="468" style="stroke:#ff0000;stroke-width:1" />
    <line x1="376" y1="468" x2="347" y2="428" style="stroke:#ff0000;stroke-width:1" />
    <line x1="347" y1="428" x2="347" y2="458" style="stroke:#ff0000;stroke-width:1" />
    <line x1="347" y1="458" x2="329" y2="434" style="stroke:#ff0000;stroke-width:1" />
    <line x1="329" y1="434" x2="329" y2="453" style="stroke:#ff0000;stroke-width:1" />
    <line x1="329" y1="453" x2="318" y2="437" style="stroke:#ff0000;stroke-width:1" />
    <line x1="318" y1="437" x2="318" y2="449" style="stroke:#ff0000;stroke-width:1" />
	<path d = "M500 378 L500 249 L300 313 L500 378 Z" stroke = "#000000" stroke-width = "1" fill = "none" />    <line x1="500" y1="378" x2="423" y2="273" style="stroke:#ff0000;stroke-width:1" />
    <line x1="423" y1="273" x2="423" y2="353" style="stroke:#ff0000;stroke-width:1" />
    <line x1="423" y1="353" x2="376" y2="289" style="stroke:#ff0000;stroke-width:1" />
    <line x1="376" y1="289" x2="376" y2="338" style="stroke:#ff0000;stroke-width:1" />
    <line x1="376" y1="338" x2="347" y2="298" style="stroke:#ff0000;stroke-width:1" />
    <line x1="347" y1="298" x2="347" y2="329" style="stroke:#ff0000;stroke-width:1" />
    <line x1="347" y1="329" x2="329" y2="304" style="stroke:#ff0000;stroke-width:1" />
    <line x1="329" y1="304" x2="329" y2="323" style="stroke:#ff0000;stroke-width:1" />
    <line x1="329" y1="323" x2="318" y2="308" style="stroke:#ff0000;stroke-width:1" />
    <line x1="318" y1="308" x2="318" y2="319" style="stroke:#ff0000;stroke-width:1" />
	<path d = "M500 249 L500 119 L300 184 L500 249 Z" stroke = "#000000" stroke-width = "1" fill = "none" />    <line x1="500" y1="249" x2="423" y2="144" style="stroke:#ff0000;stroke-width:1" />
    <line x1="423" y1="144" x2="423" y2="224" style="stroke:#ff0000;stroke-width:1" />
    <line x1="423" y1="224" x2="376" y2="159" style="stroke:#ff0000;stroke-width:1" />
    <line x1="376" y1="159" x2="376" y2="208" style="stroke:#ff0000;stroke-width:1" />
    <line x1="376" y1="208" x2="347" y2="168" style="stroke:#ff0000;stroke-width:1" />
    <line x1="347" y1="168" x2="347" y2="199" style="stroke:#ff0000;stroke-width:1" />
    <line x1="347" y1="199" x2="329" y2="174" style="stroke:#ff0000;stroke-width:1" />
    <line x1="329" y1="174" x2="329" y2="193" style="stroke:#ff0000;stroke-width:1" />
    <line x1="329" y1="193" x2="318" y2="178" style="stroke:#ff0000;stroke-width:1" />
    <line x1="318" y1="178" x2="318" y2="190" style="stroke:#ff0000;stroke-width:1" />
	<path d = "M100 378 L100 508 L300 443 L100 378 Z" stroke = "#000000" stroke-width = "1" fill = "none" />    <line x1="100" y1="378" x2="177" y2="483" style="stroke:#ff0000;stroke-width:1" />
    <line x1="177" y1="483" x2="177" y2="403" style="stroke:#ff0000;stroke-width:1" />
    <line x1="177" y1="403" x2="224" y2="468" style="stroke:#ff0000;stroke-width:1" />
    <line x1="224" y1="468" x2="224" y2="418" style="stroke:#ff0000;stroke-width:1" />
    <line x1="224" y1="418" x2="253" y2="458" style="stroke:#ff0000;stroke-width:1" />
    <line x1="253" y1="458" x2="253" y2="428" style="stroke:#ff0000;stroke-width:1" />
    <line x1="253" y1="428" x2="271" y2="453" style="stroke:#ff0000;stroke-width:1" />
    <line x1="271" y1="453" x2="271" y2="434" style="stroke:#ff0000;stroke-width:1" />
    <line x1="271" y1="434" x2="282" y2="449" style="stroke:#ff0000;stroke-width:1" />
    <line x1="282" y1="449" x2="282" y2="437" style="stroke:#ff0000;stroke-width:1" />
	<path d = "M100 119 L100 249 L300 184 L100 119 Z" stroke = "#000000" stroke-width = "1" fill = "none" />    <line x1="100" y1="119" x2="177" y2="224" style="stroke:#ff0000;stroke-width:1" />
    <line x1="177" y1="224" x2="177" y2="144" style="stroke:#ff0000;stroke-width:1" />
    <line x1="177" y1="144" x2="224" y2="208" style="stroke:#ff0000;stroke-width:1" />
    <line x1="224" y1="208" x2="224" y2="159" style="stroke:#ff0000;stroke-width:1" />
    <line x1="224" y1="159" x2="253" y2="199" style="stroke:#ff0000;stroke-width:1" />
    <line x1="253" y1="199" x2="253" y2="168" style="stroke:#ff0000;stroke-width:1" />
    <line x1="253" y1="168" x2="271" y2="193" style="stroke:#ff0000;stroke-width:1" />
    <line x1="271" y1="193" x2="271" y2="174" style="stroke:#ff0000;stroke-width:1" />
    <line x1="271" y1="174" x2="282" y2="190" style="stroke:#ff0000;stroke-width:1" />
    <line x1="282" y1="190" x2="282" y2="178" style="stroke:#ff0000;stroke-width:1" />
	<path d = "M100 249 L100 378 L300 313 L100 249 Z" stroke = "#000000" stroke-width = "1" fill = "none" />    <line x1="100" y1="249" x2="177" y2="353" style="stroke:#ff0000;stroke-width:1" />
    <line x1="177" y1="353" x2="177" y2="273" style="stroke:#ff0000;stroke-width:1" />
    <line x1="177" y1="273" x2="224" y2="338" style="stroke:#ff0000;stroke-width:1" />
    <line x1="224" y1="338" x2="224" y2="289" style="stroke:#ff0000;stroke-width:1" />
    <line x1="224" y1="289" x2="253" y2="329" style="stroke:#ff0000;stroke-width:1" />
    <line x1="253" y1="329" x2="253" y2="298" style="stroke:#ff0000;stroke-width:1" />
    <line x1="253" y1="298" x2="271" y2="323" style="stroke:#ff0000;stroke-width:1" />
    <line x1="271" y1="323" x2="271" y2="304" style="stroke:#ff0000;stroke-width:1" />
    <line x1="271" y1="304" x2="282" y2="319" style="stroke:#ff0000;stroke-width:1" />
    <line x1="282" y1="319" x2="282" y2="308" style="stroke:#ff0000;stroke-width:1" />
</svg>