<svg width="600" height="700" viewbox = "0 0 600 700"  xmlns="http://www.w3.org/2000/svg">
<!--<json>{
  "glyph": "0330,0330,0333,0336,0336,0333,0333,0232,0221,0230,0220,0230,0221,0230,0231,0221,0230,0220,0230,0223,0230,0231,0221,0230,0220,0230,0221,0230,0231,0221,0230,0220,0230,0222,0230,0231,0234,0330,0330,0330,0330,0330,0330,0330,0330,0330,0330,0330,0330,0235,0220,0230,0226,0230,0224,0230,0231,0220,0230,0226,0230,0222,0230,0231,0220,0230,0226,0230,0220,0230,0231,0234,0330,0330,0330,0330,0330,0330,0330,0330,0330,0235,0220,0230,0226,0230,0226,0230,0231,0220,0230,0227,0230,0221,0230,0231,0233,",
  "x0": 300,
  "y0": 404.11047745218474,
  "unit": 117.89738455000011,
  "width": 600,
  "height": 700,
  "style": {
    "color0": "black",
    "fill0": "black",
    "line0": 1,
    "color1": "black",
    "fill1": "black",
    "line1": 5,
    "color2": "red",
    "fill2": "red",
    "line2": 1,
    "color3": "#FF7900",
    "fill3": "#FF7900",
    "line3": 1,
    "color4": "yellow",
    "fill4": "yellow",
    "line4": 1,
    "color5": "green",
    "fill5": "green",
    "line5": 1,
    "color6": "blue",
    "fill6": "blue",
    "line6": 1,
    "color7": "purple",
    "fill7": "purple",
    "line7": 1
  },
  "shapes": [
    "0220:0520,",
    "0221:0521,",
    "0222:0522,",
    "0223:0523,",
    "0224:0524,",
    "0225:0525,",
    "0226:0526,",
    "0227:0527,",
    "0230:0530,",
    "0231:0531,",
    "0232:0532,",
    "0233:0533,",
    "0234:0331,0534,",
    "0235:0535,",
    "0236:0536,",
    "0237:0220,0336,0331,0332,0336,0321,0342,0335,0342,0335,0342,0335,0342,0335,0330,0330,0333,0333,0337,0337,",
    "01220:0333,0200,",
    "01221:0333,0200,0336,0336,0330,0221,0337,0337,",
    "01222:0333,0200,0336,0336,0330,0222,0337,0337,",
    "01223:0333,0200,0336,0336,0330,0223,0337,0337,",
    "01224:0333,0200,0336,0336,0330,0224,0337,0337,",
    "01225:0333,0200,0336,0336,0330,0225,0337,0337,",
    "01226:0333,0200,0336,0336,0330,0226,0337,0337,",
    "01227:0333,0200,0336,0336,0330,0227,0337,0337,",
    "01230:0333,0200,0336,0336,0330,0230,0331,0337,0337,",
    "01231:0333,0200,0336,0336,0330,0231,0331,0337,0337,",
    "01232:0333,0200,0336,0336,0232,0337,0337,",
    "01233:0333,0200,0336,0336,0330,0233,0331,0330,0337,0337,",
    "01234:0333,0200,0336,0336,0330,0330,0330,0234,0331,0331,0333,0333,0331,0331,0333,0333,0337,0337,0333,0333,0333,",
    "01235:0333,0200,0336,0336,0330,0235,0331,0333,0337,0337,",
    "01236:0333,0200,",
    "01237:0333,0200,",
    "0240:0220,0336,0331,0333,0336,0321,0335,0342,0335,0335,0342,0335,0330,0330,0332,0332,0337,0337,",
    "01240:0333,0200,0336,0330,0332,0210,0240,0211,0333,0331,0337,",
    "0241:0220,0336,0321,0343,0332,0350,0335,0336,0342,0334,0334,0342,0335,0304,0337,0333,0337,",
    "01241:0333,0200,0336,0332,0330,0210,0241,0211,0333,0331,0337,",
    "0242:0220,0321,0336,0343,0333,0336,0350,0335,0342,0334,0334,0342,0335,0337,0304,0332,0337,",
    "01242:0333,0200,0336,0330,0332,0210,0242,0211,0333,0331,0337,",
    "0243:0220,0336,0331,0332,0336,0321,0343,0332,0350,0334,0336,0342,0335,0335,0342,0337,0334,0334,0335,0304,0332,0330,0330,0337,0337,0333,",
    "01243:0333,0200,0336,0330,0332,0210,0243,0211,0333,0331,0337,",
    "0244:0220,0336,0331,0333,0336,0321,0343,0333,0350,0336,0335,0342,0334,0334,0342,0335,0337,0304,0333,0330,0330,0337,0337,0332,",
    "01244:0333,0200,0336,0330,0332,0210,0244,0211,0333,0331,0337,",
    "0245:0210,0332,0332,0362,0335,0203,0203,0203,0203,0334,0203,0363,0332,0332,0331,0211,",
    "01245:0333,0200,0336,0330,0332,0336,0245,0337,0333,0331,0337,",
    "0246:0210,0332,0332,0335,0306,0336,0330,0335,0335,0335,0321,0362,0203,0335,0335,0203,0364,0331,0350,0335,0337,0366,0333,0333,0333,0333,0334,0334,0334,0334,0367,0335,0336,0342,0334,0334,0342,0330,0330,0330,0330,0335,0335,0335,0304,0337,0211,",
    "01246:0333,0200,0336,0330,0332,0336,0246,",
    "0247:0330,0332,0336,0332,0336,0221,0333,0333,0333,0222,0333,0333,0333,0223,0333,0333,0333,0225,0333,0331,0331,0331,0332,0332,0332,0332,0332,0332,0332,0332,0332,0332,0332,0332,0333,0333,0226,0331,0331,0331,0333,0333,0333,0333,0333,0333,0333,0333,0333,0333,0333,0333,0333,0330,0333,0330,0330,0333,0330,0331,0332,0332,0332,0332,0332,0332,0332,0332,0332,0332,0332,0332,0227,0333,0333,0333,0230,0333,0331,0331,0331,0331,0332,0332,0332,0330,0332,0332,0332,0332,0332,0332,0333,0333,0231,0333,0333,0333,0232,0331,0333,0330,0333,0333,0233,0333,0333,0333,0234,0330,0330,0332,0330,0332,0332,0337,0337,",
    "01247:0333,0200,0336,0330,0332,0220,0336,0247,0337,0331,0333,0337,"
  ]
}</json>-->	<path d = "M477 168 L477 139 L447 168 L477 168 Z" stroke = "#000000" stroke-width = "1" fill = "#000000" />	<path d = "M388 168 L388 139 L418 168 L388 168 Z" stroke = "#000000" stroke-width = "1" fill = "#000000" />	<path d = "M433 168 L462 139 L403 139 L433 168 Z" stroke = "#000000" stroke-width = "1" fill = "#000000" />    <circle cx="462" cy = "183" r = "14.737173068750012" stroke = "#000000" stroke-width = "1" fill = "#000000" />
    <line x1="477" y1="198" x2="477" y2="168" style="stroke:#000000;stroke-width:1" />
    <line x1="388" y1="198" x2="388" y2="168" style="stroke:#000000;stroke-width:1" />
    <line x1="477" y1="198" x2="492" y2="198" style="stroke:#000000;stroke-width:1" />
    <line x1="477" y1="227" x2="477" y2="198" style="stroke:#000000;stroke-width:1" />
    <line x1="388" y1="227" x2="388" y2="198" style="stroke:#000000;stroke-width:1" />
    <line x1="477" y1="227" x2="492" y2="227" style="stroke:#000000;stroke-width:1" />
    <circle cx="462" cy = "242" r = "14.737173068750012" stroke = "#000000" stroke-width = "1" fill = "#000000" />
    <line x1="477" y1="257" x2="477" y2="227" style="stroke:#000000;stroke-width:1" />
    <line x1="388" y1="257" x2="388" y2="227" style="stroke:#000000;stroke-width:1" />
    <line x1="477" y1="257" x2="492" y2="257" style="stroke:#000000;stroke-width:1" />
    <line x1="388" y1="257" x2="374" y2="257" style="stroke:#000000;stroke-width:1" />
    <line x1="388" y1="257" x2="418" y2="257" style="stroke:#000000;stroke-width:1" />
    <line x1="418" y1="257" x2="447" y2="257" style="stroke:#000000;stroke-width:1" />
    <line x1="447" y1="257" x2="477" y2="257" style="stroke:#000000;stroke-width:1" />
    <line x1="447" y1="264" x2="447" y2="249" style="stroke:#000000;stroke-width:1" />
    <line x1="418" y1="264" x2="418" y2="249" style="stroke:#000000;stroke-width:1" />
    <circle cx="462" cy = "271" r = "14.737173068750012" stroke = "#000000" stroke-width = "1" fill = "#000000" />
    <line x1="477" y1="286" x2="477" y2="257" style="stroke:#000000;stroke-width:1" />
    <line x1="388" y1="286" x2="388" y2="257" style="stroke:#000000;stroke-width:1" />
    <line x1="477" y1="286" x2="492" y2="286" style="stroke:#000000;stroke-width:1" />
    <line x1="477" y1="316" x2="477" y2="286" style="stroke:#000000;stroke-width:1" />
    <line x1="388" y1="316" x2="388" y2="286" style="stroke:#000000;stroke-width:1" />
    <line x1="477" y1="316" x2="492" y2="316" style="stroke:#000000;stroke-width:1" />
    <circle cx="462" cy = "330" r = "14.737173068750012" stroke = "#000000" stroke-width = "1" fill = "#000000" />
    <circle cx="433" cy = "330" r = "14.737173068750012" stroke = "#000000" stroke-width = "1" fill = "#000000" />
    <line x1="477" y1="345" x2="477" y2="316" style="stroke:#000000;stroke-width:1" />
    <line x1="388" y1="345" x2="388" y2="316" style="stroke:#000000;stroke-width:1" />
    <line x1="477" y1="345" x2="492" y2="345" style="stroke:#000000;stroke-width:1" />
    <line x1="388" y1="345" x2="374" y2="345" style="stroke:#000000;stroke-width:1" />
    <line x1="388" y1="345" x2="418" y2="345" style="stroke:#000000;stroke-width:1" />
    <line x1="418" y1="345" x2="447" y2="345" style="stroke:#000000;stroke-width:1" />
    <line x1="447" y1="345" x2="477" y2="345" style="stroke:#000000;stroke-width:1" />
    <line x1="447" y1="353" x2="447" y2="338" style="stroke:#000000;stroke-width:1" />
    <line x1="418" y1="353" x2="418" y2="338" style="stroke:#000000;stroke-width:1" />
    <circle cx="462" cy = "360" r = "14.737173068750012" stroke = "#000000" stroke-width = "1" fill = "#000000" />
    <line x1="477" y1="375" x2="477" y2="345" style="stroke:#000000;stroke-width:1" />
    <line x1="388" y1="375" x2="388" y2="345" style="stroke:#000000;stroke-width:1" />
    <line x1="477" y1="375" x2="492" y2="375" style="stroke:#000000;stroke-width:1" />
    <line x1="477" y1="404" x2="477" y2="375" style="stroke:#000000;stroke-width:1" />
    <line x1="388" y1="404" x2="388" y2="375" style="stroke:#000000;stroke-width:1" />
    <line x1="477" y1="404" x2="492" y2="404" style="stroke:#000000;stroke-width:1" />
    <circle cx="462" cy = "419" r = "14.737173068750012" stroke = "#000000" stroke-width = "1" fill = "#000000" />
    <line x1="477" y1="434" x2="477" y2="404" style="stroke:#000000;stroke-width:1" />
    <line x1="388" y1="434" x2="388" y2="404" style="stroke:#000000;stroke-width:1" />
    <line x1="477" y1="434" x2="492" y2="434" style="stroke:#000000;stroke-width:1" />
    <line x1="388" y1="434" x2="374" y2="434" style="stroke:#000000;stroke-width:1" />
    <line x1="388" y1="434" x2="418" y2="434" style="stroke:#000000;stroke-width:1" />
    <line x1="418" y1="434" x2="447" y2="434" style="stroke:#000000;stroke-width:1" />
    <line x1="447" y1="434" x2="477" y2="434" style="stroke:#000000;stroke-width:1" />
    <line x1="447" y1="441" x2="447" y2="426" style="stroke:#000000;stroke-width:1" />
    <line x1="418" y1="441" x2="418" y2="426" style="stroke:#000000;stroke-width:1" />
    <circle cx="462" cy = "448" r = "14.737173068750012" stroke = "#000000" stroke-width = "1" fill = "#000000" />
    <line x1="477" y1="463" x2="477" y2="434" style="stroke:#000000;stroke-width:1" />
    <line x1="388" y1="463" x2="388" y2="434" style="stroke:#000000;stroke-width:1" />
    <line x1="477" y1="463" x2="492" y2="463" style="stroke:#000000;stroke-width:1" />
    <line x1="477" y1="493" x2="477" y2="463" style="stroke:#000000;stroke-width:1" />
    <line x1="388" y1="493" x2="388" y2="463" style="stroke:#000000;stroke-width:1" />
    <line x1="477" y1="493" x2="492" y2="493" style="stroke:#000000;stroke-width:1" />
    <circle cx="433" cy = "507" r = "14.737173068750012" stroke = "#000000" stroke-width = "1" fill = "#000000" />
    <line x1="477" y1="522" x2="477" y2="493" style="stroke:#000000;stroke-width:1" />
    <line x1="388" y1="522" x2="388" y2="493" style="stroke:#000000;stroke-width:1" />
    <line x1="477" y1="522" x2="492" y2="522" style="stroke:#000000;stroke-width:1" />
    <line x1="388" y1="522" x2="374" y2="522" style="stroke:#000000;stroke-width:1" />
    <line x1="388" y1="522" x2="418" y2="522" style="stroke:#000000;stroke-width:1" />
    <line x1="418" y1="522" x2="447" y2="522" style="stroke:#000000;stroke-width:1" />
    <line x1="447" y1="522" x2="477" y2="522" style="stroke:#000000;stroke-width:1" />
    <line x1="447" y1="529" x2="447" y2="515" style="stroke:#000000;stroke-width:1" />
    <line x1="418" y1="529" x2="418" y2="515" style="stroke:#000000;stroke-width:1" />
    <line x1="477" y1="551" x2="447" y2="551" style="stroke:#000000;stroke-width:1" />
    <line x1="447" y1="551" x2="418" y2="551" style="stroke:#000000;stroke-width:1" />
    <line x1="418" y1="551" x2="388" y2="551" style="stroke:#000000;stroke-width:1" />
    <line x1="388" y1="551" x2="388" y2="522" style="stroke:#000000;stroke-width:1" />
    <line x1="388" y1="522" x2="418" y2="522" style="stroke:#000000;stroke-width:1" />
    <line x1="418" y1="522" x2="447" y2="522" style="stroke:#000000;stroke-width:1" />
    <line x1="447" y1="522" x2="477" y2="522" style="stroke:#000000;stroke-width:1" />
    <line x1="477" y1="551" x2="477" y2="522" style="stroke:#000000;stroke-width:1" />
	<path d = "M447 551 L447 522 L418 522 L418 551 L447 551 Z" stroke = "#000000" stroke-width = "1" fill = "#000000" />  <path d="M432.63455761874985 551.482208139685           A44.21151920625004 44.21151920625004 0 0 1 388.4230384124997 595.693727345935" fill = "none" stroke = "#000000" stroke-width = "5" />
	<path d = "M359 596 L388 625 L388 566 L359 596 Z" stroke = "#000000" stroke-width = "1" fill = "#000000" />	<path d = "M388 551 L388 522 L359 551 L388 551 Z" stroke = "#000000" stroke-width = "1" fill = "#000000" />	<path d = "M359 139 L329 139 L329 168 L359 139 Z" stroke = "#000000" stroke-width = "1" fill = "#000000" />    <line x1="329" y1="168" x2="300" y2="168" style="stroke:#000000;stroke-width:1" />
    <line x1="300" y1="168" x2="271" y2="168" style="stroke:#000000;stroke-width:1" />
    <line x1="271" y1="168" x2="241" y2="168" style="stroke:#000000;stroke-width:1" />
    <line x1="241" y1="168" x2="241" y2="139" style="stroke:#000000;stroke-width:1" />
    <line x1="241" y1="139" x2="271" y2="139" style="stroke:#000000;stroke-width:1" />
    <line x1="271" y1="139" x2="300" y2="139" style="stroke:#000000;stroke-width:1" />
    <line x1="300" y1="139" x2="329" y2="139" style="stroke:#000000;stroke-width:1" />
	<path d = "M285 168 L315 139 L256 139 L285 168 Z" stroke = "#000000" stroke-width = "1" fill = "#000000" />  <path d="M285.2628269312449 138.84136221468555           A44.21151920625004 44.21151920625004 0 0 1 329.4743461374943 94.6298430084351" fill = "none" stroke = "#000000" stroke-width = "5" />
    <line x1="329" y1="198" x2="329" y2="168" style="stroke:#000000;stroke-width:1" />
    <line x1="241" y1="198" x2="241" y2="168" style="stroke:#000000;stroke-width:1" />
    <line x1="329" y1="198" x2="344" y2="198" style="stroke:#000000;stroke-width:1" />
    <circle cx="256" cy = "213" r = "14.737173068750012" stroke = "#000000" stroke-width = "1" fill = "#000000" />
    <circle cx="285" cy = "213" r = "14.737173068750012" stroke = "#000000" stroke-width = "1" fill = "#000000" />
    <line x1="329" y1="227" x2="329" y2="198" style="stroke:#000000;stroke-width:1" />
    <line x1="241" y1="227" x2="241" y2="198" style="stroke:#000000;stroke-width:1" />
    <line x1="329" y1="227" x2="344" y2="227" style="stroke:#000000;stroke-width:1" />
    <circle cx="256" cy = "242" r = "14.737173068750012" stroke = "#000000" stroke-width = "1" fill = "#000000" />
    <line x1="329" y1="257" x2="329" y2="227" style="stroke:#000000;stroke-width:1" />
    <line x1="241" y1="257" x2="241" y2="227" style="stroke:#000000;stroke-width:1" />
    <line x1="329" y1="257" x2="344" y2="257" style="stroke:#000000;stroke-width:1" />
    <line x1="241" y1="257" x2="226" y2="257" style="stroke:#000000;stroke-width:1" />
    <line x1="241" y1="257" x2="271" y2="257" style="stroke:#000000;stroke-width:1" />
    <line x1="271" y1="257" x2="300" y2="257" style="stroke:#000000;stroke-width:1" />
    <line x1="300" y1="257" x2="329" y2="257" style="stroke:#000000;stroke-width:1" />
    <line x1="300" y1="264" x2="300" y2="249" style="stroke:#000000;stroke-width:1" />
    <line x1="271" y1="264" x2="271" y2="249" style="stroke:#000000;stroke-width:1" />
    <line x1="329" y1="286" x2="329" y2="257" style="stroke:#000000;stroke-width:1" />
    <line x1="241" y1="286" x2="241" y2="257" style="stroke:#000000;stroke-width:1" />
    <line x1="329" y1="286" x2="344" y2="286" style="stroke:#000000;stroke-width:1" />
    <circle cx="256" cy = "301" r = "14.737173068750012" stroke = "#000000" stroke-width = "1" fill = "#000000" />
    <circle cx="285" cy = "301" r = "14.737173068750012" stroke = "#000000" stroke-width = "1" fill = "#000000" />
    <line x1="329" y1="316" x2="329" y2="286" style="stroke:#000000;stroke-width:1" />
    <line x1="241" y1="316" x2="241" y2="286" style="stroke:#000000;stroke-width:1" />
    <line x1="329" y1="316" x2="344" y2="316" style="stroke:#000000;stroke-width:1" />
    <circle cx="285" cy = "330" r = "14.737173068750012" stroke = "#000000" stroke-width = "1" fill = "#000000" />
    <line x1="329" y1="345" x2="329" y2="316" style="stroke:#000000;stroke-width:1" />
    <line x1="241" y1="345" x2="241" y2="316" style="stroke:#000000;stroke-width:1" />
    <line x1="329" y1="345" x2="344" y2="345" style="stroke:#000000;stroke-width:1" />
    <line x1="241" y1="345" x2="226" y2="345" style="stroke:#000000;stroke-width:1" />
    <line x1="241" y1="345" x2="271" y2="345" style="stroke:#000000;stroke-width:1" />
    <line x1="271" y1="345" x2="300" y2="345" style="stroke:#000000;stroke-width:1" />
    <line x1="300" y1="345" x2="329" y2="345" style="stroke:#000000;stroke-width:1" />
    <line x1="300" y1="353" x2="300" y2="338" style="stroke:#000000;stroke-width:1" />
    <line x1="271" y1="353" x2="271" y2="338" style="stroke:#000000;stroke-width:1" />
    <line x1="329" y1="375" x2="329" y2="345" style="stroke:#000000;stroke-width:1" />
    <line x1="241" y1="375" x2="241" y2="345" style="stroke:#000000;stroke-width:1" />
    <line x1="329" y1="375" x2="344" y2="375" style="stroke:#000000;stroke-width:1" />
    <circle cx="256" cy = "389" r = "14.737173068750012" stroke = "#000000" stroke-width = "1" fill = "#000000" />
    <circle cx="285" cy = "389" r = "14.737173068750012" stroke = "#000000" stroke-width = "1" fill = "#000000" />
    <line x1="329" y1="404" x2="329" y2="375" style="stroke:#000000;stroke-width:1" />
    <line x1="241" y1="404" x2="241" y2="375" style="stroke:#000000;stroke-width:1" />
    <line x1="329" y1="404" x2="344" y2="404" style="stroke:#000000;stroke-width:1" />
    <line x1="329" y1="434" x2="329" y2="404" style="stroke:#000000;stroke-width:1" />
    <line x1="241" y1="434" x2="241" y2="404" style="stroke:#000000;stroke-width:1" />
    <line x1="329" y1="434" x2="344" y2="434" style="stroke:#000000;stroke-width:1" />
    <line x1="241" y1="434" x2="226" y2="434" style="stroke:#000000;stroke-width:1" />
    <line x1="241" y1="434" x2="271" y2="434" style="stroke:#000000;stroke-width:1" />
    <line x1="271" y1="434" x2="300" y2="434" style="stroke:#000000;stroke-width:1" />
    <line x1="300" y1="434" x2="329" y2="434" style="stroke:#000000;stroke-width:1" />
    <line x1="300" y1="441" x2="300" y2="426" style="stroke:#000000;stroke-width:1" />
    <line x1="271" y1="441" x2="271" y2="426" style="stroke:#000000;stroke-width:1" />
    <line x1="329" y1="463" x2="300" y2="463" style="stroke:#000000;stroke-width:1" />
    <line x1="300" y1="463" x2="271" y2="463" style="stroke:#000000;stroke-width:1" />
    <line x1="271" y1="463" x2="241" y2="463" style="stroke:#000000;stroke-width:1" />
    <line x1="241" y1="463" x2="241" y2="434" style="stroke:#000000;stroke-width:1" />
    <line x1="241" y1="434" x2="271" y2="434" style="stroke:#000000;stroke-width:1" />
    <line x1="271" y1="434" x2="300" y2="434" style="stroke:#000000;stroke-width:1" />
    <line x1="300" y1="434" x2="329" y2="434" style="stroke:#000000;stroke-width:1" />
    <line x1="329" y1="463" x2="329" y2="434" style="stroke:#000000;stroke-width:1" />
	<path d = "M300 463 L300 434 L271 434 L271 463 L300 463 Z" stroke = "#000000" stroke-width = "1" fill = "#000000" />  <path d="M285.2628269312496 463.05916972719325           A44.21151920625004 44.21151920625004 0 0 1 241.0513077250007 507.27068893344415" fill = "none" stroke = "#000000" stroke-width = "5" />
	<path d = "M212 507 L241 537 L241 478 L212 507 Z" stroke = "#000000" stroke-width = "1" fill = "#000000" />	<path d = "M241 463 L241 434 L212 463 L241 463 Z" stroke = "#000000" stroke-width = "1" fill = "#000000" />	<path d = "M212 139 L182 139 L182 168 L212 139 Z" stroke = "#000000" stroke-width = "1" fill = "#000000" />    <line x1="182" y1="168" x2="153" y2="168" style="stroke:#000000;stroke-width:1" />
    <line x1="153" y1="168" x2="123" y2="168" style="stroke:#000000;stroke-width:1" />
    <line x1="123" y1="168" x2="94" y2="168" style="stroke:#000000;stroke-width:1" />
    <line x1="94" y1="168" x2="94" y2="139" style="stroke:#000000;stroke-width:1" />
    <line x1="94" y1="139" x2="123" y2="139" style="stroke:#000000;stroke-width:1" />
    <line x1="123" y1="139" x2="153" y2="139" style="stroke:#000000;stroke-width:1" />
    <line x1="153" y1="139" x2="182" y2="139" style="stroke:#000000;stroke-width:1" />
	<path d = "M138 168 L167 139 L108 139 L138 168 Z" stroke = "#000000" stroke-width = "1" fill = "#000000" />  <path d="M137.8910962437599 138.84136221469183           A44.21151920625004 44.21151920625004 0 0 1 182.10261545001185 94.62984300844391" fill = "none" stroke = "#000000" stroke-width = "5" />
    <line x1="182" y1="198" x2="182" y2="168" style="stroke:#000000;stroke-width:1" />
    <line x1="94" y1="198" x2="94" y2="168" style="stroke:#000000;stroke-width:1" />
    <line x1="182" y1="198" x2="197" y2="198" style="stroke:#000000;stroke-width:1" />
    <circle cx="108" cy = "213" r = "14.737173068750012" stroke = "#000000" stroke-width = "1" fill = "#000000" />
    <circle cx="138" cy = "213" r = "14.737173068750012" stroke = "#000000" stroke-width = "1" fill = "#000000" />
    <line x1="182" y1="227" x2="182" y2="198" style="stroke:#000000;stroke-width:1" />
    <line x1="94" y1="227" x2="94" y2="198" style="stroke:#000000;stroke-width:1" />
    <line x1="182" y1="227" x2="197" y2="227" style="stroke:#000000;stroke-width:1" />
    <circle cx="108" cy = "242" r = "14.737173068750012" stroke = "#000000" stroke-width = "1" fill = "#000000" />
    <circle cx="138" cy = "242" r = "14.737173068750012" stroke = "#000000" stroke-width = "1" fill = "#000000" />
    <line x1="182" y1="257" x2="182" y2="227" style="stroke:#000000;stroke-width:1" />
    <line x1="94" y1="257" x2="94" y2="227" style="stroke:#000000;stroke-width:1" />
    <line x1="182" y1="257" x2="197" y2="257" style="stroke:#000000;stroke-width:1" />
    <line x1="94" y1="257" x2="79" y2="257" style="stroke:#000000;stroke-width:1" />
    <line x1="94" y1="257" x2="123" y2="257" style="stroke:#000000;stroke-width:1" />
    <line x1="123" y1="257" x2="153" y2="257" style="stroke:#000000;stroke-width:1" />
    <line x1="153" y1="257" x2="182" y2="257" style="stroke:#000000;stroke-width:1" />
    <line x1="153" y1="264" x2="153" y2="249" style="stroke:#000000;stroke-width:1" />
    <line x1="123" y1="264" x2="123" y2="249" style="stroke:#000000;stroke-width:1" />
    <line x1="182" y1="286" x2="182" y2="257" style="stroke:#000000;stroke-width:1" />
    <line x1="94" y1="286" x2="94" y2="257" style="stroke:#000000;stroke-width:1" />
    <line x1="182" y1="286" x2="197" y2="286" style="stroke:#000000;stroke-width:1" />
    <circle cx="108" cy = "301" r = "14.737173068750012" stroke = "#000000" stroke-width = "1" fill = "#000000" />
    <circle cx="138" cy = "301" r = "14.737173068750012" stroke = "#000000" stroke-width = "1" fill = "#000000" />
    <circle cx="167" cy = "301" r = "14.737173068750012" stroke = "#000000" stroke-width = "1" fill = "#000000" />
    <line x1="182" y1="316" x2="182" y2="286" style="stroke:#000000;stroke-width:1" />
    <line x1="94" y1="316" x2="94" y2="286" style="stroke:#000000;stroke-width:1" />
    <line x1="182" y1="316" x2="197" y2="316" style="stroke:#000000;stroke-width:1" />
    <circle cx="167" cy = "330" r = "14.737173068750012" stroke = "#000000" stroke-width = "1" fill = "#000000" />
    <line x1="182" y1="345" x2="182" y2="316" style="stroke:#000000;stroke-width:1" />
    <line x1="94" y1="345" x2="94" y2="316" style="stroke:#000000;stroke-width:1" />
    <line x1="182" y1="345" x2="197" y2="345" style="stroke:#000000;stroke-width:1" />
    <line x1="94" y1="345" x2="79" y2="345" style="stroke:#000000;stroke-width:1" />
    <line x1="94" y1="345" x2="123" y2="345" style="stroke:#000000;stroke-width:1" />
    <line x1="123" y1="345" x2="153" y2="345" style="stroke:#000000;stroke-width:1" />
    <line x1="153" y1="345" x2="182" y2="345" style="stroke:#000000;stroke-width:1" />
    <line x1="153" y1="353" x2="153" y2="338" style="stroke:#000000;stroke-width:1" />
    <line x1="123" y1="353" x2="123" y2="338" style="stroke:#000000;stroke-width:1" />
	<path d = "M182 375 L182 345 L153 345 L153 375 L182 375 Z" stroke = "#000000" stroke-width = "1" fill = "#000000" />	<path d = "M123 375 L123 345 L94 345 L94 375 L123 375 Z" stroke = "#000000" stroke-width = "1" fill = "#000000" />	<path d = "M153 404 L153 375 L123 375 L123 404 L153 404 Z" stroke = "#000000" stroke-width = "1" fill = "#000000" /></svg>